<?xml version="1.0" standalone="no"?>
<!DOCTYPE svg PUBLIC "-//W3C//DTD SVG 1.1//EN" "http://www.w3.org/Graphics/SVG/1.1/DTD/svg11.dtd" >
<svg xmlns="http://www.w3.org/2000/svg" xmlns:xlink="http://www.w3.org/1999/xlink" version="1.1">
<metadata>
Created by FontForge 20170731 at Wed May 12 11:31:23 2021
 By Aleksey,,,
Copyright (C)2019 Alexander Cherepanov
</metadata>
<defs>
<font id="TransgenderGrotesk-Regular" horiz-adv-x="1611" >
  <font-face 
    font-family="Transgender Grotesk"
    font-weight="400"
    font-stretch="normal"
    units-per-em="2048"
    panose-1="0 0 5 0 0 0 0 0 0 0"
    ascent="1536"
    descent="-512"
    x-height="1065"
    cap-height="1475"
    bbox="-500 -522 3828 2343"
    underline-thickness="102"
    underline-position="-307"
    unicode-range="U+0020-FEFF"
  />
<missing-glyph horiz-adv-x="1024" 
d="M190 -512v2048h650v-2048h-650zM344 1331h133v-76h-135v-67h340v67h-135v76h135v68h-338v-68zM342 922h340v69h-135v144h-205v-213zM410 991v74h67v-74h-67zM342 799h135v-76h-135v-68h205v144h135v67h-340v-67zM614 608h-272v-69h340v204h-68v-135zM477 379h70v47h67
v-96h-204v164h-68v-232h340v232h-205v-115zM342 -92h340v231h-340v-231zM410 -25v97h204v-97h-204zM342 -207h143l-143 -96v-68h340v68h-209l143 96h66v68h-340v-68z" />
    <glyph glyph-name="fi" unicode="fi" horiz-adv-x="1298" 
d="M289 1065q5 100 42.5 179t93 127t128.5 79t143 43t144 12q192 0 295 -53v-164q-92 60 -285 60q-362 0 -375 -283h660v-1065h-189v911h-471v-911h-188v911h-267v154h269z" />
    <glyph glyph-name="fl" unicode="fl" horiz-adv-x="1294" 
d="M287 1065v2q0 89 29.5 160t78 116.5t116.5 76t140 43t152 12.5h327v-1475h-184v1317h-145q-66 0 -120 -12.5t-100.5 -40t-74 -78.5t-31.5 -121h307v-154h-307v-911h-188v911h-267v154h267z" />
    <glyph glyph-name=".notdef" horiz-adv-x="1024" 
d="M190 -512v2048h650v-2048h-650zM344 1331h133v-76h-135v-67h340v67h-135v76h135v68h-338v-68zM342 922h340v69h-135v144h-205v-213zM410 991v74h67v-74h-67zM342 799h135v-76h-135v-68h205v144h135v67h-340v-67zM614 608h-272v-69h340v204h-68v-135zM477 379h70v47h67
v-96h-204v164h-68v-232h340v232h-205v-115zM342 -92h340v231h-340v-231zM410 -25v97h204v-97h-204zM342 -207h143l-143 -96v-68h340v68h-209l143 96h66v68h-340v-68z" />
    <glyph glyph-name=".null" horiz-adv-x="0" 
 />
    <glyph glyph-name="nonmarkingreturn" horiz-adv-x="682" 
 />
    <glyph glyph-name="space" unicode=" " horiz-adv-x="614" 
 />
    <glyph glyph-name="exclam" unicode="!" horiz-adv-x="495" 
d="M156 410v1065h184v-1065h-184zM248 209q-62 0 -104 -35t-42 -86t42 -85t104 -34t103.5 34t41.5 85t-42 86t-103 35z" />
    <glyph glyph-name="quotedbl" unicode="&#x22;" horiz-adv-x="856" 
d="M10 1024l266 451h209l-319 -451h-156zM319 1024l267 451h209l-320 -451h-156z" />
    <glyph glyph-name="numbersign" unicode="#" horiz-adv-x="1923" 
d="M420 594l164 328h-244v143h313l203 410h184l-202 -410h563l203 410h184l-203 -410h236v-143h-305l-164 -328h231v-143h-301l-223 -451h-185l224 451h-563l-224 -451h-184l223 451h-248v143h318zM1329 922h-561l-164 -328h563z" />
    <glyph glyph-name="dollar" unicode="$" horiz-adv-x="1898" 
d="M82 1083q0 -59 13.5 -102t50 -81t92.5 -66t149.5 -55.5t210.5 -50.5t287 -50v-541q-228 5 -451.5 58t-343.5 137v-193q108 -70 339 -118.5t456 -51.5v-202h157v204q174 9 314 39.5t244 83t160.5 131t56.5 178.5q0 73 -25.5 127t-78 97t-147.5 78t-218 63t-306 59v510
q207 -8 395.5 -54t305.5 -118v195q-125 61 -308.5 99t-392.5 44v166h-157v-166q-374 -12 -588.5 -125t-214.5 -295zM268 1083q0 108 168.5 176.5t448.5 77.5v-485q-366 59 -491.5 102.5t-125.5 128.5zM1042 653q339 -57 462.5 -108t123.5 -142q0 -64 -48.5 -113.5t-133 -80
t-185.5 -47.5t-219 -23v514z" />
    <glyph glyph-name="percent" unicode="%" horiz-adv-x="1564" 
d="M41 1198q0 128 104.5 217.5t268.5 89.5t268 -89.5t104 -217.5t-104 -217.5t-268 -89.5t-268.5 89.5t-104.5 217.5zM420 0h-197l922 1475h196zM207 1198q0 -70 55.5 -115t151.5 -45t151.5 45t55.5 115t-55.5 115t-151.5 45t-151.5 -45t-55.5 -115zM778 276q0 128 105 218
t268 90t268 -90t105 -218t-104.5 -217.5t-268.5 -89.5t-268.5 89.5t-104.5 217.5zM944 276q0 -69 55.5 -114t151.5 -45t151.5 45t55.5 114q0 70 -55.5 115t-151.5 45t-151.5 -45t-55.5 -115z" />
    <glyph glyph-name="ampersand" unicode="&#x26;" horiz-adv-x="1759" 
d="M61 440q0 299 422 426q-69 64 -117.5 143.5t-48.5 159.5q0 150 138 243t387 93q223 0 355 -90.5t132 -234.5q0 -64 -36.5 -120t-90.5 -95t-130.5 -72.5t-140.5 -53t-138 -36.5l467 -414q67 64 153 160l146 158h200l-172 -187q-167 -180 -217 -227l330 -293h-236l-211 186
q-136 -118 -271 -167.5t-327 -49.5q-270 0 -432 127.5t-162 343.5zM492 1169q0 -101 170 -251q69 16 118.5 29t112 32.5t104.5 39t81 44.5t58 54.5t19 62.5q0 84 -90.5 133t-226.5 49q-170 0 -258 -53.5t-88 -139.5zM236 440q0 -82 35.5 -145.5t96.5 -101.5t136 -57t160 -19
q140 0 253.5 41.5t223.5 128.5l-533 471q-183 -33 -277.5 -116.5t-94.5 -201.5z" />
    <glyph glyph-name="quotesingle" unicode="'" horiz-adv-x="563" 
d="M10 1024l266 451h226l-320 -451h-172z" />
    <glyph glyph-name="parenleft" unicode="(" horiz-adv-x="757" 
d="M82 563q0 267 108 508t328 434h199q-430 -365 -430 -942q0 -270 101.5 -502t328.5 -440h-209q-222 208 -324 441.5t-102 500.5z" />
    <glyph glyph-name="parenright" unicode=")" horiz-adv-x="757" 
d="M41 -379q227 208 328.5 440t101.5 502q0 577 -430 942h199q220 -193 328 -434t108 -508t-102 -500.5t-324 -441.5h-209z" />
    <glyph glyph-name="asterisk" unicode="*" horiz-adv-x="956" 
d="M391 1186l23 16v303h129v-305l20 -16l293 94l39 -123l-289 -94l-8 -27l178 -248l-104 -73l-178 245h-31l-178 -245l-105 73l178 248l-8 27l-289 94l39 123z" />
    <glyph glyph-name="plus" unicode="+" horiz-adv-x="1302" 
d="M565 668h-442v151h442v451h170v-451h445v-151h-445v-451h-170v451z" />
    <glyph glyph-name="comma" unicode="," horiz-adv-x="563" 
d="M10 -246l266 451h226l-320 -451h-172z" />
    <glyph glyph-name="hyphen" unicode="-" horiz-adv-x="921" 
d="M840 639v-152h-758v152h758z" />
    <glyph glyph-name="period" unicode="." horiz-adv-x="495" 
d="M248 209q-62 0 -104 -35t-42 -86t42 -85t104 -34t103.5 34t41.5 85t-42 86t-103 35z" />
    <glyph glyph-name="slash" unicode="/" horiz-adv-x="1095" 
d="M174 -328h-174l922 2110h174z" />
    <glyph glyph-name="zero" unicode="0" horiz-adv-x="2244" 
d="M1122 1505q-223 0 -414.5 -60t-323.5 -163t-207 -244t-75 -301q0 -133 47.5 -252t137.5 -212.5t214 -162t283 -105t338 -36.5t338 36.5t283 105t214 162t137.5 212.5t47.5 252q0 160 -75 301t-207 244t-323.5 163t-414.5 60zM1122 1337q180 0 336 -48t262.5 -129
t167 -191t60.5 -232q0 -121 -60.5 -231t-167 -191.5t-262.5 -129.5t-336 -48t-335.5 48t-262 129.5t-167 191.5t-60.5 231q0 122 60.5 232t167 191t262 129t335.5 48z" />
    <glyph glyph-name="one" unicode="1" horiz-adv-x="1236" 
d="M82 977q139 0 247 41t172.5 111t97 158t32.5 188h381v-1475h-195v1286h-43q-57 -213 -236 -337t-456 -124v152z" />
    <glyph glyph-name="two" unicode="2" horiz-adv-x="1632" 
d="M143 397q250 0 455 32t341.5 85t230 125t135 150.5t41.5 162.5q0 181 -155 280t-411 99q-171 0 -336.5 -50t-296.5 -151v205q267 170 652 170q216 0 384.5 -66t262.5 -187.5t94 -278.5q0 -310 -316.5 -498t-885.5 -217v-92h1192v-166h-1387v397z" />
    <glyph glyph-name="three" unicode="3" horiz-adv-x="1644" 
d="M72 305q94 -71 289 -118.5t382 -47.5q296 0 460.5 101t164.5 268q0 107 -81 183.5t-213 112.5t-300 36q-83 0 -166.5 -15t-125.5 -30l-42 -15v144l824 338v53h-1160v160h1352v-279l-428 -176v-39q108 -18 200.5 -53.5t169.5 -91.5t121 -138.5t44 -183.5q0 -251 -214 -398
t-616 -147q-198 0 -374 37t-287 98v201z" />
    <glyph glyph-name="four" unicode="4" horiz-adv-x="1714" 
d="M1102 1475h297v-967h264v-166h-264v-342h-195v342h-1143v248zM1204 508v801h-37l-911 -764v-37h948z" />
    <glyph glyph-name="five" unicode="5" horiz-adv-x="1740" 
d="M143 332q101 -78 292.5 -135.5t406.5 -57.5q287 0 449.5 111t162.5 282q0 149 -148 242.5t-382 93.5q-364 0 -531 -170h-194v777h1360v-160h-1166v-412q97 59 236 95t305 36q197 0 358.5 -58.5t259 -172.5t97.5 -264q0 -255 -216 -412.5t-602 -157.5q-207 0 -383.5 46
t-304.5 116v201z" />
    <glyph glyph-name="six" unicode="6" horiz-adv-x="1761" 
d="M92 721q0 184 63.5 332t179 247t277.5 152t357 53q371 0 628 -168v-188q-107 92 -268.5 144.5t-343.5 52.5q-341 0 -534 -159.5t-193 -449.5v-39q36 55 92.5 104.5t136.5 93.5t190 70.5t234 26.5q216 0 393.5 -63.5t281.5 -181.5t104 -267t-104 -267t-281.5 -181.5
t-393.5 -63.5q-179 0 -320 40t-233.5 108.5t-153 165.5t-86.5 205t-26 233zM328 481q0 -101 77.5 -182t211 -126.5t294.5 -45.5q164 0 297.5 45.5t210 126.5t76.5 182t-76.5 182.5t-210 127t-297.5 45.5q-161 0 -294.5 -45.5t-211 -127t-77.5 -182.5z" />
    <glyph glyph-name="seven" unicode="7" horiz-adv-x="1505" 
d="M1475 1475v-361q-188 0 -334.5 -78.5t-243 -225.5t-150.5 -350.5t-65 -459.5h-184q19 525 224.5 849.5t559.5 395.5v70h-1262v160h1455z" />
    <glyph glyph-name="eight" unicode="8" horiz-adv-x="1802" 
d="M102 426q0 69 29.5 128.5t82.5 104t118 77.5t145 57q-145 43 -238.5 121t-93.5 180q0 190 203 300.5t553 110.5t553 -110.5t203 -300.5q0 -102 -93 -180t-239 -121q80 -24 145 -57t118 -77.5t82.5 -104t29.5 -128.5q0 -143 -98.5 -246.5t-278.5 -157t-422 -53.5
t-422 53.5t-278.5 157t-98.5 246.5zM358 1096q0 -112 142 -172t401 -60t401 60t142 172q0 115 -145 186.5t-398 71.5t-398 -71.5t-145 -186.5zM317 422q0 -135 156.5 -215t427.5 -80t427.5 80t156.5 215q0 134 -154.5 209.5t-429.5 75.5t-429.5 -75.5t-154.5 -209.5z" />
    <glyph glyph-name="nine" unicode="9" horiz-adv-x="1761" 
d="M1669 754q0 -245 -110.5 -423.5t-307.5 -270t-458 -91.5q-372 0 -629 168v189q107 -92 268.5 -144.5t343.5 -52.5q341 0 534 159t193 449v39q-36 -55 -92.5 -104.5t-136.5 -93.5t-190 -70.5t-234 -26.5q-216 0 -393 63.5t-281 181.5t-104 267t104 267t281 181.5t393 63.5
q179 0 320 -40t233.5 -108t153 -165t86.5 -205t26 -233zM1434 993q0 101 -77.5 182.5t-211.5 127t-295 45.5q-164 0 -297.5 -45.5t-210 -127t-76.5 -182.5t76.5 -182t210 -126.5t297.5 -45.5q161 0 295 45.5t211.5 126.5t77.5 182z" />
    <glyph glyph-name="colon" unicode=":" horiz-adv-x="495" 
d="M248 823q-62 0 -104 -35t-42 -86t42 -84.5t104 -33.5t103.5 33.5t41.5 84.5t-42 86t-103 35zM248 209q-62 0 -104 -35t-42 -86t42 -85t104 -34t103.5 34t41.5 85t-42 86t-103 35z" />
    <glyph glyph-name="semicolon" unicode=";" horiz-adv-x="495" 
d="M248 823q-62 0 -104 -35t-42 -86t42 -84.5t104 -33.5t103.5 33.5t41.5 84.5t-42 86t-103 35zM-92 -246l266 451h225l-319 -451h-172z" />
    <glyph glyph-name="less_than" unicode="&#x3c;" horiz-adv-x="1388" 
d="M1266 1100l-734 -328v-39l734 -327v-179l-1143 516l1143 517v-160z" />
    <glyph glyph-name="equal" unicode="=" horiz-adv-x="1302" 
d="M1180 983v-152h-1057v152h1057zM1180 633v-152h-1057v152h1057z" />
    <glyph glyph-name="more_than" unicode="&#x3e;" horiz-adv-x="1388" 
d="M856 727v39l-733 328v166l1143 -517l-1143 -516v172z" />
    <glyph glyph-name="question" unicode="?" horiz-adv-x="1437" 
d="M20 1059q0 83 46 161.5t130 142.5t216.5 103t292.5 39q170 0 304 -34t217.5 -93t127 -136t43.5 -167q0 -60 -17 -110t-44.5 -86.5t-72.5 -70t-90.5 -57.5t-109.5 -51q-149 -63 -221 -131.5t-90 -158.5h-213q7 58 25.5 104t60 97t116.5 100.5t185 99.5q147 66 208.5 124.5
t61.5 139.5q0 123 -120.5 197t-370.5 74q-116 0 -211.5 -28t-153 -71.5t-88.5 -92.5t-31 -95h-201zM649 209q-61 0 -103 -35t-42 -86t41.5 -85t103.5 -34t104 34t42 85t-42 86t-104 35z" />
    <glyph glyph-name="at" unicode="@" horiz-adv-x="2469" 
d="M82 475q0 -199 87 -367.5t242 -286.5t376.5 -184.5t484.5 -66.5q265 0 434 61v179q-70 -38 -187 -60t-247 -22q-219 0 -406.5 56t-318 154.5t-204 237t-73.5 299.5q0 214 124.5 385.5t345 268t495.5 96.5q298 0 513.5 -75.5t334.5 -230t119 -376.5q0 -187 -53 -272
t-138 -85q-164 0 -164 174v521h-184v-119q-92 65 -219.5 107t-269.5 42q-148 0 -270.5 -36.5t-201 -98t-121 -140t-42.5 -165.5t42.5 -165.5t121 -140t201 -98t270.5 -36.5q154 0 289.5 48t226.5 124q36 -81 119.5 -126.5t191.5 -45.5q82 0 150 29.5t122 91t84.5 166
t30.5 243.5q0 250 -143 436.5t-404 285.5t-606 99q-333 0 -595.5 -114t-410 -321t-147.5 -472zM727 471q0 124 136.5 203.5t346.5 79.5q125 0 235.5 -35.5t179.5 -101.5t69 -146q0 -83 -69 -149t-179 -100t-236 -34q-139 0 -248.5 34.5t-172 99.5t-62.5 149z" />
    <glyph glyph-name="A" unicode="A" horiz-adv-x="2189" 
d="M1239 1475l928 -1475h-230l-268 428h-1143l-272 -428h-211l940 1475h256zM1118 1300h-35l-452 -708h934z" />
    <glyph glyph-name="B" unicode="B" horiz-adv-x="1986" 
d="M1151 1475q647 0 647 -385q0 -105 -72.5 -186.5t-171.5 -121.5q65 -16 123 -45t108 -72t79.5 -105t29.5 -134q0 -89 -40.5 -164.5t-122 -135t-218 -93t-315.5 -33.5h-973v1475h926zM1167 846q211 0 320.5 59t109.5 170q0 112 -110.5 174t-319.5 62h-751v-465h751z
M1214 164q244 0 362 72t118 190q0 117 -117.5 186.5t-362.5 69.5h-798v-518h798z" />
    <glyph glyph-name="C" unicode="C" horiz-adv-x="1970" 
d="M1868 338q-116 -97 -287.5 -149t-376.5 -52q-214 0 -388 48t-286 130.5t-172.5 191t-60.5 230.5q0 98 37.5 187t113.5 164t183 130t254 86t319 31q207 0 372 -53.5t273 -142.5v209q-243 155 -645 155q-203 0 -380 -40t-308 -111t-225 -167t-141.5 -210t-47.5 -238
q0 -166 75.5 -307.5t214.5 -244t348 -160.5t464 -58q428 0 664 160v211z" />
    <glyph glyph-name="D" unicode="D" horiz-adv-x="2127" 
d="M842 1475q195 0 357.5 -19.5t283.5 -54.5t214 -87t154.5 -113.5t101 -137.5t56 -155.5t16.5 -170.5q0 -737 -1183 -737h-617v1475h617zM834 164q502 0 746.5 142t244.5 431t-245.5 431.5t-745.5 142.5h-414v-1147h414z" />
    <glyph glyph-name="E" unicode="E" horiz-adv-x="1914" 
d="M1772 1475v-164h-1352v-449h1167v-164h-1167v-534h1352v-164h-1547v1475h1547z" />
    <glyph glyph-name="F" unicode="F" horiz-adv-x="1751" 
d="M1690 1475v-164h-1270v-480h1102v-163h-1102v-668h-195v1475h1465z" />
    <glyph glyph-name="G" unicode="G" horiz-adv-x="2203" 
d="M102 737q0 163 95 307t256 244.5t379 158.5t458 58q215 0 416 -41t326 -112v-209q-103 83 -300 138.5t-442 55.5q-268 0 -495 -76.5t-362.5 -215t-135.5 -308.5t135.5 -308t362.5 -214t495 -76q360 0 576 88v404h-1057v164h1241v-672q-266 -154 -760 -154
q-246 0 -464.5 57t-378 156.5t-252.5 244t-93 310.5z" />
    <glyph glyph-name="H" unicode="H" horiz-adv-x="2140" 
d="M420 1475v-613h1300v613h195v-1475h-195v698h-1300v-698h-195v1475h195z" />
    <glyph glyph-name="I" unicode="I" horiz-adv-x="645" 
d="M420 0h-195v1475h195v-1475z" />
    <glyph glyph-name="J" unicode="J" horiz-adv-x="1456" 
d="M51 127q75 -66 219.5 -112t309.5 -46q107 0 203 18.5t191 66.5t164 122t111.5 193t42.5 272v834h-194v-795q0 -134 -31.5 -235t-81 -160t-121.5 -95.5t-141.5 -48.5t-153.5 -12q-157 0 -298 61.5t-220 145.5v-209z" />
    <glyph glyph-name="K" unicode="K" horiz-adv-x="1992" 
d="M420 1475v-607h41l1411 637v-170l-1249 -561v-33l1370 -741h-365l-1169 633h-39v-633h-195v1475h195z" />
    <glyph glyph-name="L" unicode="L" horiz-adv-x="1658" 
d="M420 1475v-1311h1198v-164h-1393v1475h195z" />
    <glyph glyph-name="M" unicode="M" horiz-adv-x="2572" 
d="M571 1475l709 -1293h45l690 1293h332v-1475h-195v1288h-49l-686 -1288h-248l-706 1288h-49v-1288h-189v1475h346z" />
    <glyph glyph-name="N" unicode="N" horiz-adv-x="2160" 
d="M553 1475l1141 -1291h47v1291h194v-1475h-315l-1153 1288h-47v-1288h-195v1475h328z" />
    <glyph glyph-name="O" unicode="O" horiz-adv-x="2244" 
d="M1122 1505q-223 0 -414.5 -60t-323.5 -163t-207 -244t-75 -301q0 -133 47.5 -252t137.5 -212.5t214 -162t283 -105t338 -36.5t338 36.5t283 105t214 162t137.5 212.5t47.5 252q0 160 -75 301t-207 244t-323.5 163t-414.5 60zM1122 1337q180 0 336 -48t262.5 -129
t167 -191t60.5 -232q0 -121 -60.5 -231t-167 -191.5t-262.5 -129.5t-336 -48t-335.5 48t-262 129.5t-167 191.5t-60.5 231q0 122 60.5 232t167 191t262 129t335.5 48z" />
    <glyph glyph-name="P" unicode="P" horiz-adv-x="1923" 
d="M1145 1475q165 0 292 -25.5t204 -67t125.5 -100.5t66.5 -119t18 -129q0 -65 -18 -123.5t-67 -118t-125.5 -102t-203.5 -69.5t-292 -27h-725v-594h-195v1475h920zM1145 758q268 0 388 75t120 201t-120 201.5t-388 75.5h-725v-553h725z" />
    <glyph glyph-name="Q" unicode="Q" horiz-adv-x="2246" 
d="M102 737q0 -133 47.5 -252t137.5 -212.5t214 -162t283 -105t338 -36.5q319 0 564 113h43l133 -82h313l-289 176v31q123 101 189.5 236.5t66.5 293.5q0 160 -75 301t-207 244t-323.5 163t-414.5 60t-414.5 -60t-323.5 -163t-207 -244t-75 -301zM297 737q0 122 60.5 232
t167 191t262 129t335.5 48t336 -48t262.5 -129t167 -191t60.5 -232q0 -124 -61.5 -234t-174.5 -194h-45l-610 373v-190l434 -265v-30q-168 -60 -369 -60q-180 0 -335.5 48t-262 129.5t-167 191.5t-60.5 231z" />
    <glyph glyph-name="R" unicode="R" horiz-adv-x="1994" 
d="M1145 1475q117 0 215.5 -14.5t168 -38.5t123.5 -58.5t87 -71.5t54.5 -79.5t29.5 -81t8 -78.5t-8 -78.5t-29.5 -81t-54.5 -79.5t-87 -71.5t-123.5 -58.5t-168 -38.5t-215.5 -14.5h-62v-27l912 -604h-314l-946 631h-315v-631h-195v1475h920zM1145 795q113 0 200.5 16
t140.5 41t87 60t46.5 69t12.5 72t-12.5 72t-46.5 69t-87 60t-140.5 41t-200.5 16h-725v-516h725z" />
    <glyph glyph-name="S" unicode="S" horiz-adv-x="1898" 
d="M987 836q-440 71 -579.5 114t-139.5 133q0 116 193 186t508 70q225 0 435 -47.5t339 -126.5v195q-137 66 -341.5 105.5t-432.5 39.5q-409 0 -648 -115t-239 -307q0 -60 13.5 -103.5t52 -81.5t95.5 -66t154 -56t218 -51t298 -51q173 -27 285.5 -48.5t201 -45.5
t135.5 -49.5t70 -56t23 -71.5q0 -72 -61 -125.5t-165 -83t-224 -43.5t-256 -14q-233 0 -470.5 54t-361.5 141v-193q111 -73 352.5 -121.5t470.5 -48.5q199 0 362 26.5t285 78.5t189.5 136t67.5 193q0 76 -27.5 131.5t-83 99t-158 78.5t-233.5 64t-328 60z" />
    <glyph glyph-name="T" unicode="T" horiz-adv-x="1853" 
d="M1823 1475v-164h-799v-1311h-195v1311h-798v164h1792z" />
    <glyph glyph-name="U" unicode="U" horiz-adv-x="1918" 
d="M154 774q0 -234 97.5 -416t282.5 -285.5t431 -103.5q184 0 335.5 60t253 166.5t156.5 255t55 323.5v701h-184v-691q0 -305 -167.5 -476t-448.5 -171q-131 0 -243.5 43.5t-195.5 124.5t-130.5 204.5t-47.5 274.5v691h-194v-701z" />
    <glyph glyph-name="V" unicode="V" horiz-adv-x="1896" 
d="M948 184h37l694 1291h217l-794 -1475h-279l-823 1475h227z" />
    <glyph glyph-name="W" unicode="W" horiz-adv-x="2775" 
d="M733 184h43l484 1291h307l481 -1291h41l473 1291h193l-541 -1475h-307l-482 1288h-43l-483 -1288h-315l-564 1475h220z" />
    <glyph glyph-name="X" unicode="X" horiz-adv-x="2023" 
d="M838 713l-711 563v229l852 -676h49l838 676v-205l-709 -571v-41l866 -688h-288l-725 575h-43l-713 -575h-254l838 676v37z" />
    <glyph glyph-name="Y" unicode="Y" horiz-adv-x="1845" 
d="M928 696h45l657 779h215l-805 -955v-520h-194v520l-846 955h238z" />
    <glyph glyph-name="Z" unicode="Z" horiz-adv-x="1802" 
d="M1483 1262v49h-1381v164h1598v-256l-1376 -1000v-55h1376v-164h-1598v260z" />
    <glyph glyph-name="bracketleft" unicode="[" horiz-adv-x="880" 
d="M410 -203h450v-149h-635v2017h635v-149h-450v-1719z" />
    <glyph glyph-name="backslash" unicode="\" horiz-adv-x="1105" 
d="M184 1782l922 -2110h-184l-922 2110h184z" />
    <glyph glyph-name="bracketright" unicode="]" horiz-adv-x="880" 
d="M655 -352h-635v149h451v1719h-451v149h635v-2017z" />
    <glyph glyph-name="underscore" unicode="_" horiz-adv-x="1179" 
d="M1180 -41v-154h-1180v154h1180z" />
    <glyph glyph-name="grave" unicode="`" horiz-adv-x="559" 
d="M236 1550l323 -348h-203l-358 348h238z" />
    <glyph glyph-name="a" unicode="a" horiz-adv-x="1626" 
d="M82 293q0 -165 154.5 -244.5t431.5 -79.5q231 0 386 61.5t259 176.5v-207h180v670q0 112 -54 195.5t-153.5 133t-230 73.5t-293.5 24q-175 0 -337 -36.5t-280 -111.5v-188q104 82 264 130t347 48q282 0 422.5 -59.5t140.5 -155.5q0 -67 -99 -85.5t-408 -31.5
q-37 -2 -58.5 -3t-56.5 -2.5t-66 -2.5q-289 -13 -419 -89t-130 -216zM1313 514q0 -123 -86 -212t-224.5 -132t-310.5 -43q-413 0 -413 166q0 83 94 119.5t293 42.5q351 11 455 24q140 18 192 58v-23z" />
    <glyph glyph-name="b" unicode="b" horiz-adv-x="1759" 
d="M348 879q235 217 582 217q164 0 305.5 -47t237 -125.5t150 -180.5t54.5 -211q0 -117 -52.5 -220t-147 -179t-233.5 -120t-304 -44q-351 0 -592 219v-188h-184v1475h184v-596zM317 532q0 -174 163.5 -289.5t422.5 -115.5t422.5 115.5t163.5 289.5t-163.5 290t-422.5 116
t-422.5 -116t-163.5 -290z" />
    <glyph glyph-name="c" unicode="c" horiz-adv-x="1449" 
d="M1368 248q-163 -121 -457 -121q-290 0 -465.5 112.5t-175.5 292.5t176 293t465 113q283 0 447 -121v182q-186 97 -447 97q-181 0 -336.5 -43.5t-263 -118.5t-168.5 -179t-61 -223q0 -169 103.5 -297t291.5 -197t434 -69q279 0 457 94v185z" />
    <glyph glyph-name="d" unicode="d" horiz-adv-x="1759" 
d="M1411 0v188q-241 -219 -592 -219q-165 0 -304 44t-233.5 120t-147 179t-52.5 220q0 109 54.5 211t150 180.5t237 125.5t305.5 47q347 0 582 -217v596h184v-1475h-184zM1442 532q0 174 -163.5 290t-422.5 116t-422.5 -116t-163.5 -290t163.5 -289.5t422.5 -115.5
t422.5 115.5t163.5 289.5z" />
    <glyph glyph-name="e" unicode="e" horiz-adv-x="1679" 
d="M82 532q0 -280 220.5 -421.5t653.5 -141.5q154 0 304.5 31.5t259.5 87.5v170q-107 -64 -255 -99.5t-309 -35.5q-334 0 -508 95t-180 300h1329v25q0 114 -54.5 215t-152 176t-240 118.5t-310.5 43.5q-167 0 -310 -44.5t-240.5 -120.5t-152.5 -179.5t-55 -219.5zM289 651
q49 134 195 217.5t356 83.5q218 0 363 -84t190 -217h-1104z" />
    <glyph glyph-name="f" unicode="f" horiz-adv-x="1134" 
d="M287 1065v2q0 112 43 197.5t118.5 137t171.5 77.5t209 26q96 0 179 -20t127 -51v-174q-51 41 -127 64.5t-162 23.5q-170 0 -267 -69.5t-104 -213.5h578v-150h-578v-915h-188v915h-267v150h267z" />
    <glyph glyph-name="g" unicode="g" horiz-adv-x="1759" 
d="M82 532q0 -109 54.5 -210.5t150 -180t237 -125.5t305.5 -47q351 0 582 217v-84q0 -179 -155 -276.5t-427 -97.5q-377 0 -622 176v-187q98 -64 261 -105.5t349 -41.5q232 0 406 63.5t273 191t99 306.5v934h-184v-184q-229 215 -592 215q-165 0 -304 -44t-233.5 -120.5
t-147 -179.5t-52.5 -220zM270 532q0 174 163.5 290t422.5 116t422.5 -116t163.5 -290t-163.5 -289.5t-422.5 -115.5t-422.5 115.5t-163.5 289.5z" />
    <glyph glyph-name="h" unicode="h" 
d="M348 1475v-617q85 104 222.5 171t326.5 67q126 0 229 -30.5t183.5 -94.5t125 -172.5t44.5 -253.5v-545h-185v514q0 220 -111.5 322t-330.5 102q-78 0 -146.5 -12t-136 -43.5t-115 -81t-77 -130.5t-29.5 -186v-485h-184v1475h184z" />
    <glyph glyph-name="i" unicode="i" horiz-adv-x="512" 
d="M256 1499q-67 0 -110.5 -35t-43.5 -86t43.5 -84.5t110.5 -33.5t110.5 33.5t43.5 84.5t-43.5 86t-110.5 35zM164 0v1065h184v-1065h-184z" />
    <glyph glyph-name="j" unicode="j" horiz-adv-x="512" 
d="M256 1499q-67 0 -110.5 -35t-43.5 -86t43.5 -84.5t110.5 -33.5t110.5 33.5t43.5 84.5t-43.5 86t-110.5 35zM348 -8q0 -195 -115.5 -308.5t-312.5 -113.5q-156 0 -256 72v174q110 -88 234 -88q266 0 266 264v1073h184v-1073z" />
    <glyph glyph-name="k" unicode="k" horiz-adv-x="1495" 
d="M348 1475v-820h45l959 441v-158l-801 -369v-39l944 -530h-324l-776 436h-47v-436h-184v1475h184z" />
    <glyph glyph-name="l" unicode="l" horiz-adv-x="512" 
d="M164 0v1475h184v-1475h-184z" />
    <glyph glyph-name="m" unicode="m" horiz-adv-x="2336" 
d="M348 1065v-174q159 205 436 205q52 0 107.5 -11.5t120 -37.5t121.5 -79t92 -126q67 111 187.5 182.5t301.5 71.5q54 0 112 -11t128 -45t123.5 -86t90 -144t36.5 -210v-600h-185v543q0 395 -336 395q-409 0 -409 -416v-522h-184v543q0 395 -336 395q-406 0 -406 -416v-522
h-184v1065h184z" />
    <glyph glyph-name="n" unicode="n" 
d="M348 1065v-207q85 104 222.5 171t326.5 67q126 0 229 -30.5t183.5 -94.5t125 -172.5t44.5 -253.5v-545h-185v514q0 220 -111.5 322t-330.5 102q-78 0 -146.5 -12t-136 -43.5t-115 -81t-77 -130.5t-29.5 -186v-485h-184v1065h184z" />
    <glyph glyph-name="o" unicode="o" horiz-adv-x="1712" 
d="M856 1096q-167 0 -312 -44.5t-246 -120t-158.5 -179.5t-57.5 -220q0 -157 97.5 -285.5t275.5 -203t401 -74.5q167 0 312 44t246 120t158.5 179.5t57.5 219.5t-57.5 220t-158.5 179.5t-246 120t-312 44.5zM856 938q259 0 422.5 -116t163.5 -290t-163.5 -289.5
t-422.5 -115.5t-422.5 115.5t-163.5 289.5t163.5 290t422.5 116z" />
    <glyph glyph-name="p" unicode="p" horiz-adv-x="1759" 
d="M348 1065v-188q241 219 592 219q165 0 304 -44t233.5 -120.5t147 -179.5t52.5 -220q0 -109 -54.5 -210.5t-150 -180t-237 -125.5t-305.5 -47q-347 0 -582 217v-596h-184v1475h184zM317 532q0 -174 163.5 -289.5t422.5 -115.5t422.5 115.5t163.5 289.5t-163.5 290
t-422.5 116t-422.5 -116t-163.5 -290z" />
    <glyph glyph-name="q" unicode="q" horiz-adv-x="1759" 
d="M1411 186q-235 -217 -582 -217q-164 0 -305.5 47t-237 125.5t-150 180t-54.5 210.5q0 117 52.5 220t147 179.5t233.5 120.5t304 44q351 0 592 -219v188h184v-1475h-184v596zM1442 532q0 174 -163.5 290t-422.5 116t-422.5 -116t-163.5 -290t163.5 -289.5t422.5 -115.5
t422.5 115.5t163.5 289.5z" />
    <glyph glyph-name="r" unicode="r" horiz-adv-x="1165" 
d="M352 1065v-193q81 99 204.5 161.5t281.5 62.5q177 0 286 -58v-186q-97 86 -309 86q-60 0 -120.5 -12t-123.5 -42t-110.5 -74.5t-78 -115t-30.5 -157.5v-537h-188v1065h188z" />
    <glyph glyph-name="s" unicode="s" horiz-adv-x="1456" 
d="M92 78q83 -44 243.5 -76.5t344.5 -32.5q322 0 508 93t186 247q0 88 -55.5 143t-183.5 91.5t-359 62.5q-308 34 -409 63.5t-101 98.5q0 77 140.5 127.5t369.5 50.5q350 0 543 -110v159q-68 45 -210.5 73t-332.5 28q-320 0 -507 -97t-187 -243q0 -127 135.5 -191.5
t450.5 -99.5q80 -9 137.5 -16t112 -15t91 -15.5t68.5 -16.5t51 -18.5t33 -21.5t19.5 -26t5.5 -31q0 -80 -131 -131t-359 -51q-193 0 -354.5 34t-249.5 87v-166z" />
    <glyph glyph-name="t" unicode="t" horiz-adv-x="1155" 
d="M287 1065v410h188v-410h557v-154h-557v-479q0 -155 97.5 -230t273.5 -75q182 0 289 63v-159q-86 -62 -306 -62q-113 0 -209 26t-171.5 78t-118.5 137.5t-43 197.5v503h-267v154h267z" />
    <glyph glyph-name="u" unicode="u" 
d="M317 1065v-514q0 -219 112 -321.5t331 -102.5q78 0 146.5 12t136 43.5t115 81t77 130.5t29.5 186v485h184v-1065h-184v207q-85 -104 -222.5 -171t-326.5 -67q-117 0 -220 34t-185 99.5t-129.5 173t-47.5 244.5v545h184z" />
    <glyph glyph-name="v" unicode="v" horiz-adv-x="1478" 
d="M733 188h45l510 877h191l-619 -1065h-221l-639 1065h209z" />
    <glyph glyph-name="w" unicode="w" horiz-adv-x="2140" 
d="M565 184h43l357 881h235l361 -881h43l356 881h170l-432 -1065h-236l-362 885h-39l-359 -885h-256l-436 1065h195z" />
    <glyph glyph-name="x" unicode="x" horiz-adv-x="1613" 
d="M635 516l-526 383v197l661 -482h43l637 482v-174l-514 -390v-38l678 -494h-271l-544 397h-41l-527 -397h-231l635 479v37z" />
    <glyph glyph-name="y" unicode="y" horiz-adv-x="1468" 
d="M743 256h58l483 809h184l-880 -1475h-185l265 445l-668 1030h219z" />
    <glyph glyph-name="z" unicode="z" horiz-adv-x="1378" 
d="M1073 874v41h-981v150h1194v-225l-956 -643v-47h956v-150h-1194v215z" />
    <glyph glyph-name="left_curly_bracket" unicode="{" horiz-adv-x="880" 
d="M123 727q108 0 156.5 38.5t48.5 119.5v332q0 219 125 333.5t378 114.5h29v-152h-29q-161 0 -238 -70t-77 -239v-327q0 -155 -162 -220q162 -65 162 -221v-327q0 -169 77 -239.5t238 -70.5h29v-151h-29q-253 0 -378 114.5t-125 333.5v332q0 81 -48.5 119.5t-156.5 38.5
v141z" />
    <glyph glyph-name="bar" unicode="|" horiz-adv-x="624" 
d="M225 -328v2110h174v-2110h-174z" />
    <glyph glyph-name="right_curly_bracket" unicode="}" horiz-adv-x="880" 
d="M758 586q-108 0 -156.5 -38.5t-48.5 -119.5v-332q0 -218 -125.5 -333t-378.5 -115h-29v151h29q161 0 238.5 70.5t77.5 239.5v327q0 156 161 221q-161 65 -161 220v327q0 169 -77 239t-239 70h-29v152h29q253 0 378.5 -115t125.5 -333v-332q0 -81 48.5 -119.5t156.5 -38.5
v-141z" />
    <glyph glyph-name="uni00A0" unicode="&#xa0;" horiz-adv-x="614" 
 />
    <glyph glyph-name="exclamdown" unicode="&#xa1;" horiz-adv-x="495" 
d="M248 856q61 0 103 35t42 86t-41.5 85t-103.5 34t-104 -34t-42 -85t42 -86t104 -35zM156 655h184v-1065h-184v1065z" />
    <glyph glyph-name="cent" unicode="&#xa2;" horiz-adv-x="1449" 
d="M82 532q0 -225 180.5 -373t485.5 -182v-172h151v164h12q279 0 457 94v185q-163 -121 -457 -121h-12v811h12q283 0 447 -121v182q-186 97 -447 97h-12v184h-151v-195q-300 -35 -483 -187.5t-183 -365.5zM270 532q0 152 128.5 258.5t349.5 137.5v-791q-221 31 -349.5 137
t-128.5 258z" />
    <glyph glyph-name="sterling" unicode="&#xa3;" horiz-adv-x="1847" 
d="M340 582q59 -93 59 -172q0 -44 -19.5 -82.5t-47.5 -64t-65.5 -46t-68 -31.5t-59.5 -18v-168h1585v168h-1271q133 79 133 242q0 81 -43 172h954v153h-1046q-41 63 -60.5 95t-40 84.5t-20.5 97.5q0 148 176.5 237.5t462.5 89.5q215 0 406 -42t317 -119v194
q-275 133 -723 133q-380 0 -603 -134.5t-223 -358.5q0 -128 95 -277h-115v-153h217z" />
    <glyph glyph-name="yen" unicode="&#xa5;" horiz-adv-x="1845" 
d="M928 696h45l657 779h215l-688 -816h428v-153h-545v-123h545v-154h-545v-229h-194v229h-541v154h541v123h-541v153h418l-723 816h238z" />
    <glyph glyph-name="brokenbar" unicode="&#xa6;" horiz-adv-x="624" 
d="M225 942v840h174v-840h-174zM225 -328v953h174v-953h-174z" />
    <glyph glyph-name="section" unicode="&#xa7;" horiz-adv-x="1456" 
d="M82 567q0 -79 32.5 -133t114.5 -97t207 -73t326 -59q225 -33 324.5 -91t99.5 -147q0 -106 -134.5 -166.5t-355.5 -60.5q-191 0 -352.5 35.5t-251.5 89.5v-166q83 -44 243.5 -76.5t344.5 -32.5q311 0 502.5 102t191.5 279q0 99 -46.5 166.5t-151.5 114.5q198 111 198 262
q0 102 -53.5 168t-188.5 116.5t-378 90.5q-273 44 -382.5 93t-109.5 126q0 71 68.5 121t182.5 73t263 23q155 0 301 -28t242 -83v160q-66 44 -215 72.5t-328 28.5q-201 0 -356.5 -42t-246.5 -126.5t-91 -200.5q0 -91 54 -154t175 -108q-114 -57 -171.5 -124.5t-57.5 -152.5z
M266 580q0 57 57 116t150 97q160 -36 281 -56q240 -40 336 -87.5t96 -129.5q0 -58 -42 -116t-122 -101q-134 34 -283 55q-267 39 -370 86t-103 136z" />
    <glyph glyph-name="dieresis" unicode="&#xa8;" horiz-adv-x="1155" 
d="M375 1499q-62 0 -104 -35t-42 -86t42 -84.5t104 -33.5t103.5 33.5t41.5 84.5t-42 86t-103 35zM887 1499q-62 0 -104 -35t-42 -86t42 -84.5t104 -33.5t103.5 33.5t41.5 84.5t-42 86t-103 35z" />
    <glyph glyph-name="copyright" unicode="&#xa9;" horiz-adv-x="2244" 
d="M1122 1505q-223 0 -414.5 -60t-323.5 -163t-207 -244t-75 -301q0 -133 47.5 -252t137.5 -212.5t214 -162t283 -105t338 -36.5t338 36.5t283 105t214 162t137.5 212.5t47.5 252q0 160 -75 301t-207 244t-323.5 163t-414.5 60zM1122 1391q190 0 356.5 -51t283 -138.5
t184 -208.5t67.5 -256q0 -179 -114 -328.5t-319 -237t-458 -87.5t-458 87.5t-319 237t-114 328.5q0 135 67.5 256t184 208.5t283 138.5t356.5 51zM1622 504q-165 -127 -432 -127q-257 0 -412 103t-155 261q0 157 153 260t410 103q134 0 241.5 -34.5t176.5 -92.5v158
q-158 100 -418 100q-155 0 -289.5 -40t-226.5 -107.5t-144.5 -158t-52.5 -188.5q0 -218 198.5 -358.5t514.5 -140.5q268 0 430 104z" />
    <glyph glyph-name="ordfeminine" unicode="&#xaa;" horiz-adv-x="1032" 
d="M72 1034q0 -62 49.5 -104t128 -60t182.5 -18q255 0 377 125v-109h131v377q0 64 -34.5 111.5t-97 75t-139.5 40.5t-171 13q-107 0 -212 -20.5t-173 -61.5v-131q60 44 164.5 71t216.5 27q155 0 231 -27t76 -67q0 -39 -61.5 -50.5t-245.5 -18.5q-17 0 -27 -0.5t-25.5 -1
t-29.5 -1.5q-340 -14 -340 -170zM223 1034q0 35 52 51t157 19q160 5 245.5 15.5t119.5 37.5v-16q0 -61 -50.5 -102t-127 -58.5t-173.5 -17.5q-96 0 -159.5 18t-63.5 53z" />
    <glyph glyph-name="guillemotleft" unicode="&#xab;" horiz-adv-x="1136" 
d="M680 897l-379 -338v-35l399 -352h-213l-405 363l405 362h193zM1085 897l-378 -338v-35l399 -352h-213l-406 363l406 362h192z" />
    <glyph glyph-name="neg" unicode="&#xac;" horiz-adv-x="1425" 
d="M1133 770h-1010v152h1180v-525h-170v373z" />
    <glyph glyph-name="registered" unicode="&#xae;" horiz-adv-x="1361" 
d="M680 1507q-272 0 -445.5 -134t-173.5 -333q0 -134 77.5 -240t219 -165.5t322.5 -59.5q275 0 447.5 130.5t172.5 334.5q0 199 -173.5 333t-446.5 134zM680 1417q226 0 369 -109.5t143 -267.5q0 -156 -143 -265t-369 -109q-225 0 -367.5 109t-142.5 265q0 157 143.5 267
t366.5 110zM778 1298q67 0 116 -14t73 -37t34.5 -46t10.5 -48q0 -26 -10.5 -50t-34.5 -48.5t-73 -39t-116 -14.5h-12v-10l299 -192h-150l-315 202h-96v-202h-105v499h379zM741 1079q164 0 164 74q0 68 -164 68h-237v-142h237z" />
    <glyph glyph-name="macron" unicode="&#xaf;" horiz-adv-x="655" 
d="M655 1300h-655v144h655v-144z" />
    <glyph glyph-name="degree" unicode="&#xb0;" horiz-adv-x="827" 
d="M61 1219q0 118 99 202t254 84t253.5 -84t98.5 -202t-98.5 -202.5t-253.5 -84.5t-254 84.5t-99 202.5zM217 1219q0 -62 53.5 -106t143.5 -44t143 44t53 106t-53 105.5t-143 43.5t-143.5 -43.5t-53.5 -105.5z" />
    <glyph glyph-name="uni00B1" unicode="&#xb1;" horiz-adv-x="1302" 
d="M565 831h-442v152h442v451h170v-451h445v-152h-445v-450h-170v450zM1180 221v-151h-1057v151h1057z" />
    <glyph glyph-name="uni00B2" unicode="&#xb2;" horiz-adv-x="761" 
d="M102 1020q75 17 126 30.5t108 31.5t93.5 35.5t68.5 39.5t46.5 48t14.5 57q0 120 -192 120q-145 0 -263 -84v117q111 72 285 72q149 0 220 -54.5t71 -150.5q0 -224 -428 -307h424v-107h-574v152z" />
    <glyph glyph-name="uni00B3" unicode="&#xb3;" horiz-adv-x="784" 
d="M82 1026q39 -30 115 -49t163 -19q240 0 240 113q0 46 -61.5 70t-163.5 24q-38 0 -74.5 -6t-54.5 -12l-17 -6v76l322 137v18h-457v101h580v-144l-144 -61v-23q79 -16 131 -62.5t52 -119.5q0 -207 -355 -207q-178 0 -276 55v115z" />
    <glyph glyph-name="acute" unicode="&#xb4;" horiz-adv-x="557" 
d="M324 1550l-324 -348h195l358 348h-229z" />
    <glyph glyph-name="paragraph" unicode="&#xb6;" horiz-adv-x="1574" 
d="M778 1475q-165 0 -292 -25.5t-204 -67t-125.5 -100.5t-66.5 -119t-18 -129q0 -65 18 -123.5t67 -118t125.5 -102t203.5 -69.5t292 -27h111v-819h164v1700h-275zM1350 -225h-164v1700h164v-1700zM778 754q-117 0 -206 14.5t-145.5 39.5t-92.5 61.5t-50 76t-14 88.5
q0 61 24 109.5t79.5 88.5t157.5 61.5t247 21.5h111v-561h-111z" />
    <glyph glyph-name="periodcentered" unicode="&#xb7;" horiz-adv-x="454" 
d="M227 817q-61 0 -103 -35t-42 -86t41.5 -84.5t103.5 -33.5t104 33.5t42 84.5t-42 86t-104 35z" />
    <glyph glyph-name="cedilla" unicode="&#xb8;" horiz-adv-x="464" 
d="M186 -86q112 0 175 -47t63 -125q0 -74 -65 -123t-177 -49q-88 0 -141 29v108q48 -26 135 -26q119 0 119 61q0 25 -27 45t-88 20q-77 0 -119 -24v217h123v-86h2z" />
    <glyph glyph-name="uni00B9" unicode="&#xb9;" horiz-adv-x="573" 
d="M51 1296q79 0 138 61.5t59 117.5h213v-607h-133v475h-19q-33 -66 -99 -103.5t-159 -37.5v94z" />
    <glyph glyph-name="ordmasculine" unicode="&#xba;" horiz-adv-x="974" 
d="M487 1485q-194 0 -315 -91t-121 -225q0 -135 121 -225t315 -90q192 0 314.5 91t122.5 224t-122.5 224.5t-314.5 91.5zM487 1370q133 0 214 -57.5t81 -143.5q0 -88 -81 -144t-214 -56t-213.5 56t-80.5 144q0 87 81 144t213 57z" />
    <glyph glyph-name="guillemotright" unicode="&#xbb;" horiz-adv-x="1136" 
d="M51 172l379 338v35l-399 352h213l405 -362l-405 -363h-193zM457 172l379 338v35l-400 352h213l406 -362l-406 -363h-192z" />
    <glyph glyph-name="questiondown" unicode="&#xbf;" horiz-adv-x="1417" 
d="M788 856q62 0 104 35t42 86t-42 85t-104 34t-103.5 -34t-41.5 -85t42 -86t103 -35zM1417 6q0 -83 -45.5 -161.5t-129.5 -142.5t-216.5 -103t-292.5 -39q-170 0 -304 34t-217.5 93t-127 136t-43.5 167q0 60 17 110t44.5 86.5t72.5 70t90.5 57.5t109.5 51q149 63 221 131.5
t90 158.5h213q-7 -58 -25.5 -104t-60 -97t-116.5 -100.5t-185 -99.5q-147 -66 -208.5 -124.5t-61.5 -139.5q0 -123 120.5 -197t370.5 -74q116 0 211.5 28t153 71.5t88.5 92.5t31 95h200z" />
    <glyph glyph-name="Agrave" unicode="&#xc0;" horiz-adv-x="2123" 
d="M852 1905l272 -287h-204l-306 287h238zM1239 1475l928 -1475h-230l-268 428h-1143l-272 -428h-211l940 1475h256zM1118 1300h-35l-452 -708h934z" />
    <glyph glyph-name="Aacute" unicode="&#xc1;" horiz-adv-x="2123" 
d="M1268 1905l-273 -287h176l306 287h-209zM1239 1475l928 -1475h-230l-268 428h-1143l-272 -428h-211l940 1475h256zM1118 1300h-35l-452 -708h934z" />
    <glyph glyph-name="Acircumflex" unicode="&#xc2;" horiz-adv-x="2123" 
d="M621 1587l391 318h92l391 -318h-217l-197 160h-49l-196 -160h-215zM1937 0l-268 428h-1143l-272 -428h-211l940 1475h256l928 -1475h-230zM1118 1300h-35l-452 -708h934z" />
    <glyph glyph-name="Atilde" unicode="&#xc3;" horiz-adv-x="2123" 
d="M762 1645q0 49 31.5 89t80.5 40q35 0 66.5 -16t59.5 -38.5t59.5 -45t79 -38.5t104.5 -16q120 0 195 70.5t75 185.5h-153q0 -49 -32 -89t-81 -40q-35 0 -66.5 16t-59 38.5t-59 45t-79 38.5t-104.5 16q-121 0 -196 -70.5t-75 -185.5h154zM1239 1475l928 -1475h-230
l-268 428h-1143l-272 -428h-211l940 1475h256zM1118 1300h-35l-452 -708h934z" />
    <glyph glyph-name="Adieresis" unicode="&#xc4;" horiz-adv-x="2123" 
d="M801 1866q-62 0 -104 -35t-42 -86t42 -85t104 -34t103.5 34t41.5 85t-42 86t-103 35zM1329 1866q-61 0 -103 -35t-42 -86t41.5 -85t103.5 -34t104 34t42 85t-42 86t-104 35zM1239 1475l928 -1475h-230l-268 428h-1143l-272 -428h-211l940 1475h256zM1118 1300h-35
l-452 -708h934z" />
    <glyph glyph-name="Aring" unicode="&#xc5;" horiz-adv-x="2123" 
d="M827 1765q0 89 70.5 149t173.5 60t173.5 -60t70.5 -149t-70.5 -149t-173.5 -60t-173.5 60t-70.5 149zM1073 1862q-50 0 -85.5 -28t-35.5 -69t35.5 -68.5t85.5 -27.5q51 0 84 27.5t33 68.5t-33 69t-84 28zM1239 1475l928 -1475h-230l-268 428h-1143l-272 -428h-211
l940 1475h256zM1118 1300h-35l-452 -708h934z" />
    <glyph glyph-name="AE" unicode="&#xc6;" horiz-adv-x="3368" 
d="M3226 1475v-164h-1352v-449h1167v-164h-1167v-534h1352v-164h-1547v430h-977l-456 -430h-246l1565 1475h1661zM1679 1315h-39l-763 -721h802v721z" />
    <glyph glyph-name="Ccedilla" unicode="&#xc7;" horiz-adv-x="1970" 
d="M102 737q0 -207 123 -375t348.5 -271t516.5 -120v-188q42 24 118 24q61 0 88 -20t27 -45q0 -61 -119 -61q-87 0 -135 26v-108q53 -29 141 -29q112 0 177 49t65 123q0 78 -63 125t-175 47h-2v53q423 3 656 160v211q-116 -97 -287.5 -149t-376.5 -52q-199 0 -370.5 48.5
t-288 130t-182.5 191t-66 230.5t66 230t182.5 190.5t288 129.5t370.5 48q207 0 372 -53.5t273 -142.5v209q-243 155 -645 155q-192 0 -365 -40t-306 -111.5t-230.5 -166.5t-149 -210t-51.5 -238z" />
    <glyph glyph-name="Egrave" unicode="&#xc8;" horiz-adv-x="1914" 
d="M834 1905l272 -287h-205l-305 287h238zM1772 1475v-164h-1352v-449h1167v-164h-1167v-534h1352v-164h-1547v1475h1547z" />
    <glyph glyph-name="Eacute" unicode="&#xc9;" horiz-adv-x="1914" 
d="M1204 1905l-272 -287h176l305 287h-209zM1772 1475v-164h-1352v-449h1167v-164h-1167v-534h1352v-164h-1547v1475h1547z" />
    <glyph glyph-name="Ecircumflex" unicode="&#xca;" horiz-adv-x="1914" 
d="M555 1587l391 318h92l392 -318h-218l-196 160h-49l-197 -160h-215zM420 862h1167v-164h-1167v-534h1352v-164h-1547v1475h1547v-164h-1352v-449z" />
    <glyph glyph-name="Edieresis" unicode="&#xcb;" horiz-adv-x="1914" 
d="M762 1866q-62 0 -104 -35t-42 -86t42 -85t104 -34t103.5 34t41.5 85t-42 86t-103 35zM1290 1866q-61 0 -103 -35t-42 -86t41.5 -85t103.5 -34t104 34t42 85t-42 86t-104 35zM1772 1475v-164h-1352v-449h1167v-164h-1167v-534h1352v-164h-1547v1475h1547z" />
    <glyph glyph-name="Igrave" unicode="&#xcc;" horiz-adv-x="645" 
d="M106 1905l273 -287h-205l-305 287h237zM420 0h-195v1475h195v-1475z" />
    <glyph glyph-name="Iacute" unicode="&#xcd;" horiz-adv-x="645" 
d="M539 1905l-273 -287h176l306 287h-209zM420 0h-195v1475h195v-1475z" />
    <glyph glyph-name="Icircumflex" unicode="&#xce;" horiz-adv-x="645" 
d="M545 1587l-197 160h-49l-197 -160h-215l392 318h92l391 -318h-217zM420 1475v-1475h-195v1475h195z" />
    <glyph glyph-name="Idieresis" unicode="&#xcf;" horiz-adv-x="645" 
d="M57 1866q-61 0 -103 -35t-42 -86t41.5 -85t103.5 -34t104 34t42 85t-42 86t-104 35zM586 1866q-62 0 -104 -35t-42 -86t42 -85t104 -34t103.5 34t41.5 85t-42 86t-103 35zM420 0h-195v1475h195v-1475z" />
    <glyph glyph-name="Eth" unicode="&#xd0;" horiz-adv-x="2158" 
d="M256 836v639h616q271 0 478.5 -38t339.5 -102.5t215.5 -160t117 -201.5t33.5 -236q0 -737 -1184 -737h-616v678h-205v158h205zM864 164q502 0 746.5 142t244.5 431t-245.5 431.5t-745.5 142.5h-413v-475h522v-158h-522v-514h413z" />
    <glyph glyph-name="Ntilde" unicode="&#xd1;" horiz-adv-x="2160" 
d="M807 1645q0 49 32 89t81 40q35 0 66.5 -16t59 -38.5t59 -45t79 -38.5t104.5 -16q121 0 196 70.5t75 185.5h-154q0 -49 -32 -89t-81 -40q-35 0 -66.5 16t-59 38.5t-59 45t-79 38.5t-104.5 16q-121 0 -196 -70.5t-75 -185.5h154zM553 1475l1141 -1291h47v1291h194v-1475
h-315l-1153 1288h-47v-1288h-195v1475h328z" />
    <glyph glyph-name="Ograve" unicode="&#xd2;" horiz-adv-x="2244" 
d="M961 1905l272 -287h-205l-305 287h238zM1122 1505q-223 0 -414.5 -60t-323.5 -163t-207 -244t-75 -301q0 -133 47.5 -252t137.5 -212.5t214 -162t283 -105t338 -36.5t338 36.5t283 105t214 162t137.5 212.5t47.5 252q0 160 -75 301t-207 244t-323.5 163t-414.5 60z
M1122 1337q180 0 336 -48t262.5 -129t167 -191t60.5 -232q0 -121 -60.5 -231t-167 -191.5t-262.5 -129.5t-336 -48t-335.5 48t-262 129.5t-167 191.5t-60.5 231q0 122 60.5 232t167 191t262 129t335.5 48z" />
    <glyph glyph-name="Oacute" unicode="&#xd3;" horiz-adv-x="2244" 
d="M1309 1905l-273 -287h176l306 287h-209zM1122 1505q-223 0 -414.5 -60t-323.5 -163t-207 -244t-75 -301q0 -133 47.5 -252t137.5 -212.5t214 -162t283 -105t338 -36.5t338 36.5t283 105t214 162t137.5 212.5t47.5 252q0 160 -75 301t-207 244t-323.5 163t-414.5 60z
M1122 1337q180 0 336 -48t262.5 -129t167 -191t60.5 -232q0 -121 -60.5 -231t-167 -191.5t-262.5 -129.5t-336 -48t-335.5 48t-262 129.5t-167 191.5t-60.5 231q0 122 60.5 232t167 191t262 129t335.5 48z" />
    <glyph glyph-name="Ocircumflex" unicode="&#xd4;" horiz-adv-x="2244" 
d="M690 1587l391 318h93l391 -318h-217l-197 160h-49l-197 -160h-215zM1122 1505q223 0 414.5 -60t323.5 -163t207 -244t75 -301q0 -133 -47.5 -252t-137.5 -212.5t-214 -162t-283 -105t-338 -36.5t-338 36.5t-283 105t-214 162t-137.5 212.5t-47.5 252q0 160 75 301
t207 244t323.5 163t414.5 60zM1122 137q180 0 336 48t262.5 129.5t167 191.5t60.5 231q0 122 -60.5 232t-167 191t-262.5 129t-336 48t-335.5 -48t-262 -129t-167 -191t-60.5 -232q0 -121 60.5 -231t167 -191.5t262 -129.5t335.5 -48z" />
    <glyph glyph-name="Otilde" unicode="&#xd5;" horiz-adv-x="2244" 
d="M813 1645q0 49 32 89t81 40q35 0 66.5 -16t59 -38.5t59 -45t79 -38.5t104.5 -16q121 0 196 70.5t75 185.5h-154q0 -49 -32 -89t-81 -40q-35 0 -66.5 16t-59 38.5t-59 45t-79 38.5t-104.5 16q-121 0 -196 -70.5t-75 -185.5h154zM1122 1505q-223 0 -414.5 -60t-323.5 -163
t-207 -244t-75 -301q0 -133 47.5 -252t137.5 -212.5t214 -162t283 -105t338 -36.5t338 36.5t283 105t214 162t137.5 212.5t47.5 252q0 160 -75 301t-207 244t-323.5 163t-414.5 60zM1122 1337q180 0 336 -48t262.5 -129t167 -191t60.5 -232q0 -121 -60.5 -231t-167 -191.5
t-262.5 -129.5t-336 -48t-335.5 48t-262 129.5t-167 191.5t-60.5 231q0 122 60.5 232t167 191t262 129t335.5 48z" />
    <glyph glyph-name="Odieresis" unicode="&#xd6;" horiz-adv-x="2244" 
d="M850 1866q-61 0 -103 -35t-42 -86t41.5 -85t103.5 -34t103.5 34t41.5 85t-42 86t-103 35zM1378 1866q-61 0 -103 -35t-42 -86t41.5 -85t103.5 -34t104 34t42 85t-42 86t-104 35zM1122 1505q-223 0 -414.5 -60t-323.5 -163t-207 -244t-75 -301q0 -133 47.5 -252
t137.5 -212.5t214 -162t283 -105t338 -36.5t338 36.5t283 105t214 162t137.5 212.5t47.5 252q0 160 -75 301t-207 244t-323.5 163t-414.5 60zM1122 1337q180 0 336 -48t262.5 -129t167 -191t60.5 -232q0 -121 -60.5 -231t-167 -191.5t-262.5 -129.5t-336 -48t-335.5 48
t-262 129.5t-167 191.5t-60.5 231q0 122 60.5 232t167 191t262 129t335.5 48z" />
    <glyph glyph-name="multiply" unicode="&#xd7;" horiz-adv-x="1138" 
d="M131 1024l107 92l331 -307l324 307l102 -86l-329 -311l350 -326l-107 -92l-346 322l-338 -322l-102 86l344 326z" />
    <glyph glyph-name="Oslash" unicode="&#xd8;" horiz-adv-x="2244" 
d="M102 737q0 -173 79 -318t225 -249l-254 -242h237l164 156q246 -115 569 -115q179 0 338 36.5t283 105t214 162t137.5 212.5t47.5 252q0 168 -80 313t-227 250l256 244h-238l-165 -158q-247 119 -566 119q-223 0 -414.5 -60t-323.5 -163t-207 -244t-75 -301zM297 737
q0 122 60.5 232t167 191t262 129t335.5 48q241 0 428 -82l-1005 -954q-119 84 -183.5 196.5t-64.5 239.5zM1700 1174q119 -84 183.5 -197t64.5 -240q0 -121 -60.5 -231t-167 -191.5t-262.5 -129.5t-336 -48q-233 0 -428 82z" />
    <glyph glyph-name="Ugrave" unicode="&#xd9;" horiz-adv-x="1918" 
d="M780 1905l273 -287h-205l-305 287h237zM154 774q0 -234 97.5 -416t282.5 -285.5t431 -103.5q184 0 335.5 60t253 166.5t156.5 255t55 323.5v701h-184v-691q0 -305 -167.5 -476t-448.5 -171q-131 0 -243.5 43.5t-195.5 124.5t-130.5 204.5t-47.5 274.5v691h-194v-701z" />
    <glyph glyph-name="Uacute" unicode="&#xda;" horiz-adv-x="1918" 
d="M1141 1905l-273 -287h176l306 287h-209zM154 774q0 -234 97.5 -416t282.5 -285.5t431 -103.5q184 0 335.5 60t253 166.5t156.5 255t55 323.5v701h-184v-691q0 -305 -167.5 -476t-448.5 -171q-131 0 -243.5 43.5t-195.5 124.5t-130.5 204.5t-47.5 274.5v691h-194v-701z
" />
    <glyph glyph-name="Ucircumflex" unicode="&#xdb;" horiz-adv-x="1918" 
d="M522 1587l391 318h93l391 -318h-217l-197 160h-49l-197 -160h-215zM1765 774q0 -175 -55 -323.5t-156.5 -255t-253 -166.5t-335.5 -60q-246 0 -431 103.5t-282.5 285.5t-97.5 416v701h194v-691q0 -151 47.5 -274.5t130.5 -204.5t195.5 -124.5t243.5 -43.5
q281 0 448.5 171t167.5 476v691h184v-701z" />
    <glyph glyph-name="Udieresis" unicode="&#xdc;" horiz-adv-x="1918" 
d="M694 1866q-61 0 -103 -35t-42 -86t41.5 -85t103.5 -34t104 34t42 85t-42 86t-104 35zM1223 1866q-62 0 -104 -35t-42 -86t42 -85t104 -34t103.5 34t41.5 85t-42 86t-103 35zM154 774q0 -234 97.5 -416t282.5 -285.5t431 -103.5q184 0 335.5 60t253 166.5t156.5 255
t55 323.5v701h-184v-691q0 -305 -167.5 -476t-448.5 -171q-131 0 -243.5 43.5t-195.5 124.5t-130.5 204.5t-47.5 274.5v691h-194v-701z" />
    <glyph glyph-name="Yacute" unicode="&#xdd;" horiz-adv-x="1845" 
d="M1163 1905l-272 -287h176l305 287h-209zM928 696h45l657 779h215l-805 -955v-520h-194v520l-846 955h238z" />
    <glyph glyph-name="Thorn" unicode="&#xde;" horiz-adv-x="1882" 
d="M420 1219h684q165 0 292 -25.5t204 -67t125.5 -100.5t66.5 -119t18 -129q0 -65 -18 -123.5t-67 -118t-125.5 -102t-203.5 -69.5t-292 -27h-684v-338h-195v1475h195v-256zM1104 502q268 0 388 75t120 201t-120 201.5t-388 75.5h-684v-553h684z" />
    <glyph glyph-name="eszett" unicode="&#xdf;" horiz-adv-x="1779" 
d="M287 1065q2 113 46.5 199t121.5 137.5t175.5 77.5t215.5 26q105 0 198.5 -18t172.5 -55t125.5 -101t46.5 -147q0 -65 -34.5 -118.5t-105.5 -115.5t-97 -98.5t-26 -77.5q0 -43 33.5 -76t86.5 -54.5t117.5 -41.5t128.5 -44.5t117 -56t86.5 -83.5t33.5 -119
q0 -149 -158.5 -239.5t-423.5 -90.5q-284 0 -475 101v166q194 -117 491 -117q166 0 271.5 50t105.5 136q0 40 -33 69t-85.5 48.5t-116.5 37.5t-128 41.5t-116.5 54t-85.5 82.5t-33 120t35.5 126.5t107.5 119.5q53 44 84 86.5t31 91.5q0 54 -48 92.5t-122.5 56t-167.5 17.5
q-391 0 -391 -306v-1042h-184v911h-267v154h267z" />
    <glyph glyph-name="agrave" unicode="&#xe0;" horiz-adv-x="1626" 
d="M578 1550l323 -348h-203l-358 348h238zM82 293q0 -165 154.5 -244.5t431.5 -79.5q231 0 386 61.5t259 176.5v-207h180v670q0 112 -54 195.5t-153.5 133t-230 73.5t-293.5 24q-175 0 -337 -36.5t-280 -111.5v-188q104 82 264 130t347 48q282 0 422.5 -59.5t140.5 -155.5
q0 -67 -99 -85.5t-408 -31.5q-37 -2 -58.5 -3t-56.5 -2.5t-66 -2.5q-289 -13 -419 -89t-130 -216zM1313 514q0 -123 -86 -212t-224.5 -132t-310.5 -43q-413 0 -413 166q0 83 94 119.5t293 42.5q351 11 455 24q140 18 192 58v-23z" />
    <glyph glyph-name="aacute" unicode="&#xe1;" horiz-adv-x="1626" 
d="M1024 1550l-324 -348h195l358 348h-229zM82 293q0 -165 154.5 -244.5t431.5 -79.5q231 0 386 61.5t259 176.5v-207h180v670q0 112 -54 195.5t-153.5 133t-230 73.5t-293.5 24q-175 0 -337 -36.5t-280 -111.5v-188q104 82 264 130t347 48q282 0 422.5 -59.5t140.5 -155.5
q0 -67 -99 -85.5t-408 -31.5q-37 -2 -58.5 -3t-56.5 -2.5t-66 -2.5q-289 -13 -419 -89t-130 -216zM1313 514q0 -123 -86 -212t-224.5 -132t-310.5 -43q-413 0 -413 166q0 83 94 119.5t293 42.5q351 11 455 24q140 18 192 58v-23z" />
    <glyph glyph-name="acircumflex" unicode="&#xe2;" horiz-adv-x="1626" 
d="M330 1202l436 348h78l436 -348h-207l-239 191h-54l-239 -191h-211zM762 1096q163 0 293.5 -24t230 -73.5t153.5 -133t54 -195.5v-670h-180v207q-104 -115 -259 -176.5t-386 -61.5q-277 0 -431.5 79.5t-154.5 244.5q0 140 130 216t419 89q66 3 181 8q307 13 407 31.5
t100 85.5q0 96 -140.5 155.5t-422.5 59.5q-187 0 -347 -48t-264 -130v188q118 75 280 111.5t337 36.5zM1313 537q-57 -44 -191.5 -58.5t-412.5 -22.5q-28 -1 -43 -1q-199 -6 -293 -42.5t-94 -119.5q0 -166 413 -166q172 0 310.5 43t224.5 132t86 212v23z" />
    <glyph glyph-name="atilde" unicode="&#xe3;" horiz-adv-x="1626" 
d="M518 1278q0 49 32 89t81 40q35 0 66.5 -16t59 -38.5t59 -45t79 -38.5t104.5 -16q121 0 196 70.5t75 185.5h-154q0 -49 -31.5 -89t-80.5 -40q-35 0 -66.5 16t-59.5 38.5t-59.5 45t-79 38.5t-104.5 16q-120 0 -195 -70.5t-75 -185.5h153zM82 293q0 -165 154.5 -244.5
t431.5 -79.5q231 0 386 61.5t259 176.5v-207h180v670q0 112 -54 195.5t-153.5 133t-230 73.5t-293.5 24q-175 0 -337 -36.5t-280 -111.5v-188q104 82 264 130t347 48q282 0 422.5 -59.5t140.5 -155.5q0 -67 -99 -85.5t-408 -31.5q-37 -2 -58.5 -3t-56.5 -2.5t-66 -2.5
q-289 -13 -419 -89t-130 -216zM1313 514q0 -123 -86 -212t-224.5 -132t-310.5 -43q-413 0 -413 166q0 83 94 119.5t293 42.5q351 11 455 24q140 18 192 58v-23z" />
    <glyph glyph-name="adieresis" unicode="&#xe4;" horiz-adv-x="1626" 
d="M549 1499q-62 0 -104 -35t-42 -86t42 -84.5t104 -33.5t103.5 33.5t41.5 84.5t-42 86t-103 35zM1061 1499q-62 0 -104 -35t-42 -86t42 -84.5t104 -33.5t103.5 33.5t41.5 84.5t-42 86t-103 35zM82 293q0 -165 154.5 -244.5t431.5 -79.5q231 0 386 61.5t259 176.5v-207h180
v670q0 112 -54 195.5t-153.5 133t-230 73.5t-293.5 24q-175 0 -337 -36.5t-280 -111.5v-188q104 82 264 130t347 48q282 0 422.5 -59.5t140.5 -155.5q0 -67 -99 -85.5t-408 -31.5q-37 -2 -58.5 -3t-56.5 -2.5t-66 -2.5q-289 -13 -419 -89t-130 -216zM1313 514
q0 -123 -86 -212t-224.5 -132t-310.5 -43q-413 0 -413 166q0 83 94 119.5t293 42.5q351 11 455 24q140 18 192 58v-23z" />
    <glyph glyph-name="aring" unicode="&#xe5;" horiz-adv-x="1626" 
d="M573 1378q0 89 70.5 149t173.5 60t173.5 -60t70.5 -149t-70.5 -149t-173.5 -60t-173.5 60t-70.5 149zM819 1475q-50 0 -85.5 -28t-35.5 -69t35.5 -68.5t85.5 -27.5q51 0 84 27.5t33 68.5t-33 69t-84 28zM82 293q0 -165 154.5 -244.5t431.5 -79.5q231 0 386 61.5
t259 176.5v-207h180v670q0 112 -54 195.5t-153.5 133t-230 73.5t-293.5 24q-175 0 -337 -36.5t-280 -111.5v-188q104 82 264 130t347 48q282 0 422.5 -59.5t140.5 -155.5q0 -67 -99 -85.5t-408 -31.5q-37 -2 -58.5 -3t-56.5 -2.5t-66 -2.5q-289 -13 -419 -89t-130 -216z
M1313 514q0 -123 -86 -212t-224.5 -132t-310.5 -43q-413 0 -413 166q0 83 94 119.5t293 42.5q351 11 455 24q140 18 192 58v-23z" />
    <glyph glyph-name="ae" unicode="&#xe6;" horiz-adv-x="2691" 
d="M82 315q0 -346 545 -346q442 0 665 264q97 -125 281 -194.5t434 -69.5q141 0 278.5 29.5t245.5 85.5v170q-220 -131 -524 -131q-295 0 -449.5 105t-160.5 290h1212v25q0 115 -47.5 215t-136 175.5t-223.5 119t-301 43.5q-170 0 -313 -57.5t-240 -159.5q-195 217 -627 217
q-154 0 -310.5 -38t-265.5 -110v-188q94 81 246.5 129.5t323.5 48.5q146 0 262.5 -31t189 -96.5t72.5 -155.5v-4h-440q-717 0 -717 -336zM1415 651q44 133 172.5 217t308.5 84q216 0 346.5 -83t167.5 -218h-995zM279 315q0 46 24.5 81.5t81.5 63.5t161 43t253 15h440v-20
q0 -115 -88 -201.5t-219.5 -128t-280.5 -41.5q-372 0 -372 188z" />
    <glyph glyph-name="ccedilla" unicode="&#xe7;" horiz-adv-x="1449" 
d="M82 532q0 -154 92.5 -276.5t254 -194t370.5 -88.5v-190q42 24 119 24q61 0 87.5 -20t26.5 -45q0 -61 -119 -61q-87 0 -135 26v-108q53 -29 142 -29q112 0 176.5 48.5t64.5 123.5q0 78 -62.5 125t-174.5 47h-2v55q269 3 446 94v185q-163 -121 -457 -121q-183 0 -329 51
t-229 144t-83 210t83 210t229 144.5t329 51.5q283 0 447 -121v182q-186 97 -447 97q-232 0 -422.5 -74t-298.5 -203.5t-108 -286.5z" />
    <glyph glyph-name="egrave" unicode="&#xe8;" horiz-adv-x="1679" 
d="M614 1550l324 -348h-203l-358 348h237zM82 532q0 -280 220.5 -421.5t653.5 -141.5q154 0 304.5 31.5t259.5 87.5v170q-107 -64 -255 -99.5t-309 -35.5q-334 0 -508 95t-180 300h1329v25q0 114 -54.5 215t-152 176t-240 118.5t-310.5 43.5q-167 0 -310 -44.5
t-240.5 -120.5t-152.5 -179.5t-55 -219.5zM289 651q49 134 195 217.5t356 83.5q218 0 363 -84t190 -217h-1104z" />
    <glyph glyph-name="eacute" unicode="&#xe9;" horiz-adv-x="1679" 
d="M1094 1550l-324 -348h195l358 348h-229zM82 532q0 -280 220.5 -421.5t653.5 -141.5q154 0 304.5 31.5t259.5 87.5v170q-107 -64 -255 -99.5t-309 -35.5q-334 0 -508 95t-180 300h1329v25q0 114 -54.5 215t-152 176t-240 118.5t-310.5 43.5q-167 0 -310 -44.5
t-240.5 -120.5t-152.5 -179.5t-55 -219.5zM289 651q49 134 195 217.5t356 83.5q218 0 363 -84t190 -217h-1104z" />
    <glyph glyph-name="ecircumflex" unicode="&#xea;" horiz-adv-x="1679" 
d="M371 1202l436 348h78l436 -348h-207l-240 191h-53l-239 -191h-211zM268 518q6 -205 180 -300t508 -95q161 0 309 35.5t255 99.5v-170q-109 -56 -259.5 -87.5t-304.5 -31.5q-433 0 -653.5 141.5t-220.5 421.5q0 116 55 219.5t152.5 179.5t240.5 120.5t310 44.5
q168 0 310.5 -43.5t240 -118.5t152 -176t54.5 -215v-25h-1329zM1393 651q-45 133 -190 217t-363 84q-210 0 -356 -83.5t-195 -217.5h1104z" />
    <glyph glyph-name="edieresis" unicode="&#xeb;" horiz-adv-x="1679" 
d="M596 1499q-61 0 -103 -35t-42 -86t41.5 -84.5t103.5 -33.5t103.5 33.5t41.5 84.5t-42 86t-103 35zM1108 1499q-61 0 -103 -35t-42 -86t41.5 -84.5t103.5 -33.5t103.5 33.5t41.5 84.5t-42 86t-103 35zM82 532q0 -280 220.5 -421.5t653.5 -141.5q154 0 304.5 31.5
t259.5 87.5v170q-107 -64 -255 -99.5t-309 -35.5q-334 0 -508 95t-180 300h1329v25q0 114 -54.5 215t-152 176t-240 118.5t-310.5 43.5q-167 0 -310 -44.5t-240.5 -120.5t-152.5 -179.5t-55 -219.5zM289 651q49 134 195 217.5t356 83.5q218 0 363 -84t190 -217h-1104z" />
    <glyph glyph-name="igrave" unicode="&#xec;" horiz-adv-x="512" 
d="M14 1550l324 -348h-203l-358 348h237zM164 0v1065h184v-1065h-184z" />
    <glyph glyph-name="iacute" unicode="&#xed;" horiz-adv-x="512" 
d="M504 1550l-324 -348h195l358 348h-229zM164 0v1065h184v-1065h-184z" />
    <glyph glyph-name="icircumflex" unicode="&#xee;" horiz-adv-x="512" 
d="M532 1202l-239 191h-53l-240 -191h-211l436 348h78l436 -348h-207zM348 1065v-1065h-184v1065h184z" />
    <glyph glyph-name="idieresis" unicode="&#xef;" horiz-adv-x="512" 
d="M0 1499q-61 0 -103 -35t-42 -86t41.5 -84.5t103.5 -33.5t103.5 33.5t41.5 84.5t-42 86t-103 35zM512 1499q-61 0 -103 -35t-42 -86t41.5 -84.5t103.5 -33.5t103.5 33.5t41.5 84.5t-42 86t-103 35zM164 0v1065h184v-1065h-184z" />
    <glyph glyph-name="eth" unicode="&#xf0;" horiz-adv-x="1712" 
d="M82 502q0 -110 57.5 -208.5t158.5 -170t246 -113t312 -41.5q237 0 414.5 74.5t271.5 224.5q88 142 88 385q0 281 -163.5 472t-481.5 278l307 225h-200l-261 -190q-200 37 -456 37h-166v-125h188q147 0 289 -19l-291 -213h201l252 185q274 -62 437.5 -197.5t189.5 -317.5
q-226 246 -650 246q-163 0 -303 -41.5t-236 -113t-150 -169t-54 -208.5zM270 502q0 163 163 270t423 107t423 -107t163 -270q0 -160 -163.5 -266.5t-422.5 -106.5t-422.5 106.5t-163.5 266.5z" />
    <glyph glyph-name="ntilde" unicode="&#xf1;" 
d="M514 1278q0 49 32 89t81 40q35 0 66.5 -16t59 -38.5t59 -45t79 -38.5t104.5 -16q121 0 196 70.5t75 185.5h-154q0 -49 -32 -89t-81 -40q-35 0 -66.5 16t-59 38.5t-59 45t-79 38.5t-104.5 16q-121 0 -196 -70.5t-75 -185.5h154zM348 1065v-207q85 104 222.5 171t326.5 67
q126 0 229 -30.5t183.5 -94.5t125 -172.5t44.5 -253.5v-545h-185v514q0 220 -111.5 322t-330.5 102q-78 0 -146.5 -12t-136 -43.5t-115 -81t-77 -130.5t-29.5 -186v-485h-184v1065h184z" />
    <glyph glyph-name="ograve" unicode="&#xf2;" horiz-adv-x="1712" 
d="M590 1550l323 -348h-202l-359 348h238zM856 1096q-167 0 -312 -44.5t-246 -120t-158.5 -179.5t-57.5 -220q0 -157 97.5 -285.5t275.5 -203t401 -74.5q167 0 312 44t246 120t158.5 179.5t57.5 219.5t-57.5 220t-158.5 179.5t-246 120t-312 44.5zM856 938q259 0 422.5 -116
t163.5 -290t-163.5 -289.5t-422.5 -115.5t-422.5 115.5t-163.5 289.5t163.5 290t422.5 116z" />
    <glyph glyph-name="oacute" unicode="&#xf3;" horiz-adv-x="1712" 
d="M1096 1550l-324 -348h195l358 348h-229zM856 1096q-167 0 -312 -44.5t-246 -120t-158.5 -179.5t-57.5 -220q0 -157 97.5 -285.5t275.5 -203t401 -74.5q167 0 312 44t246 120t158.5 179.5t57.5 219.5t-57.5 220t-158.5 179.5t-246 120t-312 44.5zM856 938
q259 0 422.5 -116t163.5 -290t-163.5 -289.5t-422.5 -115.5t-422.5 115.5t-163.5 289.5t163.5 290t422.5 116z" />
    <glyph glyph-name="ocircumflex" unicode="&#xf4;" horiz-adv-x="1712" 
d="M385 1202l436 348h78l436 -348h-207l-239 191h-53l-240 -191h-211zM856 1096q167 0 312 -44.5t246 -120t158.5 -179.5t57.5 -220t-57.5 -219.5t-158.5 -179.5t-246 -120t-312 -44q-223 0 -401 74.5t-275.5 203t-97.5 285.5q0 116 57.5 220t158.5 179.5t246 120t312 44.5z
M856 127q259 0 422.5 115.5t163.5 289.5t-163.5 290t-422.5 116t-422.5 -116t-163.5 -290t163.5 -289.5t422.5 -115.5z" />
    <glyph glyph-name="otilde" unicode="&#xf5;" horiz-adv-x="1712" 
d="M535 1278q0 49 31.5 89t80.5 40q35 0 66.5 -16t59.5 -38.5t59.5 -45t79 -38.5t104.5 -16q120 0 195 70.5t75 185.5h-153q0 -49 -32 -89t-81 -40q-35 0 -66.5 16t-59.5 38.5t-59.5 45t-79 38.5t-104.5 16q-120 0 -195 -70.5t-75 -185.5h154zM856 1096q-167 0 -312 -44.5
t-246 -120t-158.5 -179.5t-57.5 -220q0 -157 97.5 -285.5t275.5 -203t401 -74.5q167 0 312 44t246 120t158.5 179.5t57.5 219.5t-57.5 220t-158.5 179.5t-246 120t-312 44.5zM856 938q259 0 422.5 -116t163.5 -290t-163.5 -289.5t-422.5 -115.5t-422.5 115.5t-163.5 289.5
t163.5 290t422.5 116z" />
    <glyph glyph-name="odieresis" unicode="&#xf6;" horiz-adv-x="1712" 
d="M590 1499q-62 0 -104 -35t-42 -86t42 -84.5t104 -33.5t103.5 33.5t41.5 84.5t-42 86t-103 35zM1102 1499q-62 0 -104 -35t-42 -86t42 -84.5t104 -33.5t103.5 33.5t41.5 84.5t-42 86t-103 35zM856 1096q-167 0 -312 -44.5t-246 -120t-158.5 -179.5t-57.5 -220
q0 -157 97.5 -285.5t275.5 -203t401 -74.5q167 0 312 44t246 120t158.5 179.5t57.5 219.5t-57.5 220t-158.5 179.5t-246 120t-312 44.5zM856 938q259 0 422.5 -116t163.5 -290t-163.5 -289.5t-422.5 -115.5t-422.5 115.5t-163.5 289.5t163.5 290t422.5 116z" />
    <glyph glyph-name="uni00F7" unicode="&#xf7;" horiz-adv-x="1302" 
d="M651 1233q-61 0 -103 -35t-42 -86t41.5 -85t103.5 -34t104 34t42 85t-42 86t-104 35zM1180 819v-151h-1057v151h1057zM651 471q-61 0 -103 -35t-42 -86t41.5 -85t103.5 -34t104 34t42 85t-42 86t-104 35z" />
    <glyph glyph-name="oslash" unicode="&#xf8;" horiz-adv-x="1712" 
d="M82 532q0 -124 62 -231t175 -184l-196 -189h209l121 117q178 -76 403 -76q167 0 312 44t246 120t158.5 179.5t57.5 219.5q0 122 -62 229.5t-175 184.5l196 191h-209l-123 -117q-183 76 -401 76q-167 0 -312 -44.5t-246 -120t-158.5 -179.5t-57.5 -220zM270 532
q0 174 163.5 290t422.5 116q153 0 274 -41l-688 -661q-172 117 -172 296zM1270 829q172 -117 172 -297q0 -174 -163.5 -289.5t-422.5 -115.5q-153 0 -274 41z" />
    <glyph glyph-name="ugrave" unicode="&#xf9;" 
d="M571 1550l324 -348h-203l-358 348h237zM317 1065v-514q0 -219 112 -321.5t331 -102.5q78 0 146.5 12t136 43.5t115 81t77 130.5t29.5 186v485h184v-1065h-184v207q-85 -104 -222.5 -171t-326.5 -67q-117 0 -220 34t-185 99.5t-129.5 173t-47.5 244.5v545h184z" />
    <glyph glyph-name="uacute" unicode="&#xfa;" 
d="M1006 1550l-324 -348h195l358 348h-229zM317 1065v-514q0 -219 112 -321.5t331 -102.5q78 0 146.5 12t136 43.5t115 81t77 130.5t29.5 186v485h184v-1065h-184v207q-85 -104 -222.5 -171t-326.5 -67q-117 0 -220 34t-185 99.5t-129.5 173t-47.5 244.5v545h184z" />
    <glyph glyph-name="ucircumflex" unicode="&#xfb;" 
d="M319 1202l437 348h78l436 -348h-207l-240 191h-53l-240 -191h-211zM1448 0h-184v207q-85 -104 -222.5 -171t-326.5 -67q-117 0 -220 34t-185 99.5t-129.5 173t-47.5 244.5v545h184v-514q0 -219 112 -321.5t331 -102.5q78 0 146.5 12t136 43.5t115 81t77 130.5t29.5 186
v485h184v-1065z" />
    <glyph glyph-name="udieresis" unicode="&#xfc;" 
d="M530 1499q-61 0 -103 -35t-42 -86t41.5 -84.5t103.5 -33.5t104 33.5t42 84.5t-42 86t-104 35zM1042 1499q-61 0 -103 -35t-42 -86t41.5 -84.5t103.5 -33.5t104 33.5t42 84.5t-42 86t-104 35zM317 1065v-514q0 -219 112 -321.5t331 -102.5q78 0 146.5 12t136 43.5t115 81
t77 130.5t29.5 186v485h184v-1065h-184v207q-85 -104 -222.5 -171t-326.5 -67q-117 0 -220 34t-185 99.5t-129.5 173t-47.5 244.5v545h184z" />
    <glyph glyph-name="yacute" unicode="&#xfd;" horiz-adv-x="1468" 
d="M963 1550l-324 -348h195l358 348h-229zM743 256h58l483 809h184l-880 -1475h-185l265 445l-668 1030h219z" />
    <glyph glyph-name="thorn" unicode="&#xfe;" horiz-adv-x="1759" 
d="M348 1475v-578q234 199 592 199q165 0 304 -44t233.5 -120.5t147 -179.5t52.5 -220q0 -109 -54.5 -210.5t-150 -180t-237 -125.5t-305.5 -47q-354 0 -582 197v-576h-184v1885h184zM317 532q0 -174 163.5 -289.5t422.5 -115.5t422.5 115.5t163.5 289.5t-163.5 290
t-422.5 116t-422.5 -116t-163.5 -290z" />
    <glyph glyph-name="ydieresis" unicode="&#xff;" horiz-adv-x="1468" 
d="M498 1499q-62 0 -104 -35t-42 -86t42 -84.5t104 -33.5t103.5 33.5t41.5 84.5t-42 86t-103 35zM1010 1499q-62 0 -104 -35t-42 -86t42 -84.5t104 -33.5t103.5 33.5t41.5 84.5t-42 86t-103 35zM743 256h58l483 809h184l-880 -1475h-185l265 445l-668 1030h219z" />
    <glyph glyph-name="Amacron" unicode="&#x100;" horiz-adv-x="2123" 
d="M1393 1673h-656v144h656v-144zM1239 1475l928 -1475h-230l-268 428h-1143l-272 -428h-211l940 1475h256zM1118 1300h-35l-452 -708h934z" />
    <glyph glyph-name="amacron" unicode="&#x101;" horiz-adv-x="1626" 
d="M1106 1300h-655v144h655v-144zM82 293q0 -165 154.5 -244.5t431.5 -79.5q231 0 386 61.5t259 176.5v-207h180v670q0 112 -54 195.5t-153.5 133t-230 73.5t-293.5 24q-175 0 -337 -36.5t-280 -111.5v-188q104 82 264 130t347 48q282 0 422.5 -59.5t140.5 -155.5
q0 -67 -99 -85.5t-408 -31.5q-37 -2 -58.5 -3t-56.5 -2.5t-66 -2.5q-289 -13 -419 -89t-130 -216zM1313 514q0 -123 -86 -212t-224.5 -132t-310.5 -43q-413 0 -413 166q0 83 94 119.5t293 42.5q351 11 455 24q140 18 192 58v-23z" />
    <glyph glyph-name="Abreve" unicode="&#x102;" horiz-adv-x="2123" 
d="M1354 1921q0 -75 -76 -132.5t-213 -57.5t-213 57.5t-76 132.5h-153q0 -60 29 -115.5t82.5 -101t139.5 -73t191 -27.5t191 27.5t139.5 73t82.5 101t29 115.5h-153zM1239 1475l928 -1475h-230l-268 428h-1143l-272 -428h-211l940 1475h256zM1118 1300h-35l-452 -708h934z
" />
    <glyph glyph-name="abreve" unicode="&#x103;" horiz-adv-x="1626" 
d="M1106 1546q0 -89 -76.5 -154t-214.5 -65t-214.5 65t-76.5 154h-162q0 -67 29.5 -129t85 -111.5t143 -79.5t195.5 -30t195.5 30t143 79.5t85 111.5t29.5 129h-162zM82 293q0 -165 154.5 -244.5t431.5 -79.5q231 0 386 61.5t259 176.5v-207h180v670q0 112 -54 195.5
t-153.5 133t-230 73.5t-293.5 24q-175 0 -337 -36.5t-280 -111.5v-188q104 82 264 130t347 48q282 0 422.5 -59.5t140.5 -155.5q0 -67 -99 -85.5t-408 -31.5q-37 -2 -58.5 -3t-56.5 -2.5t-66 -2.5q-289 -13 -419 -89t-130 -216zM1313 514q0 -123 -86 -212t-224.5 -132
t-310.5 -43q-413 0 -413 166q0 83 94 119.5t293 42.5q351 11 455 24q140 18 192 58v-23z" />
    <glyph glyph-name="Aogonek" unicode="&#x104;" horiz-adv-x="2123" 
d="M1196 1475l928 -1475q-51 -8 -103 -30t-92.5 -60t-40.5 -80q0 -47 32 -70.5t85 -23.5q78 0 129 28v-120q-53 -29 -135 -29q-116 0 -182 58t-66 141q0 66 45.5 114t97.5 72l-268 428h-1143l-272 -428h-211l940 1475h256zM1075 1300h-35l-452 -708h934z" />
    <glyph glyph-name="aogonek" unicode="&#x105;" horiz-adv-x="1626" 
d="M82 293q0 -165 154.5 -244.5t431.5 -79.5q435 0 645 226v-195q-59 -23 -101.5 -71.5t-42.5 -114.5q0 -90 66 -144.5t186 -54.5q82 0 135 29v133q-53 -29 -129 -29q-50 0 -77 22.5t-27 65.5q0 51 49 97t121 67v670q0 112 -54 195.5t-153.5 133t-230 73.5t-293.5 24
q-175 0 -337 -36.5t-280 -111.5v-188q104 82 264 130t347 48q282 0 422.5 -59.5t140.5 -155.5q0 -67 -99 -85.5t-408 -31.5q-37 -2 -58.5 -3t-56.5 -2.5t-66 -2.5q-289 -13 -419 -89t-130 -216zM279 293q0 83 94 119.5t293 42.5q351 11 455 24q140 18 192 58v-23
q0 -123 -86 -212t-224.5 -132t-310.5 -43q-413 0 -413 166z" />
    <glyph glyph-name="Cacute" unicode="&#x106;" horiz-adv-x="1970" 
d="M1389 1905l-273 -287h176l305 287h-208zM1868 338q-116 -97 -287.5 -149t-376.5 -52q-214 0 -388 48t-286 130.5t-172.5 191t-60.5 230.5q0 98 37.5 187t113.5 164t183 130t254 86t319 31q207 0 372 -53.5t273 -142.5v209q-243 155 -645 155q-203 0 -380 -40t-308 -111
t-225 -167t-141.5 -210t-47.5 -238q0 -166 75.5 -307.5t214.5 -244t348 -160.5t464 -58q428 0 664 160v211z" />
    <glyph glyph-name="cacute" unicode="&#x107;" horiz-adv-x="1449" 
d="M1077 1550l-323 -348h194l359 348h-230zM1368 248q-163 -121 -457 -121q-290 0 -465.5 112.5t-175.5 292.5t176 293t465 113q283 0 447 -121v182q-186 97 -447 97q-181 0 -336.5 -43.5t-263 -118.5t-168.5 -179t-61 -223q0 -169 103.5 -297t291.5 -197t434 -69
q279 0 457 94v185z" />
    <glyph glyph-name="Ccircumflex" unicode="&#x108;" horiz-adv-x="1970" 
d="M715 1587l391 318h92l391 -318h-217l-196 160h-50l-196 -160h-215zM1204 137q205 0 376.5 52t287.5 149v-211q-236 -160 -664 -160q-255 0 -464 58t-348 160.5t-214.5 244t-75.5 307.5q0 124 47.5 238t141.5 210t225 167t308 111t380 40q402 0 645 -155v-209
q-108 89 -273 142.5t-372 53.5q-172 0 -319 -31t-254 -86t-183 -130t-113.5 -164t-37.5 -187q0 -122 60.5 -230.5t172.5 -191t286 -130.5t388 -48z" />
    <glyph glyph-name="ccircumflex" unicode="&#x109;" horiz-adv-x="1449" 
d="M375 1202l436 348h78l436 -348h-207l-239 191h-54l-239 -191h-211zM911 127q294 0 457 121v-185q-178 -94 -457 -94q-246 0 -434 69t-291.5 197t-103.5 297q0 119 61 223t168.5 179t263 118.5t336.5 43.5q261 0 447 -97v-182q-164 121 -447 121q-289 0 -465 -113
t-176 -293t175.5 -292.5t465.5 -112.5z" />
    <glyph glyph-name="Cdotaccent" unicode="&#x10a;" horiz-adv-x="1970" 
d="M1171 1866q-67 0 -110 -34.5t-43 -86.5q0 -51 43 -85t110 -34t110.5 34t43.5 85t-43.5 86t-110.5 35zM1868 338q-116 -97 -287.5 -149t-376.5 -52q-214 0 -388 48t-286 130.5t-172.5 191t-60.5 230.5q0 98 37.5 187t113.5 164t183 130t254 86t319 31q207 0 372 -53.5
t273 -142.5v209q-243 155 -645 155q-203 0 -380 -40t-308 -111t-225 -167t-141.5 -210t-47.5 -238q0 -166 75.5 -307.5t214.5 -244t348 -160.5t464 -58q428 0 664 160v211z" />
    <glyph glyph-name="cdotaccent" unicode="&#x10b;" horiz-adv-x="1449" 
d="M881 1499q-67 0 -110.5 -35t-43.5 -86t43.5 -84.5t110.5 -33.5t110 33.5t43 84.5q0 52 -43 86.5t-110 34.5zM1368 248q-163 -121 -457 -121q-290 0 -465.5 112.5t-175.5 292.5t176 293t465 113q283 0 447 -121v182q-186 97 -447 97q-181 0 -336.5 -43.5t-263 -118.5
t-168.5 -179t-61 -223q0 -169 103.5 -297t291.5 -197t434 -69q279 0 457 94v185z" />
    <glyph glyph-name="Ccaron" unicode="&#x10c;" horiz-adv-x="1970" 
d="M920 1905l196 -160h49l197 160h215l-391 -318h-101l-391 318h226zM1204 137q205 0 376.5 52t287.5 149v-211q-236 -160 -664 -160q-255 0 -464 58t-348 160.5t-214.5 244t-75.5 307.5q0 124 47.5 238t141.5 210t225 167t308 111t380 40q402 0 645 -155v-209
q-108 89 -273 142.5t-372 53.5q-172 0 -319 -31t-254 -86t-183 -130t-113.5 -164t-37.5 -187q0 -122 60.5 -230.5t172.5 -191t286 -130.5t388 -48z" />
    <glyph glyph-name="ccaron" unicode="&#x10d;" horiz-adv-x="1449" 
d="M616 1550l240 -190h53l240 190h203l-437 -348h-75l-437 348h213zM911 127q294 0 457 121v-185q-178 -94 -457 -94q-246 0 -434 69t-291.5 197t-103.5 297q0 119 61 223t168.5 179t263 118.5t336.5 43.5q261 0 447 -97v-182q-164 121 -447 121q-289 0 -465 -113t-176 -293
t175.5 -292.5t465.5 -112.5z" />
    <glyph glyph-name="Dcaron" unicode="&#x10e;" horiz-adv-x="2127" 
d="M709 1905l196 -160h49l197 160h215l-391 -318h-101l-391 318h226zM842 1475q195 0 357.5 -19.5t283.5 -54.5t214 -87t154.5 -113.5t101 -137.5t56 -155.5t16.5 -170.5q0 -737 -1183 -737h-617v1475h617zM834 164q502 0 746.5 142t244.5 431t-245.5 431.5t-745.5 142.5
h-414v-1147h414z" />
    <glyph glyph-name="dcaron" unicode="&#x10f;" horiz-adv-x="1759" 
d="M1411 0v188q-241 -219 -592 -219q-165 0 -304 44t-233.5 120t-147 179t-52.5 220q0 109 54.5 211t150 180.5t237 125.5t305.5 47q347 0 582 -217v596h184v-1475h-184zM1683 1069l240 406h203l-287 -406h-156zM1442 532q0 174 -163.5 290t-422.5 116t-422.5 -116
t-163.5 -290t163.5 -289.5t422.5 -115.5t422.5 115.5t163.5 289.5z" />
    <glyph glyph-name="Dcroat" unicode="&#x110;" horiz-adv-x="2158" 
d="M256 836v639h616q271 0 478.5 -38t339.5 -102.5t215.5 -160t117 -201.5t33.5 -236q0 -737 -1184 -737h-616v678h-205v158h205zM864 164q502 0 746.5 142t244.5 431t-245.5 431.5t-745.5 142.5h-413v-475h522v-158h-522v-514h413z" />
    <glyph glyph-name="dcroat" unicode="&#x111;" horiz-adv-x="1769" 
d="M82 532q0 109 54.5 211t150 180.5t237 125.5t305.5 47q347 0 582 -217v329h-379v144h379v123h184v-123h154v-144h-154v-1208h-184v188q-241 -219 -592 -219q-165 0 -304 44t-233.5 120t-147 179t-52.5 220zM270 532q0 -174 163.5 -289.5t422.5 -115.5t422.5 115.5
t163.5 289.5t-163.5 290t-422.5 116t-422.5 -116t-163.5 -290z" />
    <glyph glyph-name="Emacron" unicode="&#x112;" horiz-adv-x="1914" 
d="M1321 1673h-655v144h655v-144zM1772 1475v-164h-1352v-449h1167v-164h-1167v-534h1352v-164h-1547v1475h1547z" />
    <glyph glyph-name="emacron" unicode="&#x113;" horiz-adv-x="1679" 
d="M1176 1300h-656v144h656v-144zM82 532q0 -280 220.5 -421.5t653.5 -141.5q154 0 304.5 31.5t259.5 87.5v170q-107 -64 -255 -99.5t-309 -35.5q-334 0 -508 95t-180 300h1329v25q0 114 -54.5 215t-152 176t-240 118.5t-310.5 43.5q-167 0 -310 -44.5t-240.5 -120.5
t-152.5 -179.5t-55 -219.5zM289 651q49 134 195 217.5t356 83.5q218 0 363 -84t190 -217h-1104z" />
    <glyph glyph-name="Ebreve" unicode="&#x114;" horiz-adv-x="1914" 
d="M1282 1921q0 -75 -76 -132.5t-213 -57.5t-212.5 57.5t-75.5 132.5h-154q0 -60 29 -115.5t82.5 -101t139.5 -73t191 -27.5t191 27.5t140 73t83 101t29 115.5h-154zM1772 1475v-164h-1352v-449h1167v-164h-1167v-534h1352v-164h-1547v1475h1547z" />
    <glyph glyph-name="ebreve" unicode="&#x115;" horiz-adv-x="1679" 
d="M1151 1546q0 -89 -76.5 -154t-214.5 -65t-214.5 65t-76.5 154h-161q0 -67 29.5 -129t84.5 -112t142.5 -79.5t195.5 -29.5t195.5 30t143 79.5t85 111.5t29.5 129h-162zM82 532q0 -280 220.5 -421.5t653.5 -141.5q154 0 304.5 31.5t259.5 87.5v170q-107 -64 -255 -99.5
t-309 -35.5q-334 0 -508 95t-180 300h1329v25q0 114 -54.5 215t-152 176t-240 118.5t-310.5 43.5q-167 0 -310 -44.5t-240.5 -120.5t-152.5 -179.5t-55 -219.5zM289 651q49 134 195 217.5t356 83.5q218 0 363 -84t190 -217h-1104z" />
    <glyph glyph-name="Edotaccent" unicode="&#x116;" horiz-adv-x="1914" 
d="M1016 1866q-67 0 -110.5 -35t-43.5 -86t43.5 -85t110.5 -34t110 34t43 85q0 52 -43 86.5t-110 34.5zM1772 1475v-164h-1352v-449h1167v-164h-1167v-534h1352v-164h-1547v1475h1547z" />
    <glyph glyph-name="edotaccent" unicode="&#x117;" horiz-adv-x="1679" 
d="M854 1499q-67 0 -110.5 -35t-43.5 -86t43.5 -84.5t110.5 -33.5t110.5 33.5t43.5 84.5t-43.5 86t-110.5 35zM82 532q0 -280 220.5 -421.5t653.5 -141.5q154 0 304.5 31.5t259.5 87.5v170q-107 -64 -255 -99.5t-309 -35.5q-334 0 -508 95t-180 300h1329v25q0 114 -54.5 215
t-152 176t-240 118.5t-310.5 43.5q-167 0 -310 -44.5t-240.5 -120.5t-152.5 -179.5t-55 -219.5zM289 651q49 134 195 217.5t356 83.5q218 0 363 -84t190 -217h-1104z" />
    <glyph glyph-name="Eogonek" unicode="&#x118;" horiz-adv-x="1914" 
d="M1772 1475v-164h-1352v-449h1167v-164h-1167v-534h1352v-164q-65 -23 -120 -69.5t-55 -94.5q0 -42 27.5 -65t77.5 -23q76 0 129 29v-133q-53 -29 -135 -29q-118 0 -185 58t-67 141q0 64 47.5 115t95.5 71h-1362v1475h1547z" />
    <glyph glyph-name="eogonek" unicode="&#x119;" horiz-adv-x="1679" 
d="M82 532q0 -280 220.5 -421.5t653.5 -141.5q82 0 179 17q-47 -27 -81 -75t-34 -116q0 -87 64 -133.5t188 -46.5q82 0 135 29v133q-53 -29 -129 -29q-50 0 -78.5 23t-28.5 65q0 31 18.5 60t41 49t73 46.5t81.5 40t99 41.5l36 15v170q-107 -64 -255 -99.5t-309 -35.5
q-334 0 -508 95t-180 300h1329v25q0 114 -54.5 215t-152 176t-240 118.5t-310.5 43.5q-167 0 -310 -44.5t-240.5 -120.5t-152.5 -179.5t-55 -219.5zM289 651q49 134 195 217.5t356 83.5q218 0 363 -84t190 -217h-1104z" />
    <glyph glyph-name="Ecaron" unicode="&#x11a;" horiz-adv-x="1914" 
d="M743 1905l197 -160h49l197 160h215l-391 -318h-101l-391 318h225zM420 862h1167v-164h-1167v-534h1352v-164h-1547v1475h1547v-164h-1352v-449z" />
    <glyph glyph-name="ecaron" unicode="&#x11b;" horiz-adv-x="1679" 
d="M606 1550l240 -190h53l240 190h202l-436 -348h-76l-436 348h213zM268 518q6 -205 180 -300t508 -95q161 0 309 35.5t255 99.5v-170q-109 -56 -259.5 -87.5t-304.5 -31.5q-433 0 -653.5 141.5t-220.5 421.5q0 116 55 219.5t152.5 179.5t240.5 120.5t310 44.5
q168 0 310.5 -43.5t240 -118.5t152 -176t54.5 -215v-25h-1329zM1393 651q-45 133 -190 217t-363 84q-210 0 -356 -83.5t-195 -217.5h1104z" />
    <glyph glyph-name="Gcircumflex" unicode="&#x11c;" horiz-adv-x="2203" 
d="M821 1587l391 318h93l391 -318h-217l-197 160h-49l-197 -160h-215zM2050 123q-266 -154 -760 -154q-246 0 -464.5 57t-378 156.5t-252.5 244t-93 310.5q0 163 95 307t256 244.5t379 158.5t458 58q215 0 416 -41t326 -112v-209q-103 83 -300 138.5t-442 55.5
q-268 0 -495 -76.5t-362.5 -215t-135.5 -308.5t135.5 -308t362.5 -214t495 -76q360 0 576 88v404h-1057v164h1241v-672z" />
    <glyph glyph-name="gcircumflex" unicode="&#x11d;" horiz-adv-x="1759" 
d="M403 1202l437 348h78l436 -348h-207l-240 191h-53l-240 -191h-211zM1595 131q0 -179 -99 -306.5t-273 -191t-406 -63.5q-186 0 -349 41.5t-261 105.5v187q245 -176 622 -176q272 0 427 97.5t155 276.5v84q-231 -217 -582 -217q-164 0 -305.5 47t-237 125.5t-150 180
t-54.5 210.5q0 117 52.5 220t147 179.5t233.5 120.5t304 44q363 0 592 -215v184h184v-934zM856 127q259 0 422.5 115.5t163.5 289.5t-163.5 290t-422.5 116t-422.5 -116t-163.5 -290t163.5 -289.5t422.5 -115.5z" />
    <glyph glyph-name="Gbreve" unicode="&#x11e;" horiz-adv-x="2203" 
d="M1577 1921q0 -75 -76 -132.5t-213 -57.5t-213 57.5t-76 132.5h-153q0 -60 29 -115.5t82.5 -101t139.5 -73t191 -27.5t191 27.5t140 73t83 101t29 115.5h-154zM102 737q0 163 95 307t256 244.5t379 158.5t458 58q215 0 416 -41t326 -112v-209q-103 83 -300 138.5
t-442 55.5q-268 0 -495 -76.5t-362.5 -215t-135.5 -308.5t135.5 -308t362.5 -214t495 -76q360 0 576 88v404h-1057v164h1241v-672q-266 -154 -760 -154q-246 0 -464.5 57t-378 156.5t-252.5 244t-93 310.5z" />
    <glyph glyph-name="gbreve" unicode="&#x11f;" horiz-adv-x="1759" 
d="M1155 1546q0 -89 -76.5 -154t-214.5 -65t-214.5 65t-76.5 154h-161q0 -67 29.5 -129t84.5 -112t142.5 -79.5t195.5 -29.5t195.5 30t143 79.5t85 111.5t29.5 129h-162zM82 532q0 -109 54.5 -210.5t150 -180t237 -125.5t305.5 -47q351 0 582 217v-84q0 -179 -155 -276.5
t-427 -97.5q-377 0 -622 176v-187q98 -64 261 -105.5t349 -41.5q232 0 406 63.5t273 191t99 306.5v934h-184v-184q-229 215 -592 215q-165 0 -304 -44t-233.5 -120.5t-147 -179.5t-52.5 -220zM270 532q0 174 163.5 290t422.5 116t422.5 -116t163.5 -290t-163.5 -289.5
t-422.5 -115.5t-422.5 115.5t-163.5 289.5z" />
    <glyph glyph-name="Gdotaccent" unicode="&#x120;" horiz-adv-x="2203" 
d="M1270 1866q-67 0 -110.5 -35t-43.5 -86t43.5 -85t110.5 -34t110 34t43 85q0 52 -43 86.5t-110 34.5zM102 737q0 163 95 307t256 244.5t379 158.5t458 58q215 0 416 -41t326 -112v-209q-103 83 -300 138.5t-442 55.5q-268 0 -495 -76.5t-362.5 -215t-135.5 -308.5
t135.5 -308t362.5 -214t495 -76q360 0 576 88v404h-1057v164h1241v-672q-266 -154 -760 -154q-246 0 -464.5 57t-378 156.5t-252.5 244t-93 310.5z" />
    <glyph glyph-name="gdotaccent" unicode="&#x121;" horiz-adv-x="1759" 
d="M874 1499q-67 0 -110 -34.5t-43 -86.5q0 -51 43 -84.5t110 -33.5t110.5 33.5t43.5 84.5t-43.5 86t-110.5 35zM82 532q0 -109 54.5 -210.5t150 -180t237 -125.5t305.5 -47q351 0 582 217v-84q0 -179 -155 -276.5t-427 -97.5q-377 0 -622 176v-187q98 -64 261 -105.5
t349 -41.5q232 0 406 63.5t273 191t99 306.5v934h-184v-184q-229 215 -592 215q-165 0 -304 -44t-233.5 -120.5t-147 -179.5t-52.5 -220zM270 532q0 174 163.5 290t422.5 116t422.5 -116t163.5 -290t-163.5 -289.5t-422.5 -115.5t-422.5 115.5t-163.5 289.5z" />
    <glyph glyph-name="uni0122" unicode="&#x122;" horiz-adv-x="2203" 
d="M102 737q0 163 95 307t256 244.5t379 158.5t458 58q215 0 416 -41t326 -112v-209q-103 83 -300 138.5t-442 55.5q-268 0 -495 -76.5t-362.5 -215t-135.5 -308.5t135.5 -308t362.5 -214t495 -76q360 0 576 88v404h-1057v164h1241v-672q-266 -154 -760 -154
q-246 0 -464.5 57t-378 156.5t-252.5 244t-93 310.5zM942 -522l240 405h202l-286 -405h-156z" />
    <glyph glyph-name="uni0123" unicode="&#x123;" horiz-adv-x="1759" 
d="M1194 1608l-240 -406h-202l286 406h156zM82 532q0 -109 54.5 -210.5t150 -180t237 -125.5t305.5 -47q351 0 582 217v-84q0 -179 -155 -276.5t-427 -97.5q-377 0 -622 176v-187q98 -64 261 -105.5t349 -41.5q232 0 406 63.5t273 191t99 306.5v934h-184v-184
q-229 215 -592 215q-165 0 -304 -44t-233.5 -120.5t-147 -179.5t-52.5 -220zM270 532q0 174 163.5 290t422.5 116t422.5 -116t163.5 -290t-163.5 -289.5t-422.5 -115.5t-422.5 115.5t-163.5 289.5z" />
    <glyph glyph-name="Hcircumflex" unicode="&#x124;" horiz-adv-x="2140" 
d="M655 1587l392 318h92l391 -318h-217l-197 160h-49l-197 -160h-215zM1915 0h-195v698h-1300v-698h-195v1475h195v-613h1300v613h195v-1475z" />
    <glyph glyph-name="hcircumflex" unicode="&#x125;" 
d="M350 1587l391 318h93l391 -318h-217l-197 160h-49l-197 -160h-215zM897 1096q126 0 229 -30.5t183.5 -94.5t125 -172.5t44.5 -253.5v-545h-185v514q0 220 -111.5 322t-330.5 102q-78 0 -146.5 -12t-136 -43.5t-115 -81t-77 -130.5t-29.5 -186v-485h-184v1475h184v-617
q85 104 222.5 171t326.5 67z" />
    <glyph glyph-name="Hbar" unicode="&#x126;" horiz-adv-x="2263" 
d="M287 1266v209h194v-209h1301v209h194v-209h246v-154h-246v-1112h-194v698h-1301v-698h-194v1112h-246v154h246zM1782 1112h-1301v-250h1301v250z" />
    <glyph glyph-name="hbar" unicode="&#x127;" 
d="M164 1352v123h184v-123h379v-144h-379v-350q85 104 222.5 171t326.5 67q126 0 229 -30.5t183.5 -94.5t125 -172.5t44.5 -253.5v-545h-185v514q0 220 -111.5 322t-330.5 102q-78 0 -146.5 -12t-136 -43.5t-115 -81t-77 -130.5t-29.5 -186v-485h-184v1208h-144v144h144z
" />
    <glyph glyph-name="Itilde" unicode="&#x128;" horiz-adv-x="645" 
d="M23 1645q0 49 31.5 89t80.5 40q35 0 66.5 -16t59.5 -38.5t59.5 -45t79 -38.5t104.5 -16q120 0 195 70.5t75 185.5h-153q0 -49 -32 -89t-81 -40q-35 0 -66.5 16t-59.5 38.5t-59.5 45t-79 38.5t-104.5 16q-120 0 -195 -70.5t-75 -185.5h154zM420 0h-195v1475h195v-1475z
" />
    <glyph glyph-name="itilde" unicode="&#x129;" horiz-adv-x="512" 
d="M-43 1278q0 49 32 89t81 40q35 0 66.5 -16t59 -38.5t59 -45t79 -38.5t104.5 -16q121 0 196 70.5t75 185.5h-154q0 -49 -32 -89t-81 -40q-35 0 -66.5 16t-59 38.5t-59 45t-79 38.5t-104.5 16q-121 0 -196 -70.5t-75 -185.5h154zM164 0v1065h184v-1065h-184z" />
    <glyph glyph-name="Imacron" unicode="&#x12a;" horiz-adv-x="645" 
d="M651 1673h-655v144h655v-144zM420 0h-195v1475h195v-1475z" />
    <glyph glyph-name="imacron" unicode="&#x12b;" horiz-adv-x="512" 
d="M584 1300h-656v144h656v-144zM164 0v1065h184v-1065h-184z" />
    <glyph glyph-name="Ibreve" unicode="&#x12c;" horiz-adv-x="645" 
d="M610 1921q0 -75 -75.5 -132.5t-212.5 -57.5t-213 57.5t-76 132.5h-154q0 -60 29 -115.5t83 -101t140 -73t191 -27.5t191 27.5t139.5 73t82.5 101t29 115.5h-154zM420 0h-195v1475h195v-1475z" />
    <glyph glyph-name="ibreve" unicode="&#x12d;" horiz-adv-x="512" 
d="M547 1546q0 -89 -76.5 -154t-214.5 -65t-214.5 65t-76.5 154h-162q0 -67 29.5 -129t85 -111.5t143 -79.5t195.5 -30t195.5 30t143 79.5t85 111.5t29.5 129h-162zM164 0v1065h184v-1065h-184z" />
    <glyph glyph-name="Iogonek" unicode="&#x12e;" horiz-adv-x="645" 
d="M88 -186q0 67 44 117t93 69v1475h195v-1475q-82 -22 -138.5 -65t-56.5 -105q0 -47 32 -70.5t85 -23.5q78 0 129 28v-120q-53 -29 -135 -29q-116 0 -182 58t-66 141z" />
    <glyph glyph-name="iogonek" unicode="&#x12f;" horiz-adv-x="512" 
d="M256 1499q-67 0 -110.5 -35t-43.5 -86t43.5 -84.5t110.5 -33.5t110.5 33.5t43.5 84.5t-43.5 86t-110.5 35zM20 -203q0 40 13 73.5t37 58t44.5 39.5t49.5 32v1065h184v-1065q-76 -26 -125 -70t-49 -94q0 -42 27.5 -65t77.5 -23q76 0 129 29v-133q-53 -29 -136 -29
q-128 0 -190 53.5t-62 128.5z" />
    <glyph glyph-name="Idotaccent" unicode="&#x130;" horiz-adv-x="645" 
d="M322 1866q-67 0 -110.5 -35t-43.5 -86t43.5 -85t110.5 -34t110 34t43 85q0 52 -43 86.5t-110 34.5zM420 0h-195v1475h195v-1475z" />
    <glyph glyph-name="dotlessi" unicode="&#x131;" horiz-adv-x="512" 
d="M164 0v1065h184v-1065h-184z" />
    <glyph glyph-name="IJ" unicode="&#x132;" horiz-adv-x="2101" 
d="M420 0h-195v1475h195v-1475zM696 127q75 -66 219.5 -112t309.5 -46q107 0 203 18.5t191 66.5t164 122t111.5 193t42.5 272v834h-194v-795q0 -134 -31.5 -235t-81 -160t-121.5 -95.5t-141.5 -48.5t-153.5 -12q-157 0 -298 61.5t-220 145.5v-209z" />
    <glyph glyph-name="ij" unicode="&#x133;" horiz-adv-x="1024" 
d="M256 1499q-67 0 -110.5 -35t-43.5 -86t43.5 -84.5t110.5 -33.5t110.5 33.5t43.5 84.5t-43.5 86t-110.5 35zM768 1499q-67 0 -110.5 -35t-43.5 -86t43.5 -84.5t110.5 -33.5t110.5 33.5t43.5 84.5t-43.5 86t-110.5 35zM164 0v1065h184v-1065h-184zM860 -8
q0 -195 -115.5 -308.5t-312.5 -113.5q-156 0 -256 72v174q110 -88 234 -88q266 0 266 264v1073h184v-1073z" />
    <glyph glyph-name="Jcircumflex" unicode="&#x134;" horiz-adv-x="1456" 
d="M1421 1587l-196 160h-49l-197 -160h-215l391 318h92l391 -318h-217zM1292 1475v-834q0 -153 -42.5 -272t-111.5 -193t-164 -122t-191 -66.5t-203 -18.5q-165 0 -309.5 46t-219.5 112v209q79 -84 220 -145.5t298 -61.5q84 0 153.5 12t141.5 48.5t121.5 95.5t81 160
t31.5 235v795h194z" />
    <glyph glyph-name="jcircumflex" unicode="&#x135;" horiz-adv-x="512" 
d="M532 1202l-239 191h-53l-240 -191h-211l436 348h78l436 -348h-207zM348 1065v-1073q0 -195 -115.5 -308.5t-312.5 -113.5q-156 0 -256 72v174q110 -88 234 -88q266 0 266 264v1073h184z" />
    <glyph glyph-name="uni0136" unicode="&#x136;" horiz-adv-x="1992" 
d="M420 1475v-607h41l1411 637v-170l-1249 -561v-33l1370 -741h-365l-1169 633h-39v-633h-195v1475h195zM627 -522l239 405h203l-287 -405h-155z" />
    <glyph glyph-name="uni0137" unicode="&#x137;" horiz-adv-x="1495" 
d="M348 1475v-820h45l959 441v-158l-801 -369v-39l944 -530h-324l-776 436h-47v-436h-184v1475h184zM471 -522l240 405h202l-286 -405h-156z" />
    <glyph glyph-name="Lacute" unicode="&#x139;" horiz-adv-x="1658" 
d="M539 1905l-273 -287h176l306 287h-209zM420 1475v-1311h1198v-164h-1393v1475h195z" />
    <glyph glyph-name="lacute" unicode="&#x13a;" horiz-adv-x="512" 
d="M449 1905l-273 -287h176l305 287h-208zM164 0v1475h184v-1475h-184z" />
    <glyph glyph-name="uni013B" unicode="&#x13b;" horiz-adv-x="1658" 
d="M420 1475v-1311h1198v-164h-1393v1475h195zM653 -522l240 405h203l-287 -405h-156z" />
    <glyph glyph-name="uni013C" unicode="&#x13c;" horiz-adv-x="512" 
d="M164 0v1475h184v-1475h-184zM-111 -522l240 405h203l-287 -405h-156z" />
    <glyph glyph-name="Lcaron" unicode="&#x13d;" horiz-adv-x="1658" 
d="M420 1475v-1311h1198v-164h-1393v1475h195zM1049 1065l239 405h203l-287 -405h-155z" />
    <glyph glyph-name="lcaron" unicode="&#x13e;" horiz-adv-x="512" 
d="M164 0v1475h184v-1475h-184zM436 1069l240 406h203l-287 -406h-156z" />
    <glyph glyph-name="Ldot" unicode="&#x13f;" horiz-adv-x="1658" 
d="M420 1475v-1311h1198v-164h-1393v1475h195zM1153 969q-61 0 -103 -35t-42 -86t41.5 -85t103.5 -34t103.5 34t41.5 85t-42 86t-103 35z" />
    <glyph glyph-name="ldot" unicode="&#x140;" horiz-adv-x="802" 
d="M164 0v1475h184v-1475h-184zM657 694q-61 0 -103 -35t-42 -86t41.5 -84.5t103.5 -33.5t104 33.5t42 84.5t-42 86t-104 35z" />
    <glyph glyph-name="Lslash" unicode="&#x141;" horiz-adv-x="1740" 
d="M307 723v752h195v-658l514 248v-166l-514 -248v-487h1198v-164h-1393v557l-287 -137v166z" />
    <glyph glyph-name="lslash" unicode="&#x142;" horiz-adv-x="634" 
d="M225 750v725h185v-594l204 145v-172l-204 -145v-709h-185v578l-205 -146v172z" />
    <glyph glyph-name="Nacute" unicode="&#x143;" horiz-adv-x="2160" 
d="M1288 1905l-272 -287h176l305 287h-209zM553 1475l1141 -1291h47v1291h194v-1475h-315l-1153 1288h-47v-1288h-195v1475h328z" />
    <glyph glyph-name="nacute" unicode="&#x144;" 
d="M1059 1550l-324 -348h195l358 348h-229zM348 1065v-207q85 104 222.5 171t326.5 67q126 0 229 -30.5t183.5 -94.5t125 -172.5t44.5 -253.5v-545h-185v514q0 220 -111.5 322t-330.5 102q-78 0 -146.5 -12t-136 -43.5t-115 -81t-77 -130.5t-29.5 -186v-485h-184v1065h184z
" />
    <glyph glyph-name="uni0145" unicode="&#x145;" horiz-adv-x="2160" 
d="M553 1475l1141 -1291h47v1291h194v-1475h-315l-1153 1288h-47v-1288h-195v1475h328zM731 -522l240 405h203l-287 -405h-156z" />
    <glyph glyph-name="uni0146" unicode="&#x146;" 
d="M348 1065v-207q85 104 222.5 171t326.5 67q126 0 229 -30.5t183.5 -94.5t125 -172.5t44.5 -253.5v-545h-185v514q0 220 -111.5 322t-330.5 102q-78 0 -146.5 -12t-136 -43.5t-115 -81t-77 -130.5t-29.5 -186v-485h-184v1065h184zM549 -522l239 405h203l-286 -405h-156z
" />
    <glyph glyph-name="Ncaron" unicode="&#x147;" horiz-adv-x="2160" 
d="M920 1905l196 -160h49l197 160h215l-391 -318h-101l-391 318h226zM1935 0h-315l-1153 1288h-47v-1288h-195v1475h328l1141 -1291h47v1291h194v-1475z" />
    <glyph glyph-name="ncaron" unicode="&#x148;" 
d="M582 1550l239 -190h53l240 190h203l-436 -348h-76l-436 348h213zM897 1096q126 0 229 -30.5t183.5 -94.5t125 -172.5t44.5 -253.5v-545h-185v514q0 220 -111.5 322t-330.5 102q-78 0 -146.5 -12t-136 -43.5t-115 -81t-77 -130.5t-29.5 -186v-485h-184v1065h184v-207
q85 104 222.5 171t326.5 67z" />
    <glyph glyph-name="napostrophe" unicode="&#x149;" 
d="M-59 1065l239 405h203l-287 -405h-155zM348 1065v-207q85 104 222.5 171t326.5 67q126 0 229 -30.5t183.5 -94.5t125 -172.5t44.5 -253.5v-545h-185v514q0 220 -111.5 322t-330.5 102q-78 0 -146.5 -12t-136 -43.5t-115 -81t-77 -130.5t-29.5 -186v-485h-184v1065h184z
" />
    <glyph glyph-name="Eng" unicode="&#x14a;" horiz-adv-x="2041" 
d="M551 1475l1071 -1205v1205h195v-1483q0 -194 -120.5 -308t-318.5 -114q-156 0 -256 72v174q110 -88 234 -88q266 0 266 264v8l-1169 1300h-33v-1300h-195v1475h326z" />
    <glyph glyph-name="eng" unicode="&#x14b;" 
d="M348 1065v-172q207 203 549 203q126 0 229 -30.5t183.5 -94.5t125 -172.5t44.5 -253.5v-553q0 -195 -115.5 -308.5t-312.5 -113.5q-156 0 -256 72v174q110 -88 233 -88q266 0 266 264v522q0 220 -111.5 322t-330.5 102q-78 0 -146.5 -12t-136 -43.5t-115 -81t-77 -130.5
t-29.5 -186v-485h-184v1065h184z" />
    <glyph glyph-name="Omacron" unicode="&#x14c;" horiz-adv-x="2244" 
d="M1446 1673h-655v144h655v-144zM1122 1505q-223 0 -414.5 -60t-323.5 -163t-207 -244t-75 -301q0 -133 47.5 -252t137.5 -212.5t214 -162t283 -105t338 -36.5t338 36.5t283 105t214 162t137.5 212.5t47.5 252q0 160 -75 301t-207 244t-323.5 163t-414.5 60zM1122 1337
q180 0 336 -48t262.5 -129t167 -191t60.5 -232q0 -121 -60.5 -231t-167 -191.5t-262.5 -129.5t-336 -48t-335.5 48t-262 129.5t-167 191.5t-60.5 231q0 122 60.5 232t167 191t262 129t335.5 48z" />
    <glyph glyph-name="omacron" unicode="&#x14d;" horiz-adv-x="1712" 
d="M1176 1300h-656v144h656v-144zM856 1096q-167 0 -312 -44.5t-246 -120t-158.5 -179.5t-57.5 -220q0 -157 97.5 -285.5t275.5 -203t401 -74.5q167 0 312 44t246 120t158.5 179.5t57.5 219.5t-57.5 220t-158.5 179.5t-246 120t-312 44.5zM856 938q259 0 422.5 -116
t163.5 -290t-163.5 -289.5t-422.5 -115.5t-422.5 115.5t-163.5 289.5t163.5 290t422.5 116z" />
    <glyph glyph-name="Obreve" unicode="&#x14e;" horiz-adv-x="2244" 
d="M1411 1921q0 -75 -76 -132.5t-213 -57.5t-212.5 57.5t-75.5 132.5h-154q0 -60 29 -115.5t82.5 -101t139.5 -73t191 -27.5t191 27.5t140 73t83 101t29 115.5h-154zM1122 1505q-223 0 -414.5 -60t-323.5 -163t-207 -244t-75 -301q0 -133 47.5 -252t137.5 -212.5t214 -162
t283 -105t338 -36.5t338 36.5t283 105t214 162t137.5 212.5t47.5 252q0 160 -75 301t-207 244t-323.5 163t-414.5 60zM1122 1337q180 0 336 -48t262.5 -129t167 -191t60.5 -232q0 -121 -60.5 -231t-167 -191.5t-262.5 -129.5t-336 -48t-335.5 48t-262 129.5t-167 191.5
t-60.5 231q0 122 60.5 232t167 191t262 129t335.5 48z" />
    <glyph glyph-name="obreve" unicode="&#x14f;" horiz-adv-x="1712" 
d="M1139 1546q0 -89 -76.5 -154t-214.5 -65t-214.5 65t-76.5 154h-162q0 -67 29.5 -129t85 -111.5t143 -79.5t195.5 -30t195.5 29.5t142.5 79.5t84.5 112t29.5 129h-161zM856 1096q-167 0 -312 -44.5t-246 -120t-158.5 -179.5t-57.5 -220q0 -157 97.5 -285.5t275.5 -203
t401 -74.5q167 0 312 44t246 120t158.5 179.5t57.5 219.5t-57.5 220t-158.5 179.5t-246 120t-312 44.5zM856 938q259 0 422.5 -116t163.5 -290t-163.5 -289.5t-422.5 -115.5t-422.5 115.5t-163.5 289.5t163.5 290t422.5 116z" />
    <glyph glyph-name="Ohungarumlaut" unicode="&#x150;" horiz-adv-x="2244" 
d="M1102 1905l-273 -287h193l305 287h-225zM1487 1905l-273 -287h193l305 287h-225zM1122 1505q-223 0 -414.5 -60t-323.5 -163t-207 -244t-75 -301q0 -133 47.5 -252t137.5 -212.5t214 -162t283 -105t338 -36.5t338 36.5t283 105t214 162t137.5 212.5t47.5 252
q0 160 -75 301t-207 244t-323.5 163t-414.5 60zM1122 1337q180 0 336 -48t262.5 -129t167 -191t60.5 -232q0 -121 -60.5 -231t-167 -191.5t-262.5 -129.5t-336 -48t-335.5 48t-262 129.5t-167 191.5t-60.5 231q0 122 60.5 232t167 191t262 129t335.5 48z" />
    <glyph glyph-name="ohungarumlaut" unicode="&#x151;" horiz-adv-x="1712" 
d="M915 1550l-323 -348h180l358 348h-215zM1278 1550l-324 -348h181l358 348h-215zM856 1096q-167 0 -312 -44.5t-246 -120t-158.5 -179.5t-57.5 -220q0 -157 97.5 -285.5t275.5 -203t401 -74.5q167 0 312 44t246 120t158.5 179.5t57.5 219.5t-57.5 220t-158.5 179.5
t-246 120t-312 44.5zM856 938q259 0 422.5 -116t163.5 -290t-163.5 -289.5t-422.5 -115.5t-422.5 115.5t-163.5 289.5t163.5 290t422.5 116z" />
    <glyph glyph-name="OE" unicode="&#x152;" horiz-adv-x="3225" 
d="M102 737q0 160 68 301.5t187.5 244t291.5 162.5t371 60q227 0 411.5 -79.5t309.5 -213.5v263h1341v-164h-1147v-449h963v-164h-963v-534h1147v-164h-1341v266q-125 -136 -310 -216.5t-411 -80.5q-267 0 -476.5 98t-325.5 273t-116 397zM295 737q0 -121 53.5 -231
t147.5 -191.5t230 -129.5t292 -48t292 48t230 129.5t147.5 191.5t53.5 231q0 122 -53.5 232t-147.5 191t-230 129t-292 48t-292 -48t-230 -129t-147.5 -191t-53.5 -232z" />
    <glyph glyph-name="oe" unicode="&#x153;" horiz-adv-x="2846" 
d="M82 532q0 -157 93.5 -285.5t263 -203t382.5 -74.5q211 0 377.5 73.5t261.5 199.5q93 -130 276.5 -201.5t448.5 -71.5q272 0 502 119v170q-227 -135 -502 -135q-301 0 -457 100t-167 279v16h1204v25q0 114 -50.5 215t-140.5 176t-221.5 118.5t-284.5 43.5
q-201 0 -359 -74.5t-247 -200.5q-95 126 -263 200.5t-378 74.5q-159 0 -298 -44.5t-235 -120t-151 -179.5t-55 -220zM1577 651q44 134 174.5 217.5t316.5 83.5q195 0 325.5 -84t170.5 -217h-987zM270 532q0 174 153.5 290t397.5 116t397.5 -116t153.5 -290t-153.5 -289.5
t-397.5 -115.5t-397.5 115.5t-153.5 289.5z" />
    <glyph glyph-name="Racute" unicode="&#x154;" horiz-adv-x="1994" 
d="M1151 1905l-272 -287h176l305 287h-209zM1145 1475q117 0 215.5 -14.5t168 -38.5t123.5 -58.5t87 -71.5t54.5 -79.5t29.5 -81t8 -78.5t-8 -78.5t-29.5 -81t-54.5 -79.5t-87 -71.5t-123.5 -58.5t-168 -38.5t-215.5 -14.5h-62v-27l912 -604h-314l-946 631h-315v-631h-195
v1475h920zM1145 795q113 0 200.5 16t140.5 41t87 60t46.5 69t12.5 72t-12.5 72t-46.5 69t-87 60t-140.5 41t-200.5 16h-725v-516h725z" />
    <glyph glyph-name="racute" unicode="&#x155;" horiz-adv-x="1165" 
d="M895 1550l-324 -348h195l358 348h-229zM352 1065v-193q81 99 204.5 161.5t281.5 62.5q177 0 286 -58v-186q-97 86 -309 86q-60 0 -120.5 -12t-123.5 -42t-110.5 -74.5t-78 -115t-30.5 -157.5v-537h-188v1065h188z" />
    <glyph glyph-name="uni0156" unicode="&#x156;" horiz-adv-x="1994" 
d="M1145 1475q117 0 215.5 -14.5t168 -38.5t123.5 -58.5t87 -71.5t54.5 -79.5t29.5 -81t8 -78.5t-8 -78.5t-29.5 -81t-54.5 -79.5t-87 -71.5t-123.5 -58.5t-168 -38.5t-215.5 -14.5h-62v-27l912 -604h-314l-946 631h-315v-631h-195v1475h920zM1145 795q113 0 200.5 16
t140.5 41t87 60t46.5 69t12.5 72t-12.5 72t-46.5 69t-87 60t-140.5 41t-200.5 16h-725v-516h725zM696 -522l240 405h203l-287 -405h-156z" />
    <glyph glyph-name="uni0157" unicode="&#x157;" horiz-adv-x="1165" 
d="M352 1065v-193q81 99 204.5 161.5t281.5 62.5q177 0 286 -58v-186q-97 86 -309 86q-60 0 -120.5 -12t-123.5 -42t-110.5 -74.5t-78 -115t-30.5 -157.5v-537h-188v1065h188zM-106 -522l239 405h203l-287 -405h-155z" />
    <glyph glyph-name="Rcaron" unicode="&#x158;" horiz-adv-x="1994" 
d="M711 1905l196 -160h49l197 160h215l-391 -318h-100l-392 318h226zM1681 0l-946 631h-315v-631h-195v1475h920q117 0 215.5 -14.5t168 -38.5t123.5 -58.5t87 -71.5t54.5 -79.5t29.5 -81t8 -78.5t-8 -78.5t-29.5 -81t-54.5 -79.5t-87 -71.5t-123.5 -58.5t-168 -38.5
t-215.5 -14.5h-62v-27l912 -604h-314zM1145 795q113 0 200.5 16t140.5 41t87 60t46.5 69t12.5 72t-12.5 72t-46.5 69t-87 60t-140.5 41t-200.5 16h-725v-516h725z" />
    <glyph glyph-name="rcaron" unicode="&#x159;" horiz-adv-x="1165" 
d="M362 1550l240 -190h53l240 190h203l-436 -348h-76l-436 348h212zM838 1096q177 0 286 -58v-186q-97 86 -309 86q-60 0 -120.5 -12t-123.5 -42t-110.5 -74.5t-78 -115t-30.5 -157.5v-537h-188v1065h188v-193q81 99 204.5 161.5t281.5 62.5z" />
    <glyph glyph-name="Sacute" unicode="&#x15a;" horiz-adv-x="1898" 
d="M1147 1905l-273 -287h177l305 287h-209zM987 836q-440 71 -579.5 114t-139.5 133q0 116 193 186t508 70q225 0 435 -47.5t339 -126.5v195q-137 66 -341.5 105.5t-432.5 39.5q-409 0 -648 -115t-239 -307q0 -60 13.5 -103.5t52 -81.5t95.5 -66t154 -56t218 -51t298 -51
q173 -27 285.5 -48.5t201 -45.5t135.5 -49.5t70 -56t23 -71.5q0 -72 -61 -125.5t-165 -83t-224 -43.5t-256 -14q-233 0 -470.5 54t-361.5 141v-193q111 -73 352.5 -121.5t470.5 -48.5q199 0 362 26.5t285 78.5t189.5 136t67.5 193q0 76 -27.5 131.5t-83 99t-158 78.5
t-233.5 64t-328 60z" />
    <glyph glyph-name="sacute" unicode="&#x15b;" horiz-adv-x="1456" 
d="M944 1550l-323 -348h194l359 348h-230zM92 78q83 -44 243.5 -76.5t344.5 -32.5q322 0 508 93t186 247q0 88 -55.5 143t-183.5 91.5t-359 62.5q-308 34 -409 63.5t-101 98.5q0 77 140.5 127.5t369.5 50.5q350 0 543 -110v159q-68 45 -210.5 73t-332.5 28q-320 0 -507 -97
t-187 -243q0 -127 135.5 -191.5t450.5 -99.5q80 -9 137.5 -16t112 -15t91 -15.5t68.5 -16.5t51 -18.5t33 -21.5t19.5 -26t5.5 -31q0 -80 -131 -131t-359 -51q-193 0 -354.5 34t-249.5 87v-166z" />
    <glyph glyph-name="Scircumflex" unicode="&#x15c;" horiz-adv-x="1898" 
d="M514 1587l391 318h92l392 -318h-218l-196 160h-49l-197 -160h-215zM987 836q197 -31 328 -60t233.5 -64t158 -78.5t83 -99t27.5 -131.5q0 -109 -67.5 -193t-189.5 -136t-285 -78.5t-362 -26.5q-229 0 -470.5 48.5t-352.5 121.5v193q124 -87 361.5 -141t470.5 -54
q136 0 256 14t224 43.5t165 83t61 125.5q0 41 -23 71.5t-70 56t-135.5 49.5t-201 45.5t-285.5 48.5q-177 28 -298 51t-218 51t-154 56t-95.5 66t-52 81.5t-13.5 103.5q0 192 239 307t648 115q228 0 432.5 -39.5t341.5 -105.5v-195q-129 79 -339 126.5t-435 47.5
q-315 0 -508 -70t-193 -186q0 -90 139.5 -133t579.5 -114z" />
    <glyph glyph-name="scircumflex" unicode="&#x15d;" horiz-adv-x="1456" 
d="M240 1202l436 348h78l436 -348h-207l-240 191h-53l-239 -191h-211zM776 606q231 -26 359 -62.5t183.5 -91.5t55.5 -143q0 -154 -186 -247t-508 -93q-184 0 -344.5 32.5t-243.5 76.5v166q88 -53 249.5 -87t354.5 -34q228 0 359 51t131 131q0 17 -5.5 31t-19.5 26t-33 21.5
t-51 18.5t-68.5 16.5t-91 15.5t-112 15t-137.5 16q-315 35 -450.5 99.5t-135.5 191.5q0 146 187 243t507 97q190 0 332.5 -28t210.5 -73v-159q-192 110 -543 110q-229 0 -369.5 -50.5t-140.5 -127.5q0 -69 101 -98.5t409 -63.5z" />
    <glyph glyph-name="Scedilla" unicode="&#x15e;" horiz-adv-x="1898" 
d="M82 1083q0 -60 13.5 -103.5t52 -81.5t95.5 -66t154 -56t218 -51t298 -51q173 -27 285.5 -48.5t201 -45.5t135.5 -49.5t70 -56t23 -71.5q0 -72 -61 -125.5t-165 -83t-224 -43.5t-256 -14q-233 0 -470.5 54t-361.5 141v-193q106 -70 337.5 -118.5t455.5 -51.5v-186
q42 24 118 24q61 0 88 -20t27 -45q0 -61 -119 -61q-87 0 -135 26v-108q53 -29 142 -29q112 0 176.5 48.5t64.5 123.5q0 78 -62.5 125t-174.5 47h-2v57q243 7 422 55.5t284 144.5t105 232q0 76 -27.5 131.5t-83 99t-158 78.5t-233.5 64t-328 60q-440 71 -579.5 114
t-139.5 133q0 116 193 186t508 70q225 0 435 -47.5t339 -126.5v195q-137 66 -341.5 105.5t-432.5 39.5q-409 0 -648 -115t-239 -307z" />
    <glyph glyph-name="scedilla" unicode="&#x15f;" horiz-adv-x="1456" 
d="M82 756q0 -127 135.5 -191.5t450.5 -99.5q80 -9 137.5 -16t112 -15t91 -15.5t68.5 -16.5t51 -18.5t33 -21.5t19.5 -26t5.5 -31q0 -80 -131 -131t-359 -51q-193 0 -354.5 34t-249.5 87v-166q76 -41 225 -73t322 -36v-186q42 24 119 24q61 0 87.5 -20t26.5 -45
q0 -61 -118 -61q-88 0 -136 26v-108q53 -29 142 -29q112 0 176.5 48.5t64.5 123.5q0 78 -62.5 125t-174.5 47h-2v57q286 12 449 103t163 235q0 88 -55.5 143t-183.5 91.5t-359 62.5q-308 34 -409 63.5t-101 98.5q0 77 140.5 127.5t369.5 50.5q350 0 543 -110v159
q-68 45 -210.5 73t-332.5 28q-320 0 -507 -97t-187 -243z" />
    <glyph glyph-name="Scaron" unicode="&#x160;" horiz-adv-x="1898" 
d="M741 1905l197 -160h49l197 160h215l-391 -318h-101l-391 318h225zM987 836q197 -31 328 -60t233.5 -64t158 -78.5t83 -99t27.5 -131.5q0 -109 -67.5 -193t-189.5 -136t-285 -78.5t-362 -26.5q-229 0 -470.5 48.5t-352.5 121.5v193q124 -87 361.5 -141t470.5 -54
q136 0 256 14t224 43.5t165 83t61 125.5q0 41 -23 71.5t-70 56t-135.5 49.5t-201 45.5t-285.5 48.5q-177 28 -298 51t-218 51t-154 56t-95.5 66t-52 81.5t-13.5 103.5q0 192 239 307t648 115q228 0 432.5 -39.5t341.5 -105.5v-195q-129 79 -339 126.5t-435 47.5
q-315 0 -508 -70t-193 -186q0 -90 139.5 -133t579.5 -114z" />
    <glyph glyph-name="scaron" unicode="&#x161;" horiz-adv-x="1456" 
d="M469 1550l240 -190h53l239 190h203l-436 -348h-76l-436 348h213zM776 606q231 -26 359 -62.5t183.5 -91.5t55.5 -143q0 -154 -186 -247t-508 -93q-184 0 -344.5 32.5t-243.5 76.5v166q88 -53 249.5 -87t354.5 -34q228 0 359 51t131 131q0 17 -5.5 31t-19.5 26t-33 21.5
t-51 18.5t-68.5 16.5t-91 15.5t-112 15t-137.5 16q-315 35 -450.5 99.5t-135.5 191.5q0 146 187 243t507 97q190 0 332.5 -28t210.5 -73v-159q-192 110 -543 110q-229 0 -369.5 -50.5t-140.5 -127.5q0 -69 101 -98.5t409 -63.5z" />
    <glyph glyph-name="Tcaron" unicode="&#x164;" horiz-adv-x="1853" 
d="M713 1905l196 -160h49l197 160h215l-391 -318h-100l-392 318h226zM1823 1311h-799v-1311h-195v1311h-798v164h1792v-164z" />
    <glyph glyph-name="tcaron" unicode="&#x165;" horiz-adv-x="1155" 
d="M715 1241l239 406h203l-287 -406h-155zM287 1065v410h188v-410h557v-154h-557v-479q0 -155 97.5 -230t273.5 -75q182 0 289 63v-159q-86 -62 -306 -62q-113 0 -209 26t-171.5 78t-118.5 137.5t-43 197.5v503h-267v154h267z" />
    <glyph glyph-name="Tbar" unicode="&#x166;" horiz-adv-x="1853" 
d="M1823 1475v-164h-799v-514h485v-156h-485v-641h-195v641h-485v156h485v514h-798v164h1792z" />
    <glyph glyph-name="tbar" unicode="&#x167;" horiz-adv-x="1155" 
d="M287 715v196h-267v154h267v410h188v-410h557v-154h-557v-196h557v-144h-557v-139q0 -155 97.5 -230t273.5 -75q182 0 289 63v-159q-86 -62 -306 -62q-113 0 -209 26t-171.5 78t-118.5 137.5t-43 197.5v163h-267v144h267z" />
    <glyph glyph-name="Utilde" unicode="&#x168;" horiz-adv-x="1918" 
d="M670 1645q0 49 31.5 89t80.5 40q35 0 66.5 -16t59.5 -38.5t59.5 -45t79 -38.5t104.5 -16q120 0 195 70.5t75 185.5h-153q0 -49 -32 -89t-81 -40q-35 0 -66.5 16t-59.5 38.5t-59.5 45t-79 38.5t-104.5 16q-120 0 -195 -70.5t-75 -185.5h154zM154 774q0 -234 97.5 -416
t282.5 -285.5t431 -103.5q184 0 335.5 60t253 166.5t156.5 255t55 323.5v701h-184v-691q0 -305 -167.5 -476t-448.5 -171q-131 0 -243.5 43.5t-195.5 124.5t-130.5 204.5t-47.5 274.5v691h-194v-701z" />
    <glyph glyph-name="utilde" unicode="&#x169;" 
d="M500 1278q0 49 31.5 89t80.5 40q35 0 66.5 -16t59.5 -38.5t59.5 -45t79 -38.5t104.5 -16q120 0 195 70.5t75 185.5h-153q0 -49 -32 -89t-81 -40q-35 0 -66.5 16t-59.5 38.5t-59.5 45t-79 38.5t-104.5 16q-120 0 -195 -70.5t-75 -185.5h154zM317 1065v-514
q0 -219 112 -321.5t331 -102.5q78 0 146.5 12t136 43.5t115 81t77 130.5t29.5 186v485h184v-1065h-184v207q-85 -104 -222.5 -171t-326.5 -67q-117 0 -220 34t-185 99.5t-129.5 173t-47.5 244.5v545h184z" />
    <glyph glyph-name="Umacron" unicode="&#x16a;" horiz-adv-x="1918" 
d="M1303 1673h-656v144h656v-144zM154 774q0 -234 97.5 -416t282.5 -285.5t431 -103.5q184 0 335.5 60t253 166.5t156.5 255t55 323.5v701h-184v-691q0 -305 -167.5 -476t-448.5 -171q-131 0 -243.5 43.5t-195.5 124.5t-130.5 204.5t-47.5 274.5v691h-194v-701z" />
    <glyph glyph-name="umacron" unicode="&#x16b;" 
d="M1135 1300h-656v144h656v-144zM317 1065v-514q0 -219 112 -321.5t331 -102.5q78 0 146.5 12t136 43.5t115 81t77 130.5t29.5 186v485h184v-1065h-184v207q-85 -104 -222.5 -171t-326.5 -67q-117 0 -220 34t-185 99.5t-129.5 173t-47.5 244.5v545h184z" />
    <glyph glyph-name="Ubreve" unicode="&#x16c;" horiz-adv-x="1918" 
d="M1257 1921q0 -75 -75.5 -132.5t-212.5 -57.5t-213 57.5t-76 132.5h-154q0 -60 29 -115.5t83 -101t140 -73t191 -27.5t191 27.5t139.5 73t82.5 101t29 115.5h-154zM154 774q0 -234 97.5 -416t282.5 -285.5t431 -103.5q184 0 335.5 60t253 166.5t156.5 255t55 323.5v701
h-184v-691q0 -305 -167.5 -476t-448.5 -171q-131 0 -243.5 43.5t-195.5 124.5t-130.5 204.5t-47.5 274.5v691h-194v-701z" />
    <glyph glyph-name="ubreve" unicode="&#x16d;" 
d="M1092 1546q0 -89 -76.5 -154t-214.5 -65t-214.5 65t-76.5 154h-162q0 -67 29.5 -129t85 -111.5t143 -79.5t195.5 -30t195.5 29.5t142.5 79.5t84.5 112t29.5 129h-161zM317 1065v-514q0 -219 112 -321.5t331 -102.5q78 0 146.5 12t136 43.5t115 81t77 130.5t29.5 186v485
h184v-1065h-184v207q-85 -104 -222.5 -171t-326.5 -67q-117 0 -220 34t-185 99.5t-129.5 173t-47.5 244.5v545h184z" />
    <glyph glyph-name="Uring" unicode="&#x16e;" horiz-adv-x="1918" 
d="M739 1765q0 89 70.5 149t173.5 60t173.5 -60t70.5 -149t-70.5 -149t-173.5 -60t-173.5 60t-70.5 149zM985 1862q-50 0 -85.5 -28t-35.5 -69t35.5 -68.5t85.5 -27.5q51 0 84 27.5t33 68.5t-33 69t-84 28zM154 774q0 -234 97.5 -416t282.5 -285.5t431 -103.5
q184 0 335.5 60t253 166.5t156.5 255t55 323.5v701h-184v-691q0 -305 -167.5 -476t-448.5 -171q-131 0 -243.5 43.5t-195.5 124.5t-130.5 204.5t-47.5 274.5v691h-194v-701z" />
    <glyph glyph-name="uring" unicode="&#x16f;" 
d="M551 1378q0 89 70.5 149t173.5 60t173 -60t70 -149t-70 -149t-173 -60t-173.5 60t-70.5 149zM797 1475q-50 0 -85.5 -28t-35.5 -69t35.5 -68.5t85.5 -27.5q51 0 83.5 27.5t32.5 68.5q0 42 -32.5 69.5t-83.5 27.5zM317 1065v-514q0 -219 112 -321.5t331 -102.5
q78 0 146.5 12t136 43.5t115 81t77 130.5t29.5 186v485h184v-1065h-184v207q-85 -104 -222.5 -171t-326.5 -67q-117 0 -220 34t-185 99.5t-129.5 173t-47.5 244.5v545h184z" />
    <glyph glyph-name="Uhungarumlaut" unicode="&#x170;" horiz-adv-x="1918" 
d="M924 1905l-273 -287h193l305 287h-225zM1309 1905l-273 -287h193l305 287h-225zM154 774q0 -234 97.5 -416t282.5 -285.5t431 -103.5q184 0 335.5 60t253 166.5t156.5 255t55 323.5v701h-184v-691q0 -305 -167.5 -476t-448.5 -171q-131 0 -243.5 43.5t-195.5 124.5
t-130.5 204.5t-47.5 274.5v691h-194v-701z" />
    <glyph glyph-name="uhungarumlaut" unicode="&#x171;" 
d="M852 1550l-324 -348h181l358 348h-215zM1214 1550l-323 -348h180l359 348h-216zM317 1065v-514q0 -219 112 -321.5t331 -102.5q78 0 146.5 12t136 43.5t115 81t77 130.5t29.5 186v485h184v-1065h-184v207q-85 -104 -222.5 -171t-326.5 -67q-117 0 -220 34t-185 99.5
t-129.5 173t-47.5 244.5v545h184z" />
    <glyph glyph-name="Uogonek" unicode="&#x172;" horiz-adv-x="1918" 
d="M965 -174q0 -90 116 -90q77 0 129 28v-120q-47 -29 -135 -29q-127 0 -187.5 54t-60.5 132q0 57 21.5 95.5t66.5 74.5q-232 10 -405.5 115.5t-264.5 283.5t-91 404v701h194v-691q0 -151 47.5 -274.5t130.5 -204.5t195.5 -124.5t243.5 -43.5q281 0 448.5 171t167.5 476v691
h184v-701q0 -288 -142.5 -493t-395.5 -277q-147 -41 -204.5 -77.5t-57.5 -100.5z" />
    <glyph glyph-name="uogonek" unicode="&#x173;" 
d="M317 1065v-514q0 -219 112 -321.5t331 -102.5q78 0 146.5 12t136 43.5t115 81t77 130.5t29.5 186v485h184v-1065q-82 -26 -128 -69t-46 -95q0 -43 27 -65.5t77 -22.5q76 0 129 29v-133q-53 -29 -135 -29q-121 0 -186.5 51t-65.5 139q0 117 144 195v207
q-85 -104 -222.5 -171t-326.5 -67q-117 0 -220 34t-185 99.5t-129.5 173t-47.5 244.5v545h184z" />
    <glyph glyph-name="Wcircumflex" unicode="&#x174;" horiz-adv-x="2775" 
d="M973 1587l391 318h92l391 -318h-217l-196 160h-50l-196 -160h-215zM2214 0h-307l-482 1288h-43l-483 -1288h-315l-564 1475h220l493 -1291h43l484 1291h307l481 -1291h41l473 1291h193z" />
    <glyph glyph-name="wcircumflex" unicode="&#x175;" horiz-adv-x="2140" 
d="M596 1202l436 348h78l436 -348h-207l-239 191h-53l-240 -191h-211zM1698 0h-236l-362 885h-39l-359 -885h-256l-436 1065h195l360 -881h43l357 881h235l361 -881h43l356 881h170z" />
    <glyph glyph-name="Ycircumflex" unicode="&#x176;" horiz-adv-x="1845" 
d="M508 1587l391 318h92l391 -318h-217l-196 160h-49l-197 -160h-215zM1040 520v-520h-194v520l-846 955h238l690 -779h45l657 779h215z" />
    <glyph glyph-name="ycircumflex" unicode="&#x177;" horiz-adv-x="1468" 
d="M270 1202l437 348h77l437 -348h-207l-240 191h-53l-240 -191h-211zM588 -410h-185l265 445l-668 1030h219l524 -809h58l483 809h184z" />
    <glyph glyph-name="Ydieresis" unicode="&#x178;" horiz-adv-x="1845" 
d="M684 1866q-61 0 -103 -35t-42 -86t41.5 -85t103.5 -34t103.5 34t41.5 85t-42 86t-103 35zM1212 1866q-61 0 -103 -35t-42 -86t41.5 -85t103.5 -34t104 34t42 85t-42 86t-104 35zM928 696h45l657 779h215l-805 -955v-520h-194v520l-846 955h238z" />
    <glyph glyph-name="Zacute" unicode="&#x179;" horiz-adv-x="1802" 
d="M1083 1905l-272 -287h176l305 287h-209zM1483 1262v49h-1381v164h1598v-256l-1376 -1000v-55h1376v-164h-1598v260z" />
    <glyph glyph-name="zacute" unicode="&#x17a;" horiz-adv-x="1378" 
d="M897 1550l-324 -348h195l358 348h-229zM1073 874v41h-981v150h1194v-225l-956 -643v-47h956v-150h-1194v215z" />
    <glyph glyph-name="Zdotaccent" unicode="&#x17b;" horiz-adv-x="1802" 
d="M940 1866q-67 0 -110.5 -35t-43.5 -86t43.5 -85t110.5 -34t110.5 34t43.5 85t-43.5 86t-110.5 35zM1483 1262v49h-1381v164h1598v-256l-1376 -1000v-55h1376v-164h-1598v260z" />
    <glyph glyph-name="zdotaccent" unicode="&#x17c;" horiz-adv-x="1378" 
d="M684 1499q-67 0 -110.5 -35t-43.5 -86t43.5 -84.5t110.5 -33.5t110.5 33.5t43.5 84.5t-43.5 86t-110.5 35zM1073 874v41h-981v150h1194v-225l-956 -643v-47h956v-150h-1194v215z" />
    <glyph glyph-name="Zcaron" unicode="&#x17d;" horiz-adv-x="1802" 
d="M702 1905l197 -160h49l197 160h215l-391 -318h-101l-391 318h225zM324 164h1376v-164h-1598v260l1381 1002v49h-1381v164h1598v-256l-1376 -1000v-55z" />
    <glyph glyph-name="zcaron" unicode="&#x17e;" horiz-adv-x="1378" 
d="M424 1550l240 -190h53l239 190h203l-436 -348h-76l-436 348h213zM330 150h956v-150h-1194v215l981 659v41h-981v150h1194v-225l-956 -643v-47z" />
    <glyph glyph-name="uni018F" unicode="&#x18f;" horiz-adv-x="2234" 
d="M92 778q0 -168 75 -316.5t207 -257.5t323.5 -172t414.5 -63q179 0 338 36.5t283 105t214 162t137.5 212.5t47.5 252q0 130 -44.5 245t-137 211t-226.5 165.5t-322 108t-415 38.5q-225 0 -424 -43.5t-327 -124.5v-211q124 97 314.5 151t436.5 54q185 0 338 -28t262 -77.5
t185.5 -119.5t116 -152t46.5 -176h-1843zM1923 621q-54 -208 -274.5 -343t-536.5 -135q-200 0 -369.5 65.5t-277.5 172.5t-152 240h1610z" />
    <glyph glyph-name="uni01C4" unicode="&#x1c4;" horiz-adv-x="3930" 
d="M2830 1905l197 -160h49l197 160h215l-391 -318h-101l-391 318h225zM842 1475q195 0 357.5 -19.5t283.5 -54.5t214 -87t154.5 -113.5t101 -137.5t56 -155.5t16.5 -170.5q0 -737 -1183 -737h-617v1475h617zM2451 164h1377v-164h-1598v260l1381 1002v49h-1381v164h1598v-256
l-1377 -1000v-55zM834 164q502 0 746.5 142t244.5 431t-245.5 431.5t-745.5 142.5h-414v-1147h414z" />
    <glyph glyph-name="uni01C5" unicode="&#x1c5;" horiz-adv-x="3465" 
d="M2511 1550l239 -190h54l239 190h203l-436 -348h-76l-436 348h213zM842 1475q195 0 357.5 -19.5t283.5 -54.5t214 -87t154.5 -113.5t101 -137.5t56 -155.5t16.5 -170.5q0 -737 -1183 -737h-617v1475h617zM834 164q502 0 746.5 142t244.5 431t-245.5 431.5t-745.5 142.5
h-414v-1147h414zM2417 150h956v-150h-1194v215l981 659v41h-981v150h1194v-225l-956 -643v-47z" />
    <glyph glyph-name="uni01C6" unicode="&#x1c6;" horiz-adv-x="3137" 
d="M2183 1550l240 -190h53l240 190h202l-436 -348h-76l-436 348h213zM1595 1475v-1475h-184v188q-241 -219 -592 -219q-165 0 -304 44t-233.5 120t-147 179t-52.5 220q0 109 54.5 211t150 180.5t237 125.5t305.5 47q347 0 582 -217v596h184zM2089 150h956v-150h-1194v215
l981 659v41h-981v150h1194v-225l-956 -643v-47zM856 127q259 0 422.5 115.5t163.5 289.5t-163.5 290t-422.5 116t-422.5 -116t-163.5 -290t163.5 -289.5t422.5 -115.5z" />
    <glyph glyph-name="uni01C7" unicode="&#x1c7;" horiz-adv-x="3115" 
d="M420 1475v-1311h1198v-164h-1393v1475h195zM1710 127q75 -66 219 -112t309 -46q107 0 203 18.5t191.5 66.5t164.5 122t111.5 193t42.5 272v834h-194v-795q0 -134 -31.5 -235t-81 -160t-121.5 -95.5t-141.5 -48.5t-153.5 -12q-157 0 -298 61.5t-220 145.5v-209z" />
    <glyph glyph-name="uni01C8" unicode="&#x1c8;" horiz-adv-x="2170" 
d="M1915 1499q-67 0 -110.5 -35t-43.5 -86t43.5 -84.5t110.5 -33.5t110 33.5t43 84.5q0 52 -43 86.5t-110 34.5zM420 1475v-1311h1198v-164h-1393v1475h195zM2007 -8q0 -195 -115.5 -308.5t-312.5 -113.5q-156 0 -256 72v174q110 -88 233 -88q267 0 267 264v1073h184v-1073z
" />
    <glyph glyph-name="uni01C9" unicode="&#x1c9;" horiz-adv-x="1024" 
d="M768 1499q-67 0 -110.5 -35t-43.5 -86t43.5 -84.5t110.5 -33.5t110.5 33.5t43.5 84.5t-43.5 86t-110.5 35zM164 0v1475h184v-1475h-184zM860 -8q0 -195 -115.5 -308.5t-312.5 -113.5q-156 0 -256 72v174q110 -88 234 -88q266 0 266 264v1073h184v-1073z" />
    <glyph glyph-name="uni01CA" unicode="&#x1ca;" horiz-adv-x="3616" 
d="M553 1475l1141 -1291h47v1291h194v-1475h-315l-1153 1288h-47v-1288h-195v1475h328zM2212 127q75 -66 219 -112t309 -46q107 0 203 18.5t191.5 66.5t164.5 122t111.5 193t42.5 272v834h-195v-795q0 -134 -31.5 -235t-80.5 -160t-121 -95.5t-141.5 -48.5t-153.5 -12
q-157 0 -298 61.5t-220 145.5v-209z" />
    <glyph glyph-name="uni01CB" unicode="&#x1cb;" horiz-adv-x="2672" 
d="M2417 1499q-67 0 -110.5 -35t-43.5 -86t43.5 -84.5t110.5 -33.5t110 33.5t43 84.5q0 52 -43 86.5t-110 34.5zM553 1475l1141 -1291h47v1291h194v-1475h-315l-1153 1288h-47v-1288h-195v1475h328zM2509 -8q0 -195 -115.5 -308.5t-312.5 -113.5q-156 0 -256 72v174
q110 -88 233 -88q266 0 266 264v1073h185v-1073z" />
    <glyph glyph-name="uni01CC" unicode="&#x1cc;" horiz-adv-x="2123" 
d="M1868 1499q-67 0 -110.5 -35t-43.5 -86t43.5 -84.5t110.5 -33.5t110 33.5t43 84.5q0 52 -43 86.5t-110 34.5zM348 1065v-207q85 104 222.5 171t326.5 67q126 0 229 -30.5t183.5 -94.5t125 -172.5t44.5 -253.5v-545h-185v514q0 220 -111.5 322t-330.5 102
q-78 0 -146.5 -12t-136 -43.5t-115 -81t-77 -130.5t-29.5 -186v-485h-184v1065h184zM1960 -8q0 -195 -115.5 -308.5t-312.5 -113.5q-156 0 -256 72v174q110 -88 233 -88q267 0 267 264v1073h184v-1073z" />
    <glyph glyph-name="uni01F1" unicode="&#x1f1;" horiz-adv-x="3930" 
d="M842 1475q195 0 357.5 -19.5t283.5 -54.5t214 -87t154.5 -113.5t101 -137.5t56 -155.5t16.5 -170.5q0 -737 -1183 -737h-617v1475h617zM3611 1262v49h-1381v164h1598v-256l-1377 -1000v-55h1377v-164h-1598v260zM834 164q502 0 746.5 142t244.5 431t-245.5 431.5
t-745.5 142.5h-414v-1147h414z" />
    <glyph glyph-name="uni01F2" unicode="&#x1f2;" horiz-adv-x="3465" 
d="M842 1475q195 0 357.5 -19.5t283.5 -54.5t214 -87t154.5 -113.5t101 -137.5t56 -155.5t16.5 -170.5q0 -737 -1183 -737h-617v1475h617zM834 164q502 0 746.5 142t244.5 431t-245.5 431.5t-745.5 142.5h-414v-1147h414zM3160 874v41h-981v150h1194v-225l-956 -643v-47h956
v-150h-1194v215z" />
    <glyph glyph-name="uni01F3" unicode="&#x1f3;" horiz-adv-x="3137" 
d="M1411 0v188q-241 -219 -592 -219q-165 0 -304 44t-233.5 120t-147 179t-52.5 220q0 109 54.5 211t150 180.5t237 125.5t305.5 47q347 0 582 -217v596h184v-1475h-184zM2832 874v41h-981v150h1194v-225l-956 -643v-47h956v-150h-1194v215zM1442 532q0 174 -163.5 290
t-422.5 116t-422.5 -116t-163.5 -290t163.5 -289.5t422.5 -115.5t422.5 115.5t163.5 289.5z" />
    <glyph glyph-name="Aringacute" unicode="&#x1fa;" horiz-adv-x="2123" 
d="M1288 2343l-272 -287h176l305 287h-209zM827 1765q0 89 70.5 149t173.5 60t173.5 -60t70.5 -149t-70.5 -149t-173.5 -60t-173.5 60t-70.5 149zM1073 1862q-50 0 -85.5 -28t-35.5 -69t35.5 -68.5t85.5 -27.5q51 0 84 27.5t33 68.5t-33 69t-84 28zM1239 1475l928 -1475
h-230l-268 428h-1143l-272 -428h-211l940 1475h256zM1118 1300h-35l-452 -708h934z" />
    <glyph glyph-name="aringacute" unicode="&#x1fb;" horiz-adv-x="1626" 
d="M1012 1948l-273 -287h176l306 287h-209zM573 1378q0 89 70.5 149t173.5 60t173.5 -60t70.5 -149t-70.5 -149t-173.5 -60t-173.5 60t-70.5 149zM819 1475q-50 0 -85.5 -28t-35.5 -69t35.5 -68.5t85.5 -27.5q51 0 84 27.5t33 68.5t-33 69t-84 28zM82 293
q0 -165 154.5 -244.5t431.5 -79.5q231 0 386 61.5t259 176.5v-207h180v670q0 112 -54 195.5t-153.5 133t-230 73.5t-293.5 24q-175 0 -337 -36.5t-280 -111.5v-188q104 82 264 130t347 48q282 0 422.5 -59.5t140.5 -155.5q0 -67 -99 -85.5t-408 -31.5q-37 -2 -58.5 -3
t-56.5 -2.5t-66 -2.5q-289 -13 -419 -89t-130 -216zM1313 514q0 -123 -86 -212t-224.5 -132t-310.5 -43q-413 0 -413 166q0 83 94 119.5t293 42.5q351 11 455 24q140 18 192 58v-23z" />
    <glyph glyph-name="AEacute" unicode="&#x1fc;" horiz-adv-x="3368" 
d="M2343 1905l-272 -287h176l305 287h-209zM3226 1475v-164h-1352v-449h1167v-164h-1167v-534h1352v-164h-1547v430h-977l-456 -430h-246l1565 1475h1661zM1679 1315h-39l-763 -721h802v721z" />
    <glyph glyph-name="aeacute" unicode="&#x1fd;" horiz-adv-x="2691" 
d="M1606 1550l-324 -348h195l358 348h-229zM82 315q0 -346 545 -346q442 0 665 264q97 -125 281 -194.5t434 -69.5q141 0 278.5 29.5t245.5 85.5v170q-220 -131 -524 -131q-295 0 -449.5 105t-160.5 290h1212v25q0 115 -47.5 215t-136 175.5t-223.5 119t-301 43.5
q-170 0 -313 -57.5t-240 -159.5q-195 217 -627 217q-154 0 -310.5 -38t-265.5 -110v-188q94 81 246.5 129.5t323.5 48.5q146 0 262.5 -31t189 -96.5t72.5 -155.5v-4h-440q-717 0 -717 -336zM1415 651q44 133 172.5 217t308.5 84q216 0 346.5 -83t167.5 -218h-995zM279 315
q0 46 24.5 81.5t81.5 63.5t161 43t253 15h440v-20q0 -115 -88 -201.5t-219.5 -128t-280.5 -41.5q-372 0 -372 188z" />
    <glyph glyph-name="Oslashacute" unicode="&#x1fe;" horiz-adv-x="2244" 
d="M1311 1905l-273 -287h176l306 287h-209zM102 737q0 -173 79 -318t225 -249l-254 -242h237l164 156q246 -115 569 -115q179 0 338 36.5t283 105t214 162t137.5 212.5t47.5 252q0 168 -80 313t-227 250l256 244h-238l-165 -158q-247 119 -566 119q-223 0 -414.5 -60
t-323.5 -163t-207 -244t-75 -301zM297 737q0 122 60.5 232t167 191t262 129t335.5 48q241 0 428 -82l-1005 -954q-119 84 -183.5 196.5t-64.5 239.5zM1700 1174q119 -84 183.5 -197t64.5 -240q0 -121 -60.5 -231t-167 -191.5t-262.5 -129.5t-336 -48q-233 0 -428 82z" />
    <glyph glyph-name="oslashacute" unicode="&#x1ff;" horiz-adv-x="1712" 
d="M1098 1550l-324 -348h195l358 348h-229zM82 532q0 -124 62 -231t175 -184l-196 -189h209l121 117q178 -76 403 -76q167 0 312 44t246 120t158.5 179.5t57.5 219.5q0 122 -62 229.5t-175 184.5l196 191h-209l-123 -117q-183 76 -401 76q-167 0 -312 -44.5t-246 -120
t-158.5 -179.5t-57.5 -220zM270 532q0 174 163.5 290t422.5 116q153 0 274 -41l-688 -661q-172 117 -172 296zM1270 829q172 -117 172 -297q0 -174 -163.5 -289.5t-422.5 -115.5q-153 0 -274 41z" />
    <glyph glyph-name="uni0218" unicode="&#x218;" horiz-adv-x="1898" 
d="M987 836q-440 71 -579.5 114t-139.5 133q0 116 193 186t508 70q225 0 435 -47.5t339 -126.5v195q-137 66 -341.5 105.5t-432.5 39.5q-409 0 -648 -115t-239 -307q0 -60 13.5 -103.5t52 -81.5t95.5 -66t154 -56t218 -51t298 -51q173 -27 285.5 -48.5t201 -45.5
t135.5 -49.5t70 -56t23 -71.5q0 -72 -61 -125.5t-165 -83t-224 -43.5t-256 -14q-233 0 -470.5 54t-361.5 141v-193q111 -73 352.5 -121.5t470.5 -48.5q199 0 362 26.5t285 78.5t189.5 136t67.5 193q0 76 -27.5 131.5t-83 99t-158 78.5t-233.5 64t-328 60zM647 -522l240 405
h203l-287 -405h-156z" />
    <glyph glyph-name="uni0219" unicode="&#x219;" horiz-adv-x="1456" 
d="M92 78q83 -44 243.5 -76.5t344.5 -32.5q322 0 508 93t186 247q0 88 -55.5 143t-183.5 91.5t-359 62.5q-308 34 -409 63.5t-101 98.5q0 77 140.5 127.5t369.5 50.5q350 0 543 -110v159q-68 45 -210.5 73t-332.5 28q-320 0 -507 -97t-187 -243q0 -127 135.5 -191.5
t450.5 -99.5q80 -9 137.5 -16t112 -15t91 -15.5t68.5 -16.5t51 -18.5t33 -21.5t19.5 -26t5.5 -31q0 -80 -131 -131t-359 -51q-193 0 -354.5 34t-249.5 87v-166zM422 -522l240 405h202l-286 -405h-156z" />
    <glyph glyph-name="uni021A" unicode="&#x21a;" horiz-adv-x="1853" 
d="M1823 1475v-164h-799v-1311h-195v1311h-798v164h1792zM565 -522l240 405h203l-287 -405h-156z" />
    <glyph glyph-name="uni021B" unicode="&#x21b;" horiz-adv-x="1155" 
d="M287 1065v410h188v-410h557v-154h-557v-479q0 -155 97.5 -230t273.5 -75q182 0 289 63v-159q-86 -62 -306 -62q-113 0 -209 26t-171.5 78t-118.5 137.5t-43 197.5v503h-267v154h267zM424 -522l240 405h202l-286 -405h-156z" />
    <glyph glyph-name="uni0237" unicode="&#x237;" horiz-adv-x="512" 
d="M348 -8q0 -195 -115.5 -308.5t-312.5 -113.5q-156 0 -256 72v174q110 -88 234 -88q266 0 266 264v1073h184v-1073z" />
    <glyph glyph-name="uni0259" unicode="&#x259;" horiz-adv-x="1720" 
d="M82 543q0 -167 96.5 -297.5t274 -203.5t407.5 -73t407 71t274 199.5t97 292.5q0 260 -225.5 412t-669.5 152q-168 0 -320.5 -31t-262.5 -88v-170q227 135 583 135q334 0 513 -100t194 -275h-1368v-24zM1440 434q-40 -148 -194.5 -234.5t-385.5 -86.5q-232 0 -381.5 86.5
t-191.5 234.5h1153z" />
    <glyph glyph-name="uni02BC" unicode="&#x2bc;" horiz-adv-x="563" 
d="M502 1475l-266 -451h-226l320 451h172z" />
    <glyph glyph-name="circumflex" unicode="&#x2c6;" horiz-adv-x="868" 
d="M410 1393l-240 -191h-211l436 348h78l436 -348h-207l-239 191h-53z" />
    <glyph glyph-name="caron" unicode="&#x2c7;" horiz-adv-x="872" 
d="M475 1202h-76l-436 348h213l240 -190h53l240 190h202z" />
    <glyph glyph-name="breve" unicode="&#x2d8;" horiz-adv-x="946" 
d="M764 1546q0 -89 -76.5 -154t-214.5 -65t-214.5 65t-76.5 154h-162q0 -67 29.5 -129t85 -111.5t143 -79.5t195.5 -30t195.5 30t143 79.5t85 111.5t29.5 129h-162z" />
    <glyph glyph-name="dotaccent" unicode="&#x2d9;" horiz-adv-x="290" 
d="M145 1499q-67 0 -110 -34.5t-43 -86.5q0 -51 43 -84.5t110 -33.5t110.5 33.5t43.5 84.5t-43.5 86t-110.5 35z" />
    <glyph glyph-name="ring" unicode="&#x2da;" horiz-adv-x="487" 
d="M0 1378q0 89 70.5 149t173.5 60t173 -60t70 -149t-70 -149t-173 -60t-173.5 60t-70.5 149zM246 1475q-50 0 -85.5 -28t-35.5 -69t35.5 -68.5t85.5 -27.5q51 0 83.5 27.5t32.5 68.5q0 42 -32.5 69.5t-83.5 27.5z" />
    <glyph glyph-name="ogonek" unicode="&#x2db;" horiz-adv-x="464" 
d="M180 0q-48 -20 -95.5 -71t-47.5 -115q0 -83 67 -141t185 -58q82 0 135 29v133q-53 -29 -129 -29q-50 0 -77.5 23t-27.5 65q0 48 55 94.5t120 69.5h-185z" />
    <glyph glyph-name="tilde" unicode="&#x2dc;" horiz-adv-x="1028" 
d="M215 1278q0 49 32 89t81 40q35 0 66.5 -16t59 -38.5t59 -45t79 -38.5t104.5 -16q121 0 196 70.5t75 185.5h-154q0 -49 -32 -89t-81 -40q-35 0 -66.5 16t-59 38.5t-59 45t-79 38.5t-104.5 16q-121 0 -196 -70.5t-75 -185.5h154z" />
    <glyph glyph-name="hungarumlaut" unicode="&#x2dd;" horiz-adv-x="950" 
d="M348 1550l-323 -348h180l358 348h-215zM711 1550l-324 -348h180l359 348h-215z" />
    <glyph glyph-name="uni0326" unicode="&#x326;" horiz-adv-x="0" 
d="M-500 -522l240 405h203l-287 -405h-156z" />
    <glyph glyph-name="uni0401" unicode="&#x401;" horiz-adv-x="1914" 
d="M762 1866q-62 0 -104 -35t-42 -86t42 -85t104 -34t103.5 34t41.5 85t-42 86t-103 35zM1290 1866q-61 0 -103 -35t-42 -86t41.5 -85t103.5 -34t104 34t42 85t-42 86t-104 35zM1772 1475v-164h-1352v-449h1167v-164h-1167v-534h1352v-164h-1547v1475h1547z" />
    <glyph glyph-name="uni0402" unicode="&#x402;" horiz-adv-x="2185" 
d="M1608 1475v-164h-809v-469q110 31 255 46t249 15q135 0 248.5 -14.5t213 -47.5t169 -84t109.5 -128.5t40 -175.5q0 -221 -189 -352.5t-499 -131.5q-91 0 -123 8v175q56 -9 117 -9q97 0 181.5 17t155.5 52.5t112.5 97t41.5 143.5q0 68 -32.5 118t-85.5 80t-132.5 48
t-159.5 24t-182 6q-154 0 -262.5 -12t-226.5 -45v-672h-195v1311h-573v164h1577z" />
    <glyph glyph-name="uni0403" unicode="&#x403;" horiz-adv-x="1658" 
d="M1143 1905l-273 -287h177l305 287h-209zM1618 1475v-164h-1198v-1311h-195v1475h1393z" />
    <glyph glyph-name="uni0404" unicode="&#x404;" horiz-adv-x="1990" 
d="M1878 332q-119 -92 -296.5 -143.5t-395.5 -51.5q-260 0 -454.5 63.5t-308 190.5t-124.5 305h1241v164h-1229q34 153 155.5 261.5t305 162t414.5 53.5q223 0 394 -54.5t280 -139.5v209q-274 153 -674 153q-234 0 -433 -52.5t-343.5 -149t-226 -242.5t-81.5 -324
q0 -238 136.5 -413t380.5 -265t567 -90q416 0 692 154v209z" />
    <glyph glyph-name="uni0405" unicode="&#x405;" horiz-adv-x="1898" 
d="M987 836q-440 71 -579.5 114t-139.5 133q0 116 193 186t508 70q225 0 435 -47.5t339 -126.5v195q-137 66 -341.5 105.5t-432.5 39.5q-409 0 -648 -115t-239 -307q0 -60 13.5 -103.5t52 -81.5t95.5 -66t154 -56t218 -51t298 -51q173 -27 285.5 -48.5t201 -45.5
t135.5 -49.5t70 -56t23 -71.5q0 -72 -61 -125.5t-165 -83t-224 -43.5t-256 -14q-233 0 -470.5 54t-361.5 141v-193q111 -73 352.5 -121.5t470.5 -48.5q199 0 362 26.5t285 78.5t189.5 136t67.5 193q0 76 -27.5 131.5t-83 99t-158 78.5t-233.5 64t-328 60z" />
    <glyph glyph-name="uni0406" unicode="&#x406;" horiz-adv-x="645" 
d="M420 0h-195v1475h195v-1475z" />
    <glyph glyph-name="uni0407" unicode="&#x407;" horiz-adv-x="645" 
d="M160 1866q-53 0 -89 -35t-36 -86t36 -85t89 -34t89 34t36 85t-36 86t-89 35zM483 1866q-53 0 -89 -35t-36 -86t36 -85t89 -34t89 34t36 85t-36 86t-89 35zM420 0h-195v1475h195v-1475z" />
    <glyph glyph-name="uni0408" unicode="&#x408;" horiz-adv-x="1456" 
d="M51 127q75 -66 219.5 -112t309.5 -46q107 0 203 18.5t191 66.5t164 122t111.5 193t42.5 272v834h-194v-795q0 -134 -31.5 -235t-81 -160t-121.5 -95.5t-141.5 -48.5t-153.5 -12q-157 0 -298 61.5t-220 145.5v-209z" />
    <glyph glyph-name="uni0409" unicode="&#x409;" horiz-adv-x="3069" 
d="M82 -25q31 -6 74 -6q166 0 264.5 108.5t144 346t45.5 637.5v250h865v-1311h796q165 0 292 27t204 70.5t126 104.5t67 122.5t18 132.5q0 59 -13 111.5t-43 105.5t-84 95t-129.5 75t-187 51t-250.5 18h-602v562h-1241v-388q0 -228 -14 -396t-38 -272.5t-62 -167.5
t-80 -86.5t-97 -23.5q-43 0 -55 4v-170zM2271 750q268 0 388 -79.5t120 -213.5t-120 -213.5t-388 -79.5h-602v586h602z" />
    <glyph glyph-name="uni040A" unicode="&#x40a;" horiz-adv-x="3018" 
d="M420 733h1024v-733h776q165 0 292 26t204 67.5t126 101.5t67 120.5t18 130.5q0 72 -18 133t-67 120.5t-126 101t-203.5 67t-292.5 25.5h-582v582h-194v-582h-1024v582h-195v-1475h195v733zM2220 733q508 0 508 -287q0 -286 -508 -286h-582v573h582z" />
    <glyph glyph-name="uni040B" unicode="&#x40b;" horiz-adv-x="2201" 
d="M1608 1475v-164h-809v-461q214 53 493 53q382 0 579 -145.5t197 -438.5v-319h-194v272q0 108 -29.5 189t-80.5 131.5t-128.5 81.5t-163 43t-194.5 12q-274 0 -479 -57v-672h-195v1311h-573v164h1577z" />
    <glyph glyph-name="uni040C" unicode="&#x40c;" horiz-adv-x="1992" 
d="M1171 1905l-272 -287h176l305 287h-209zM420 1475v-607h41l1411 637v-170l-1249 -561v-33l1370 -741h-365l-1169 633h-39v-633h-195v1475h195z" />
    <glyph glyph-name="uni040E" unicode="&#x40e;" horiz-adv-x="1785" 
d="M1229 1919q0 -75 -76 -132.5t-213 -57.5t-213 57.5t-76 132.5h-153q0 -60 29 -115.5t82.5 -101t139.5 -73t191 -27.5t191 27.5t139.5 73t82.5 101t29 115.5h-153zM899 573h59l623 902h205l-1018 -1475h-205l258 375l-821 1100h227z" />
    <glyph glyph-name="uni040F" unicode="&#x40f;" horiz-adv-x="1955" 
d="M891 -287h174v287h666v1475h-195v-1311h-1116v1311h-195v-1475h666v-287z" />
    <glyph glyph-name="uni0410" unicode="&#x410;" horiz-adv-x="2189" 
d="M1239 1475l928 -1475h-230l-268 428h-1143l-272 -428h-211l940 1475h256zM1118 1300h-35l-452 -708h934z" />
    <glyph glyph-name="uni0411" unicode="&#x411;" horiz-adv-x="1974" 
d="M1176 0q138 0 250 18t187.5 50.5t129.5 73t83.5 90.5t42.5 98.5t13 101.5q0 69 -18 128t-66.5 116.5t-125.5 97.5t-203.5 65t-292.5 25h-756v447h1298v164h-1493v-1475h951zM1176 700q137 0 238 -21.5t158.5 -59.5t84 -84.5t26.5 -102.5t-26.5 -102.5t-84 -84.5
t-158.5 -59.5t-238 -21.5h-756v536h756z" />
    <glyph glyph-name="uni0412" unicode="&#x412;" horiz-adv-x="1986" 
d="M1151 1475q647 0 647 -385q0 -105 -72.5 -186.5t-171.5 -121.5q65 -16 123 -45t108 -72t79.5 -105t29.5 -134q0 -89 -40.5 -164.5t-122 -135t-218 -93t-315.5 -33.5h-973v1475h926zM1167 846q211 0 320.5 59t109.5 170q0 112 -110.5 174t-319.5 62h-751v-465h751z
M1214 164q244 0 362 72t118 190q0 117 -117.5 186.5t-362.5 69.5h-798v-518h798z" />
    <glyph glyph-name="uni0413" unicode="&#x413;" horiz-adv-x="1658" 
d="M1618 1475v-164h-1198v-1311h-195v1475h1393z" />
    <glyph glyph-name="uni0414" unicode="&#x414;" horiz-adv-x="2101" 
d="M227 164q56 57 94.5 130t70 195t46.5 310.5t15 451.5v224h1362v-1311h235v-451h-174v287h-1671v-287h-174v451h196zM1620 1311h-985v-92q0 -802 -174 -1055h1159v1147z" />
    <glyph glyph-name="uni0415" unicode="&#x415;" horiz-adv-x="1914" 
d="M1772 1475v-164h-1352v-449h1167v-164h-1167v-534h1352v-164h-1547v1475h1547z" />
    <glyph glyph-name="uni0416" unicode="&#x416;" horiz-adv-x="2625" 
d="M971 752l-879 561v192l1075 -686h43v656h195v-656h43l1075 686v-186l-876 -559v-29l979 -731h-299l-879 662h-43v-662h-195v662h-45l-880 -662h-285l971 723v29z" />
    <glyph glyph-name="uni0417" unicode="&#x417;" horiz-adv-x="1875" 
d="M113 158q118 -85 336 -137t481 -52q395 0 614 119.5t219 333.5q0 142 -108 234.5t-297 127.5q175 55 263.5 133.5t88.5 206.5q0 81 -48 149t-141.5 120.5t-245.5 82t-347 29.5q-255 0 -461.5 -59.5t-343.5 -149.5v-196q137 109 344 176t463 67q275 0 430.5 -68
t155.5 -175q0 -103 -133 -170.5t-377 -67.5h-535v-164h535q278 0 420.5 -70.5t142.5 -205.5q0 -137 -167.5 -215t-471.5 -78q-275 0 -487.5 59t-329.5 152v-182z" />
    <glyph glyph-name="uni0418" unicode="&#x418;" horiz-adv-x="2144" 
d="M420 1475v-1291h41l1165 1291h293v-1475h-195v1288h-45l-1163 -1288h-291v1475h195z" />
    <glyph glyph-name="uni0419" unicode="&#x419;" horiz-adv-x="2144" 
d="M1356 1921q0 -75 -76 -132.5t-213 -57.5t-213 57.5t-76 132.5h-153q0 -60 29 -115.5t82.5 -101t139.5 -73t191 -27.5t191 27.5t139.5 73t82.5 101t29 115.5h-153zM420 1475v-1291h41l1165 1291h293v-1475h-195v1288h-45l-1163 -1288h-291v1475h195z" />
    <glyph glyph-name="uni041A" unicode="&#x41a;" horiz-adv-x="1992" 
d="M420 1475v-607h41l1411 637v-170l-1249 -561v-33l1370 -741h-365l-1169 633h-39v-633h-195v1475h195z" />
    <glyph glyph-name="uni041B" unicode="&#x41b;" horiz-adv-x="2015" 
d="M82 145q12 -4 55 -4q55 0 97 23.5t80 86.5t62 167.5t38 272.5t14 396v388h1362v-1475h-195v1311h-985v-250q0 -400 -45.5 -637.5t-144 -346t-264.5 -108.5q-43 0 -74 6v170z" />
    <glyph glyph-name="uni041C" unicode="&#x41c;" horiz-adv-x="2572" 
d="M571 1475l709 -1293h45l690 1293h332v-1475h-195v1288h-49l-686 -1288h-248l-706 1288h-49v-1288h-189v1475h346z" />
    <glyph glyph-name="uni041D" unicode="&#x41d;" horiz-adv-x="2140" 
d="M420 1475v-613h1300v613h195v-1475h-195v698h-1300v-698h-195v1475h195z" />
    <glyph glyph-name="uni041E" unicode="&#x41e;" horiz-adv-x="2244" 
d="M1122 1505q-223 0 -414.5 -60t-323.5 -163t-207 -244t-75 -301q0 -133 47.5 -252t137.5 -212.5t214 -162t283 -105t338 -36.5t338 36.5t283 105t214 162t137.5 212.5t47.5 252q0 160 -75 301t-207 244t-323.5 163t-414.5 60zM1122 1337q180 0 336 -48t262.5 -129
t167 -191t60.5 -232q0 -121 -60.5 -231t-167 -191.5t-262.5 -129.5t-336 -48t-335.5 48t-262 129.5t-167 191.5t-60.5 231q0 122 60.5 232t167 191t262 129t335.5 48z" />
    <glyph glyph-name="uni041F" unicode="&#x41f;" horiz-adv-x="2088" 
d="M1864 1475v-1475h-195v1311h-1249v-1311h-195v1475h1639z" />
    <glyph glyph-name="uni0420" unicode="&#x420;" horiz-adv-x="1923" 
d="M1145 1475q165 0 292 -25.5t204 -67t125.5 -100.5t66.5 -119t18 -129q0 -65 -18 -123.5t-67 -118t-125.5 -102t-203.5 -69.5t-292 -27h-725v-594h-195v1475h920zM1145 758q268 0 388 75t120 201t-120 201.5t-388 75.5h-725v-553h725z" />
    <glyph glyph-name="uni0421" unicode="&#x421;" horiz-adv-x="1970" 
d="M1868 338q-116 -97 -287.5 -149t-376.5 -52q-214 0 -388 48t-286 130.5t-172.5 191t-60.5 230.5q0 98 37.5 187t113.5 164t183 130t254 86t319 31q207 0 372 -53.5t273 -142.5v209q-243 155 -645 155q-203 0 -380 -40t-308 -111t-225 -167t-141.5 -210t-47.5 -238
q0 -166 75.5 -307.5t214.5 -244t348 -160.5t464 -58q428 0 664 160v211z" />
    <glyph glyph-name="uni0422" unicode="&#x422;" horiz-adv-x="1853" 
d="M1823 1475v-164h-799v-1311h-195v1311h-798v164h1792z" />
    <glyph glyph-name="uni0423" unicode="&#x423;" horiz-adv-x="1785" 
d="M899 573h59l623 902h205l-1018 -1475h-205l258 375l-821 1100h227z" />
    <glyph glyph-name="uni0424" unicode="&#x424;" horiz-adv-x="2451" 
d="M51 750q0 93 39.5 178.5t125 161.5t210 133.5t305 93.5t399.5 43v135h195v-135q219 -6 399 -42t304 -93t209 -133.5t124 -162t39 -179.5q0 -93 -39 -178.5t-124 -162.5t-209 -134.5t-304 -93.5t-399 -42v-159h-195v159q-219 7 -399.5 44t-305 94.5t-210 133.5t-125 161
t-39.5 178zM248 750q0 -65 30 -125.5t98 -117t168 -99.5t250.5 -71t335.5 -34v893q-230 -7 -405 -47.5t-276.5 -103.5t-151 -137.5t-49.5 -157.5zM1325 303q186 5 336.5 33t250 71t166.5 100t96.5 117.5t29.5 125.5q0 66 -29.5 126.5t-96.5 117t-167 99t-250 70.5t-336 33
v-893z" />
    <glyph glyph-name="uni0425" unicode="&#x425;" horiz-adv-x="2023" 
d="M838 713l-711 563v229l852 -676h49l838 676v-205l-709 -571v-41l866 -688h-288l-725 575h-43l-713 -575h-254l838 676v37z" />
    <glyph glyph-name="uni0426" unicode="&#x426;" horiz-adv-x="1996" 
d="M1772 -287h174v451h-236v1311h-194v-1311h-1096v1311h-195v-1475h1547v-287z" />
    <glyph glyph-name="uni0427" unicode="&#x427;" horiz-adv-x="1914" 
d="M328 1475v-314q0 -110 27 -190t77 -132.5t132.5 -83t181.5 -43t235 -12.5q305 0 514 58v717h195v-1475h-195v588q-232 -58 -528 -58q-434 0 -634 142.5t-200 441.5v361h195z" />
    <glyph glyph-name="uni0428" unicode="&#x428;" horiz-adv-x="2668" 
d="M420 1475v-1311h817v1311h195v-1311h817v1311h194v-1475h-2218v1475h195z" />
    <glyph glyph-name="uni0429" unicode="&#x429;" horiz-adv-x="2729" 
d="M420 1475v-1311h817v1311h195v-1311h817v1311h194v-1311h236v-451h-174v287h-2280v1475h195z" />
    <glyph glyph-name="uni042A" unicode="&#x42a;" horiz-adv-x="2127" 
d="M451 0h878q165 0 292 27t204 70.5t126 104.5t67 122.5t18 132.5q0 59 -13 111.5t-43 105.5t-84 95t-129.5 75t-187 51t-250.5 18h-684v562h-645v-164h451v-1311zM1329 750q268 0 388 -79.5t120 -213.5t-120 -213.5t-388 -79.5h-684v586h684z" />
    <glyph glyph-name="uni042B" unicode="&#x42b;" horiz-adv-x="2547" 
d="M1104 0q165 0 292 27t204 70.5t125.5 104.5t66.5 122.5t18 132.5q0 72 -18 133.5t-66.5 122.5t-125.5 104t-204 69.5t-292 26.5h-684v562h-195v-1475h879zM2322 0h-194v1475h194v-1475zM1104 750q268 0 388 -79.5t120 -213.5t-120 -213.5t-388 -79.5h-684v586h684z" />
    <glyph glyph-name="uni042C" unicode="&#x42c;" horiz-adv-x="1902" 
d="M1104 0q165 0 292 27t204 70.5t125.5 104.5t66.5 122.5t18 132.5q0 72 -18 133.5t-66.5 122.5t-125.5 104t-204 69.5t-292 26.5h-684v562h-195v-1475h879zM1104 750q268 0 388 -79.5t120 -213.5t-120 -213.5t-388 -79.5h-684v586h684z" />
    <glyph glyph-name="uni042D" unicode="&#x42d;" horiz-adv-x="1990" 
d="M113 123q276 -154 692 -154q323 0 566.5 90t380 264.5t136.5 413.5q0 178 -81.5 324t-225.5 242.5t-343 149t-433 52.5q-400 0 -674 -153v-209q109 85 280 139.5t394 54.5q231 0 414.5 -53.5t304.5 -162t155 -261.5h-1228v-164h1241q-11 -178 -124.5 -305t-308 -190.5
t-454.5 -63.5q-218 0 -395.5 51.5t-296.5 143.5v-209z" />
    <glyph glyph-name="uni042E" unicode="&#x42e;" horiz-adv-x="2826" 
d="M420 1475v-613h315q26 139 106 256.5t204.5 203.5t299 134.5t379.5 48.5q182 0 341 -38.5t278.5 -108.5t206 -165t130.5 -211.5t44 -244.5q0 -168 -70 -309.5t-197.5 -243t-316 -158.5t-416.5 -57q-221 0 -405 54t-311.5 150t-200.5 230.5t-82 294.5h-305v-698h-195v1475
h195zM920 737q0 -122 55.5 -230t156.5 -189t254.5 -128t337.5 -47t337.5 47t255 128t157 189t55.5 230q0 123 -55.5 231t-157 189t-254.5 127.5t-338 46.5t-337.5 -46.5t-254 -127.5t-157 -189t-55.5 -231z" />
    <glyph glyph-name="uni042F" unicode="&#x42f;" horiz-adv-x="2048" 
d="M1010 631h-107q-117 0 -215.5 14.5t-168 38.5t-123.5 58.5t-87 71.5t-54.5 79.5t-29.5 81t-8 78.5t8 78.5t29.5 81t54.5 79.5t87 71.5t123.5 58.5t168 38.5t215.5 14.5h920v-1475h-195v631h-276l-946 -629h-304l908 600v29zM416 1053q0 -38 12.5 -72t46.5 -69t87 -60
t140.5 -41t200.5 -16h725v516h-725q-113 0 -200.5 -16t-140.5 -41t-87 -60t-46.5 -69t-12.5 -72z" />
    <glyph glyph-name="uni0430" unicode="&#x430;" horiz-adv-x="1626" 
d="M82 293q0 -165 154.5 -244.5t431.5 -79.5q231 0 386 61.5t259 176.5v-207h180v670q0 112 -54 195.5t-153.5 133t-230 73.5t-293.5 24q-175 0 -337 -36.5t-280 -111.5v-188q104 82 264 130t347 48q282 0 422.5 -59.5t140.5 -155.5q0 -67 -99 -85.5t-408 -31.5
q-37 -2 -58.5 -3t-56.5 -2.5t-66 -2.5q-289 -13 -419 -89t-130 -216zM1313 514q0 -123 -86 -212t-224.5 -132t-310.5 -43q-413 0 -413 166q0 83 94 119.5t293 42.5q351 11 455 24q140 18 192 58v-23z" />
    <glyph glyph-name="uni0431" unicode="&#x431;" horiz-adv-x="1742" 
d="M918 1034q163 0 303 -41.5t236 -113t150 -169t54 -208.5q0 -110 -57.5 -208.5t-158.5 -170t-246 -113t-312 -41.5q-237 0 -414.5 74.5t-271.5 224.5q-88 142 -88 385q0 159 27.5 278.5t91 215.5t167.5 157.5t256 95t357 36.5q404 7 530 39v-158q-115 -33 -530 -39
q-166 -2 -289.5 -25.5t-204.5 -64t-131.5 -103.5t-73 -136t-26.5 -169q208 254 631 254zM887 127q260 0 423 106.5t163 268.5t-163 268.5t-423 106.5t-423 -106.5t-163 -268.5t163 -268.5t423 -106.5z" />
    <glyph glyph-name="uni0432" unicode="&#x432;" horiz-adv-x="1589" 
d="M969 1065q230 0 349.5 -76.5t119.5 -206.5q0 -144 -162 -227q94 -26 157.5 -88t63.5 -156q0 -133 -124.5 -222t-368.5 -89h-840v1065h805zM981 614q140 0 202 42t62 108q0 147 -264 147h-637v-297h637zM1012 154q293 0 293 157q0 70 -71 110t-222 40h-668v-307h668z" />
    <glyph glyph-name="uni0433" unicode="&#x433;" horiz-adv-x="1286" 
d="M1225 1065v-154h-877v-911h-184v1065h1061z" />
    <glyph glyph-name="uni0434" unicode="&#x434;" horiz-adv-x="1701" 
d="M201 154q36 44 60.5 95t49.5 144t38 245t13 361v66h1104v-911h215v-420h-163v266h-1334v-266h-164v420h181zM1282 911h-754q-11 -549 -129 -757h883v757z" />
    <glyph glyph-name="uni0435" unicode="&#x435;" horiz-adv-x="1679" 
d="M82 532q0 -280 220.5 -421.5t653.5 -141.5q154 0 304.5 31.5t259.5 87.5v170q-107 -64 -255 -99.5t-309 -35.5q-334 0 -508 95t-180 300h1329v25q0 114 -54.5 215t-152 176t-240 118.5t-310.5 43.5q-167 0 -310 -44.5t-240.5 -120.5t-152.5 -179.5t-55 -219.5zM289 651
q49 134 195 217.5t356 83.5q218 0 363 -84t190 -217h-1104z" />
    <glyph glyph-name="uni0436" unicode="&#x436;" horiz-adv-x="2084" 
d="M721 569l-559 349v178l739 -463h37v432h188v-432h37l740 463v-166l-557 -348v-31l739 -551h-266l-645 481h-48v-481h-188v481h-47l-645 -481h-246l721 537v32z" />
    <glyph glyph-name="uni0437" unicode="&#x437;" horiz-adv-x="1515" 
d="M113 125q215 -156 604 -156q148 0 274 22t223.5 65t153 112.5t55.5 159.5q0 178 -209 239q70 33 116 93t46 124q0 98 -88.5 169.5t-236.5 107t-336 35.5q-201 0 -356.5 -41.5t-229.5 -106.5v-162q80 71 235.5 115.5t350.5 44.5q137 0 239.5 -16t167 -54.5t64.5 -95.5
q0 -61 -69 -104t-161 -43h-606v-154h598q291 0 291 -151q0 -52 -40.5 -92t-112 -65.5t-165 -38.5t-204.5 -13q-371 0 -604 166v-160z" />
    <glyph glyph-name="uni0438" unicode="&#x438;" horiz-adv-x="1595" 
d="M348 1065v-881h45l768 881h271v-1065h-185v881h-47l-768 -881h-268v1065h184z" />
    <glyph glyph-name="uni0439" unicode="&#x439;" horiz-adv-x="1595" 
d="M1081 1544q0 -89 -76 -154t-214 -65t-214.5 65t-76.5 154h-162q0 -67 29.5 -129t85 -111.5t143 -79.5t195.5 -30t195.5 29.5t142.5 79.5t84.5 112t29.5 129h-162zM348 1065v-881h45l768 881h271v-1065h-185v881h-47l-768 -881h-268v1065h184z" />
    <glyph glyph-name="uni043A" unicode="&#x43a;" horiz-adv-x="1495" 
d="M348 1065v-410h45l959 441v-158l-801 -369v-39l944 -530h-324l-776 436h-47v-436h-184v1065h184z" />
    <glyph glyph-name="uni043B" unicode="&#x43b;" horiz-adv-x="1579" 
d="M51 135q18 -6 49 -6q50 0 87 42.5t66 139.5t43.5 269.5t14.5 418.5v66h1104v-1065h-184v915h-756q-4 -367 -46 -575.5t-119.5 -289.5t-207.5 -81q-35 0 -51 4v162z" />
    <glyph glyph-name="uni043C" unicode="&#x43c;" horiz-adv-x="1990" 
d="M496 1065l503 -909h39l473 909h316v-1065h-187v903h-38l-469 -903h-240l-500 903h-41v-903h-188v1065h332z" />
    <glyph glyph-name="uni043D" unicode="&#x43d;" horiz-adv-x="1617" 
d="M348 1065v-426h922v426h184v-1065h-184v485h-922v-485h-184v1065h184z" />
    <glyph glyph-name="uni043E" unicode="&#x43e;" horiz-adv-x="1712" 
d="M856 1096q-167 0 -312 -44.5t-246 -120t-158.5 -179.5t-57.5 -220q0 -157 97.5 -285.5t275.5 -203t401 -74.5q167 0 312 44t246 120t158.5 179.5t57.5 219.5t-57.5 220t-158.5 179.5t-246 120t-312 44.5zM856 938q259 0 422.5 -116t163.5 -290t-163.5 -289.5
t-422.5 -115.5t-422.5 115.5t-163.5 289.5t163.5 290t422.5 116z" />
    <glyph glyph-name="uni043F" unicode="&#x43f;" horiz-adv-x="1556" 
d="M1393 1065v-1065h-185v911h-860v-911h-184v1065h1229z" />
    <glyph glyph-name="uni0440" unicode="&#x440;" horiz-adv-x="1759" 
d="M348 1065v-188q241 219 592 219q165 0 304 -44t233.5 -120.5t147 -179.5t52.5 -220q0 -109 -54.5 -210.5t-150 -180t-237 -125.5t-305.5 -47q-347 0 -582 217v-596h-184v1475h184zM317 532q0 -174 163.5 -289.5t422.5 -115.5t422.5 115.5t163.5 289.5t-163.5 290
t-422.5 116t-422.5 -116t-163.5 -290z" />
    <glyph glyph-name="uni0441" unicode="&#x441;" horiz-adv-x="1449" 
d="M1368 248q-163 -121 -457 -121q-290 0 -465.5 112.5t-175.5 292.5t176 293t465 113q283 0 447 -121v182q-186 97 -447 97q-181 0 -336.5 -43.5t-263 -118.5t-168.5 -179t-61 -223q0 -169 103.5 -297t291.5 -197t434 -69q279 0 457 94v185z" />
    <glyph glyph-name="uni0442" unicode="&#x442;" horiz-adv-x="1437" 
d="M1397 1065v-154h-586v-911h-184v911h-586v154h1356z" />
    <glyph glyph-name="uni0443" unicode="&#x443;" horiz-adv-x="1468" 
d="M743 256h58l483 809h184l-880 -1475h-185l265 445l-668 1030h219z" />
    <glyph glyph-name="uni0444" unicode="&#x444;" horiz-adv-x="1961" 
d="M82 532q0 -231 220 -386t587 -175v-381h184v381q367 20 587 175t220 386t-220 386.5t-587 175.5v381h-184v-381q-367 -20 -587 -175.5t-220 -386.5zM256 532q-6 167 167.5 279t465.5 129v-815q-288 17 -457.5 127.5t-175.5 279.5zM1073 940q288 -17 457.5 -128
t175.5 -280q6 -167 -167.5 -278.5t-465.5 -128.5v815z" />
    <glyph glyph-name="uni0445" unicode="&#x445;" horiz-adv-x="1613" 
d="M635 516l-526 383v197l661 -482h43l637 482v-174l-514 -390v-38l678 -494h-271l-544 397h-41l-527 -397h-231l635 479v37z" />
    <glyph glyph-name="uni0446" unicode="&#x446;" horiz-adv-x="1628" 
d="M1444 -266h164v420h-215v911h-185v-911h-860v911h-184v-1065h1280v-266z" />
    <glyph glyph-name="uni0447" unicode="&#x447;" horiz-adv-x="1452" 
d="M276 1065v-211q0 -71 18 -123t51.5 -86t88.5 -54t120.5 -28t154.5 -8q107 0 224.5 12t170.5 31v467h184v-1065h-184v444q-61 -17 -179.5 -30t-224.5 -13q-302 0 -455 99t-153 321v244h184z" />
    <glyph glyph-name="uni0448" unicode="&#x448;" horiz-adv-x="2109" 
d="M348 1065v-911h615v911h184v-911h614v911h185v-1065h-1782v1065h184z" />
    <glyph glyph-name="uni0449" unicode="&#x449;" horiz-adv-x="2181" 
d="M348 1065v-911h615v911h184v-911h614v911h185v-911h215v-420h-164v266h-1833v1065h184z" />
    <glyph glyph-name="uni044A" unicode="&#x44a;" horiz-adv-x="1720" 
d="M553 1065v-391h592q120 0 213 -19.5t150.5 -51t94.5 -76.5t51.5 -91t14.5 -98t-14.5 -98.5t-51.5 -91.5t-94.5 -77t-150.5 -51.5t-213 -19.5h-776v911h-349v154h533zM1145 154q334 0 334 184q0 182 -334 182h-592v-366h592z" />
    <glyph glyph-name="uni044B" unicode="&#x44b;" horiz-adv-x="1986" 
d="M348 674h592q120 0 213 -19.5t150.5 -51t94.5 -76.5t51.5 -91t14.5 -98t-14.5 -98.5t-51.5 -91.5t-94.5 -77t-150.5 -51.5t-213 -19.5h-776v1065h184v-391zM1638 0v1065h185v-1065h-185zM940 154q334 0 334 184q0 182 -334 182h-592v-366h592z" />
    <glyph glyph-name="uni044C" unicode="&#x44c;" horiz-adv-x="1515" 
d="M348 674h592q120 0 213 -19.5t150.5 -51t94.5 -76.5t51.5 -91t14.5 -98t-14.5 -98.5t-51.5 -91.5t-94.5 -77t-150.5 -51.5t-213 -19.5h-776v1065h184v-391zM940 154q334 0 334 184q0 182 -334 182h-592v-366h592z" />
    <glyph glyph-name="uni044D" unicode="&#x44d;" horiz-adv-x="1531" 
d="M82 63q199 -94 506 -94q147 0 275 20.5t236.5 65t186 110t121 159t43.5 208.5q0 176 -115.5 305.5t-309 194t-437.5 64.5q-304 0 -496 -97v-178q170 125 496 125q170 0 307.5 -34t233.5 -106.5t126 -176.5h-804v-154h815q-19 -116 -114.5 -197.5t-239.5 -120t-324 -38.5
q-325 0 -506 125v-181z" />
    <glyph glyph-name="uni044E" unicode="&#x44e;" horiz-adv-x="2146" 
d="M348 485h211q14 -147 112.5 -264t266 -184.5t373.5 -67.5q162 0 303.5 44t239.5 120t154 179.5t56 219.5t-56 220t-154 179.5t-239.5 120t-303.5 44.5q-289 0 -492 -128.5t-250 -328.5h-221v426h-184v-1065h184v485zM745 532q0 174 158 290t408 116t407.5 -116
t157.5 -290t-157.5 -289.5t-407.5 -115.5t-408 115.5t-158 289.5z" />
    <glyph glyph-name="uni044F" unicode="&#x44f;" horiz-adv-x="1613" 
d="M631 440q-136 1 -235.5 27.5t-153 72t-77.5 98t-24 114.5q0 63 24.5 116t79 99t155 72t239.5 26h811v-1065h-184v440h-338l-617 -440h-250l570 408v32zM326 752q0 -166 313 -166h627v334h-627q-313 0 -313 -168z" />
    <glyph glyph-name="uni0451" unicode="&#x451;" horiz-adv-x="1679" 
d="M596 1499q-61 0 -103 -35t-42 -86t41.5 -84.5t103.5 -33.5t103.5 33.5t41.5 84.5t-42 86t-103 35zM1108 1499q-61 0 -103 -35t-42 -86t41.5 -84.5t103.5 -33.5t103.5 33.5t41.5 84.5t-42 86t-103 35zM82 532q0 -280 220.5 -421.5t653.5 -141.5q154 0 304.5 31.5
t259.5 87.5v170q-107 -64 -255 -99.5t-309 -35.5q-334 0 -508 95t-180 300h1329v25q0 114 -54.5 215t-152 176t-240 118.5t-310.5 43.5q-167 0 -310 -44.5t-240.5 -120.5t-152.5 -179.5t-55 -219.5zM289 651q49 134 195 217.5t356 83.5q218 0 363 -84t190 -217h-1104z" />
    <glyph glyph-name="uni0452" unicode="&#x452;" 
d="M164 1352v123h184v-123h379v-144h-379v-348q87 103 224.5 169.5t324.5 66.5q126 0 229 -30.5t183.5 -94.5t125 -172.5t44.5 -253.5v-553q0 -195 -115.5 -308.5t-312.5 -113.5q-156 0 -256 72v174q110 -88 233 -88q266 0 266 264v522q0 220 -111.5 322t-330.5 102
q-78 0 -146.5 -12t-136 -43.5t-115 -81t-77 -130.5t-29.5 -186v-485h-184v1208h-144v144h144z" />
    <glyph glyph-name="uni0453" unicode="&#x453;" horiz-adv-x="1286" 
d="M924 1550l-324 -348h195l358 348h-229zM1225 1065v-154h-877v-911h-184v1065h1061z" />
    <glyph glyph-name="uni0454" unicode="&#x454;" horiz-adv-x="1531" 
d="M1450 244q-181 -125 -506 -125q-180 0 -324 38.5t-239.5 120t-114.5 197.5h815v154h-805q30 104 126 176.5t234 106.5t308 34q326 0 496 -125v178q-192 97 -496 97q-244 0 -437.5 -64.5t-309 -194t-115.5 -305.5q0 -115 43.5 -208.5t121 -159t186 -110t236.5 -65
t275 -20.5q307 0 506 94v181z" />
    <glyph glyph-name="uni0455" unicode="&#x455;" horiz-adv-x="1456" 
d="M92 78q83 -44 243.5 -76.5t344.5 -32.5q322 0 508 93t186 247q0 88 -55.5 143t-183.5 91.5t-359 62.5q-308 34 -409 63.5t-101 98.5q0 77 140.5 127.5t369.5 50.5q350 0 543 -110v159q-68 45 -210.5 73t-332.5 28q-320 0 -507 -97t-187 -243q0 -127 135.5 -191.5
t450.5 -99.5q80 -9 137.5 -16t112 -15t91 -15.5t68.5 -16.5t51 -18.5t33 -21.5t19.5 -26t5.5 -31q0 -80 -131 -131t-359 -51q-193 0 -354.5 34t-249.5 87v-166z" />
    <glyph glyph-name="uni0456" unicode="&#x456;" horiz-adv-x="512" 
d="M256 1499q-67 0 -110.5 -35t-43.5 -86t43.5 -84.5t110.5 -33.5t110.5 33.5t43.5 84.5t-43.5 86t-110.5 35zM164 0v1065h184v-1065h-184z" />
    <glyph glyph-name="uni0457" unicode="&#x457;" horiz-adv-x="512" 
d="M12 1378q0 -51 32.5 -84.5t82.5 -33.5t83.5 33.5t33.5 84.5t-34 86t-83 35t-82 -35t-33 -86zM268 1378q0 -51 33.5 -84.5t83.5 -33.5q48 0 81.5 34t33.5 84q0 51 -33.5 86t-81.5 35q-49 0 -83 -35t-34 -86zM164 0v1065h184v-1065h-184z" />
    <glyph glyph-name="uni0458" unicode="&#x458;" horiz-adv-x="512" 
d="M256 1499q-67 0 -110.5 -35t-43.5 -86t43.5 -84.5t110.5 -33.5t110.5 33.5t43.5 84.5t-43.5 86t-110.5 35zM348 -8q0 -195 -115.5 -308.5t-312.5 -113.5q-156 0 -256 72v174q110 -88 234 -88q266 0 266 264v1073h184v-1073z" />
    <glyph glyph-name="uni0459" unicode="&#x459;" horiz-adv-x="2387" 
d="M51 135q18 -6 49 -6q50 0 87 42.5t66 139.5t43.5 269.5t14.5 418.5v66h971v-391h530q120 0 213 -19.5t151 -51.5t95 -76.5t51.5 -90.5t14.5 -98t-14.5 -98.5t-51.5 -91.5t-95 -77t-151 -51.5t-213 -19.5h-714v911h-621q-4 -365 -46 -572.5t-120 -288.5t-209 -81
q-35 0 -51 4v162zM1812 154q334 0 334 184q0 182 -334 182h-530v-366h530z" />
    <glyph glyph-name="uni045A" unicode="&#x45a;" horiz-adv-x="2324" 
d="M348 1065v-422h748v422h184v-422h469q120 0 213 -18t150.5 -47.5t94.5 -72t51.5 -87t14.5 -96.5q0 -43 -10.5 -81t-33 -75t-63.5 -66.5t-97 -52t-137.5 -35t-182.5 -12.5h-653v489h-748v-489h-184v1065h184zM1749 154q179 0 256.5 42.5t77.5 125.5t-77.5 125t-256.5 42
h-469v-335h469z" />
    <glyph glyph-name="uni045B" unicode="&#x45b;" 
d="M164 1352v123h184v-123h379v-144h-379v-350q85 104 222.5 171t326.5 67q126 0 229 -30.5t183.5 -94.5t125 -172.5t44.5 -253.5v-545h-185v514q0 220 -111.5 322t-330.5 102q-78 0 -146.5 -12t-136 -43.5t-115 -81t-77 -130.5t-29.5 -186v-485h-184v1208h-144v144h144z
" />
    <glyph glyph-name="uni045C" unicode="&#x45c;" horiz-adv-x="1495" 
d="M930 1550l-324 -348h195l358 348h-229zM348 1065v-410h45l959 441v-158l-801 -369v-39l944 -530h-324l-776 436h-47v-436h-184v1065h184z" />
    <glyph glyph-name="uni045E" unicode="&#x45e;" horiz-adv-x="1468" 
d="M1034 1546q0 -89 -76.5 -154t-214.5 -65t-214 65t-76 154h-162q0 -67 29.5 -129t84.5 -112t142.5 -79.5t195.5 -29.5t195.5 30t143 79.5t85 111.5t29.5 129h-162zM743 256h58l483 809h184l-880 -1475h-185l265 445l-668 1030h219z" />
    <glyph glyph-name="uni045F" unicode="&#x45f;" horiz-adv-x="1546" 
d="M692 -266h164v266h526v1065h-184v-911h-850v911h-184v-1065h528v-266z" />
    <glyph glyph-name="uni0490" unicode="&#x490;" horiz-adv-x="1658" 
d="M1444 1475v307h174v-471h-1198v-1311h-195v1475h1219z" />
    <glyph glyph-name="uni0491" unicode="&#x491;" horiz-adv-x="1286" 
d="M1061 1065v221h164v-375h-877v-911h-184v1065h897z" />
    <glyph glyph-name="uni0492" unicode="&#x492;" horiz-adv-x="1689" 
d="M256 838v637h1393v-164h-1198v-473h542v-156h-542v-682h-195v682h-184v156h184z" />
    <glyph glyph-name="uni0493" unicode="&#x493;" horiz-adv-x="1337" 
d="M215 594v471h1061v-154h-877v-317h430v-143h-430v-451h-184v451h-143v143h143z" />
    <glyph glyph-name="uni0496" unicode="&#x496;" horiz-adv-x="2646" 
d="M971 752l-879 561v192l1075 -686h43v656h195v-656h43l1075 686v-186l-876 -559v-35l757 -561h242v-451h-174v287h-145l-887 662h-35v-662h-195v662h-39l-886 -662h-285l971 719v33z" />
    <glyph glyph-name="uni0497" unicode="&#x497;" horiz-adv-x="2095" 
d="M721 569l-559 349v178l739 -463h37v432h188v-432h37l740 463v-166l-557 -348v-31l532 -397h217v-420h-164v266h-112l-645 481h-48v-481h-188v481h-47l-645 -481h-246l721 537v32z" />
    <glyph glyph-name="uni0498" unicode="&#x498;" horiz-adv-x="1875" 
d="M113 158q107 -77 296 -127.5t420 -59.5v-258h175v258q361 10 560 129t199 322q0 142 -108 234.5t-297 127.5q175 55 263.5 133.5t88.5 206.5q0 81 -48 149t-141.5 120.5t-245.5 82t-347 29.5q-255 0 -461.5 -59.5t-343.5 -149.5v-196q137 109 344 176t463 67
q275 0 430.5 -68t155.5 -175q0 -103 -133 -170.5t-377 -67.5h-535v-164h535q278 0 420.5 -70.5t142.5 -205.5q0 -137 -167.5 -215t-471.5 -78q-275 0 -487.5 59t-329.5 152v-182z" />
    <glyph glyph-name="uni0499" unicode="&#x499;" horiz-adv-x="1515" 
d="M113 125q210 -151 573 -156v-235h164v239q167 13 293 54.5t203 118.5t77 182q0 178 -209 239q70 33 116 93t46 124q0 98 -88.5 169.5t-236.5 107t-336 35.5q-201 0 -356.5 -41.5t-229.5 -106.5v-162q80 71 235.5 115.5t350.5 44.5q137 0 239.5 -16t167 -54.5t64.5 -95.5
q0 -61 -69 -104t-161 -43h-606v-154h598q291 0 291 -151q0 -52 -40.5 -92t-112 -65.5t-165 -38.5t-204.5 -13q-371 0 -604 166v-160z" />
    <glyph glyph-name="uni049A" unicode="&#x49a;" horiz-adv-x="2033" 
d="M420 1475v-607h41l1411 637v-166l-1231 -555v-43l1137 -577h256v-451h-174v287h-134l-1257 641h-49v-641h-195v1475h195z" />
    <glyph glyph-name="uni049B" unicode="&#x49b;" horiz-adv-x="1519" 
d="M348 1065v-410h45l959 441v-158l-793 -365v-43l737 -376h224v-420h-164v266h-113l-842 436h-53v-436h-184v1065h184z" />
    <glyph glyph-name="uni049C" unicode="&#x49c;" horiz-adv-x="2355" 
d="M420 1475v-641h158v315h157v-315h92l1407 671v-170l-1167 -555v-39l1288 -741h-346l-1149 670h-125v-361h-157v361h-158v-670h-195v1475h195z" />
    <glyph glyph-name="uni049D" unicode="&#x49d;" horiz-adv-x="1824" 
d="M348 1065v-438h135v256h148v-256h100l950 469v-156l-737 -365v-45l881 -530h-322l-776 473h-96v-262h-148v262h-135v-473h-184v1065h184z" />
    <glyph glyph-name="uni04A0" unicode="&#x4a0;" horiz-adv-x="2586" 
d="M1014 1475v-607h41l1411 637v-170l-1249 -561v-33l1370 -741h-365l-1169 633h-39v-633h-195v1311h-819v164h1014z" />
    <glyph glyph-name="uni04A1" unicode="&#x4a1;" horiz-adv-x="1961" 
d="M815 1065v-410h45l959 441v-158l-801 -369v-39l944 -530h-324l-776 436h-47v-436h-184v911h-631v154h815z" />
    <glyph glyph-name="uni04A2" unicode="&#x4a2;" horiz-adv-x="2201" 
d="M420 1475v-613h1300v613h195v-1311h235v-451h-174v287h-256v698h-1300v-698h-195v1475h195z" />
    <glyph glyph-name="uni04A3" unicode="&#x4a3;" horiz-adv-x="1689" 
d="M348 1065v-426h922v426h184v-911h215v-420h-164v266h-235v485h-922v-485h-184v1065h184z" />
    <glyph glyph-name="uni04AA" unicode="&#x4aa;" horiz-adv-x="1970" 
d="M102 739q0 -207 122.5 -375t346 -270.5t514.5 -120.5v-260h175v256q389 13 608 160v211q-116 -97 -287.5 -149t-376.5 -52q-199 0 -370.5 48.5t-288 130t-182.5 191t-66 230.5t66 230t182.5 190.5t288 129.5t370.5 48q207 0 372 -53.5t273 -142.5v209q-243 155 -645 155
q-192 0 -365 -40t-306 -111.5t-230.5 -166.5t-149 -210t-51.5 -238z" />
    <glyph glyph-name="uni04AB" unicode="&#x4ab;" horiz-adv-x="1449" 
d="M82 532q0 -153 91.5 -275t252.5 -194t369 -90v-239h163v235q249 10 410 94v185q-163 -121 -457 -121q-183 0 -329 51t-229 144t-83 210t83 210t229 144.5t329 51.5q283 0 447 -121v182q-186 97 -447 97q-232 0 -422.5 -74t-298.5 -203.5t-108 -286.5z" />
    <glyph glyph-name="uni04AE" unicode="&#x4ae;" horiz-adv-x="1845" 
d="M928 696h45l657 779h215l-805 -955v-520h-194v520l-846 955h238z" />
    <glyph glyph-name="uni04AF" unicode="&#x4af;" horiz-adv-x="1382" 
d="M702 264h39l457 801h184l-577 -1014v-461h-184v457l-621 1018h215z" />
    <glyph glyph-name="uni04B0" unicode="&#x4b0;" horiz-adv-x="1845" 
d="M928 696h45l657 779h215l-803 -951h361v-147h-363v-377h-194v377h-363v147h359l-842 951h238z" />
    <glyph glyph-name="uni04B1" unicode="&#x4b1;" horiz-adv-x="1382" 
d="M702 264h39l457 801h184l-522 -918h293v-147h-348v-410h-184v410h-353v147h291l-559 918h215z" />
    <glyph glyph-name="uni04B2" unicode="&#x4b2;" horiz-adv-x="2023" 
d="M838 713l-711 563v229l852 -676h49l838 676v-205l-709 -571v-41l660 -524h204v-162l2 -2h-2v-287h-174v287h-112l-725 575h-43l-713 -575h-254l838 676v37z" />
    <glyph glyph-name="uni04B3" unicode="&#x4b3;" horiz-adv-x="1615" 
d="M635 516l-526 383v197l661 -482h43l637 482v-174l-514 -390v-38l461 -336h219v-424h-164v266h-109l-544 397h-41l-527 -397h-231l635 479v37z" />
    <glyph glyph-name="uni04B6" unicode="&#x4b6;" horiz-adv-x="1976" 
d="M328 1475v-314q0 -110 27 -190t77 -132.5t132.5 -83t181.5 -43t235 -12.5q305 0 514 58v717h195v-1311h235v-451h-174v287h-256v592q-226 -62 -528 -62q-434 0 -634 142.5t-200 441.5v361h195z" />
    <glyph glyph-name="uni04B7" unicode="&#x4b7;" horiz-adv-x="1523" 
d="M276 1065v-211q0 -71 18 -123t51.5 -86t88.5 -54t120.5 -28t154.5 -8q107 0 224.5 12t170.5 31v467h184v-907h215v-424h-164v266h-235v444q-61 -17 -179.5 -30t-224.5 -13q-302 0 -455 99t-153 321v244h184z" />
    <glyph glyph-name="uni04B8" unicode="&#x4b8;" horiz-adv-x="1914" 
d="M328 1475v-314q0 -121 31 -205t97 -136.5t156.5 -79t221.5 -35.5v321h167v-326q301 4 494 58v717h195v-1475h-195v592q-220 -59 -494 -62v-344h-167v349q-364 20 -532.5 161.5t-168.5 417.5v361h195z" />
    <glyph glyph-name="uni04B9" unicode="&#x4b9;" horiz-adv-x="1452" 
d="M276 1065v-211q0 -157 86 -223t269 -74v256h147v-256q238 8 326 41v467h184v-1065h-184v444q-113 -31 -326 -41v-262h-147v262q-268 9 -403.5 108.5t-135.5 309.5v244h184z" />
    <glyph glyph-name="uni04BA" unicode="&#x4ba;" horiz-adv-x="1914" 
d="M1587 0v313q0 110 -27 190t-77 132.5t-132.5 83t-181.5 43t-235 12.5q-309 0 -514 -57v-717h-195v1475h195v-588q228 57 528 57q434 0 634 -142.5t200 -441.5v-360h-195z" />
    <glyph glyph-name="uni04BB" unicode="&#x4bb;" 
d="M348 1475v-617q85 104 222.5 171t326.5 67q126 0 229 -30.5t183.5 -94.5t125 -172.5t44.5 -253.5v-545h-185v514q0 220 -111.5 322t-330.5 102q-78 0 -146.5 -12t-136 -43.5t-115 -81t-77 -130.5t-29.5 -186v-485h-184v1475h184z" />
    <glyph glyph-name="uni04C0" unicode="&#x4c0;" horiz-adv-x="645" 
d="M420 0h-195v1475h195v-1475z" />
    <glyph glyph-name="uni04C1" unicode="&#x4c1;" horiz-adv-x="2625" 
d="M1604 1921q0 -75 -76 -132.5t-213 -57.5t-213 57.5t-76 132.5h-154q0 -60 29 -115.5t83 -101t140 -73t191 -27.5t191 27.5t139.5 73t82.5 101t29 115.5h-153zM971 752l-879 561v192l1075 -686h43v656h195v-656h43l1075 686v-186l-876 -559v-29l979 -731h-299l-879 662
h-43v-662h-195v662h-45l-880 -662h-285l971 723v29z" />
    <glyph glyph-name="uni04C2" unicode="&#x4c2;" horiz-adv-x="2084" 
d="M1321 1546q0 -89 -76.5 -154t-214.5 -65t-214.5 65t-76.5 154h-161q0 -67 29.5 -129t84.5 -112t142.5 -79.5t195.5 -29.5t195.5 30t143 79.5t85 111.5t29.5 129h-162zM721 569l-559 349v178l739 -463h37v432h188v-432h37l740 463v-166l-557 -348v-31l739 -551h-266
l-645 481h-48v-481h-188v481h-47l-645 -481h-246l721 537v32z" />
    <glyph glyph-name="uni04CF" unicode="&#x4cf;" horiz-adv-x="512" 
d="M164 0v1475h184v-1475h-184z" />
    <glyph glyph-name="uni04D0" unicode="&#x4d0;" horiz-adv-x="2123" 
d="M1354 1921q0 -75 -76 -132.5t-213 -57.5t-213 57.5t-76 132.5h-153q0 -60 29 -115.5t82.5 -101t139.5 -73t191 -27.5t191 27.5t139.5 73t82.5 101t29 115.5h-153zM1239 1475l928 -1475h-230l-268 428h-1143l-272 -428h-211l940 1475h256zM1118 1300h-35l-452 -708h934z
" />
    <glyph glyph-name="uni04D1" unicode="&#x4d1;" horiz-adv-x="1626" 
d="M1106 1546q0 -89 -76.5 -154t-214.5 -65t-214.5 65t-76.5 154h-162q0 -67 29.5 -129t85 -111.5t143 -79.5t195.5 -30t195.5 30t143 79.5t85 111.5t29.5 129h-162zM82 293q0 -165 154.5 -244.5t431.5 -79.5q231 0 386 61.5t259 176.5v-207h180v670q0 112 -54 195.5
t-153.5 133t-230 73.5t-293.5 24q-175 0 -337 -36.5t-280 -111.5v-188q104 82 264 130t347 48q282 0 422.5 -59.5t140.5 -155.5q0 -67 -99 -85.5t-408 -31.5q-37 -2 -58.5 -3t-56.5 -2.5t-66 -2.5q-289 -13 -419 -89t-130 -216zM1313 514q0 -123 -86 -212t-224.5 -132
t-310.5 -43q-413 0 -413 166q0 83 94 119.5t293 42.5q351 11 455 24q140 18 192 58v-23z" />
    <glyph glyph-name="uni04D6" unicode="&#x4d6;" horiz-adv-x="1914" 
d="M1282 1921q0 -75 -76 -132.5t-213 -57.5t-212.5 57.5t-75.5 132.5h-154q0 -60 29 -115.5t82.5 -101t139.5 -73t191 -27.5t191 27.5t140 73t83 101t29 115.5h-154zM1772 1475v-164h-1352v-449h1167v-164h-1167v-534h1352v-164h-1547v1475h1547z" />
    <glyph glyph-name="uni04D7" unicode="&#x4d7;" horiz-adv-x="1679" 
d="M1139 1546q0 -89 -76.5 -154t-214.5 -65t-214.5 65t-76.5 154h-162q0 -67 29.5 -129t85 -111.5t143 -79.5t195.5 -30t195.5 29.5t142.5 79.5t84.5 112t29.5 129h-161zM82 532q0 -280 220.5 -421.5t653.5 -141.5q154 0 304.5 31.5t259.5 87.5v170q-107 -64 -255 -99.5
t-309 -35.5q-334 0 -508 95t-180 300h1329v25q0 114 -54.5 215t-152 176t-240 118.5t-310.5 43.5q-167 0 -310 -44.5t-240.5 -120.5t-152.5 -179.5t-55 -219.5zM289 651q49 134 195 217.5t356 83.5q218 0 363 -84t190 -217h-1104z" />
    <glyph glyph-name="uni04D8" unicode="&#x4d8;" horiz-adv-x="2234" 
d="M92 778q0 -168 75 -316.5t207 -257.5t323.5 -172t414.5 -63q179 0 338 36.5t283 105t214 162t137.5 212.5t47.5 252q0 130 -44.5 245t-137 211t-226.5 165.5t-322 108t-415 38.5q-225 0 -424 -43.5t-327 -124.5v-211q124 97 314.5 151t436.5 54q185 0 338 -28t262 -77.5
t185.5 -119.5t116 -152t46.5 -176h-1843zM1923 621q-54 -208 -274.5 -343t-536.5 -135q-200 0 -369.5 65.5t-277.5 172.5t-152 240h1610z" />
    <glyph glyph-name="uni04D9" unicode="&#x4d9;" horiz-adv-x="1720" 
d="M82 543q0 -167 96.5 -297.5t274 -203.5t407.5 -73t407 71t274 199.5t97 292.5q0 260 -225.5 412t-669.5 152q-168 0 -320.5 -31t-262.5 -88v-170q227 135 583 135q334 0 513 -100t194 -275h-1368v-24zM1440 434q-40 -148 -194.5 -234.5t-385.5 -86.5q-232 0 -381.5 86.5
t-191.5 234.5h1153z" />
    <glyph glyph-name="uni04E2" unicode="&#x4e2;" horiz-adv-x="2144" 
d="M1372 1673h-655v144h655v-144zM420 1475v-1291h41l1165 1291h293v-1475h-195v1288h-45l-1163 -1288h-291v1475h195z" />
    <glyph glyph-name="uni04E3" unicode="&#x4e3;" horiz-adv-x="1595" 
d="M1108 1300h-655v144h655v-144zM348 1065v-881h45l768 881h271v-1065h-185v881h-47l-768 -881h-268v1065h184z" />
    <glyph glyph-name="uni04E6" unicode="&#x4e6;" horiz-adv-x="2244" 
d="M850 1866q-61 0 -103 -35t-42 -86t41.5 -85t103.5 -34t103.5 34t41.5 85t-42 86t-103 35zM1378 1866q-61 0 -103 -35t-42 -86t41.5 -85t103.5 -34t104 34t42 85t-42 86t-104 35zM1122 1505q-223 0 -414.5 -60t-323.5 -163t-207 -244t-75 -301q0 -133 47.5 -252
t137.5 -212.5t214 -162t283 -105t338 -36.5t338 36.5t283 105t214 162t137.5 212.5t47.5 252q0 160 -75 301t-207 244t-323.5 163t-414.5 60zM1122 1337q180 0 336 -48t262.5 -129t167 -191t60.5 -232q0 -121 -60.5 -231t-167 -191.5t-262.5 -129.5t-336 -48t-335.5 48
t-262 129.5t-167 191.5t-60.5 231q0 122 60.5 232t167 191t262 129t335.5 48z" />
    <glyph glyph-name="uni04E7" unicode="&#x4e7;" horiz-adv-x="1712" 
d="M590 1499q-62 0 -104 -35t-42 -86t42 -84.5t104 -33.5t103.5 33.5t41.5 84.5t-42 86t-103 35zM1102 1499q-62 0 -104 -35t-42 -86t42 -84.5t104 -33.5t103.5 33.5t41.5 84.5t-42 86t-103 35zM856 1096q-167 0 -312 -44.5t-246 -120t-158.5 -179.5t-57.5 -220
q0 -157 97.5 -285.5t275.5 -203t401 -74.5q167 0 312 44t246 120t158.5 179.5t57.5 219.5t-57.5 220t-158.5 179.5t-246 120t-312 44.5zM856 938q259 0 422.5 -116t163.5 -290t-163.5 -289.5t-422.5 -115.5t-422.5 115.5t-163.5 289.5t163.5 290t422.5 116z" />
    <glyph glyph-name="uni04E8" unicode="&#x4e8;" horiz-adv-x="2244" 
d="M102 737q0 -133 47.5 -252t137.5 -212.5t214 -162t283 -105t338 -36.5t338 36.5t283 105t214 162t137.5 212.5t47.5 252q0 160 -75 301t-207 244t-323.5 163t-414.5 60t-414.5 -60t-323.5 -163t-207 -244t-75 -301zM303 815q38 225 262.5 373.5t556.5 148.5t557 -148.5
t263 -373.5h-1639zM1942 657q-19 -108 -87 -203t-172.5 -165.5t-250 -111t-310.5 -40.5q-220 0 -399.5 70t-286.5 187.5t-133 262.5h1639z" />
    <glyph glyph-name="uni04E9" unicode="&#x4e9;" horiz-adv-x="1712" 
d="M82 532q0 -157 97.5 -285.5t275.5 -203t401 -74.5q167 0 312 44t246 120t158.5 179.5t57.5 219.5t-57.5 220t-158.5 179.5t-246 120t-312 44.5t-312 -44.5t-246 -120t-158.5 -179.5t-57.5 -220zM281 610q36 145 191.5 236.5t383.5 91.5t384 -91.5t192 -236.5h-1151z
M1434 463q-33 -149 -190 -242.5t-388 -93.5t-387.5 93.5t-189.5 242.5h1155z" />
    <glyph glyph-name="uni04EE" unicode="&#x4ee;" horiz-adv-x="1785" 
d="M1251 1673h-655v144h655v-144zM899 573h59l623 902h205l-1018 -1475h-205l258 375l-821 1100h227z" />
    <glyph glyph-name="uni04EF" unicode="&#x4ef;" horiz-adv-x="1468" 
d="M1055 1300h-656v144h656v-144zM743 256h58l483 809h184l-880 -1475h-185l265 445l-668 1030h219z" />
    <glyph glyph-name="uni04F2" unicode="&#x4f2;" horiz-adv-x="1785" 
d="M907 1905l-272 -287h192l306 287h-226zM1292 1905l-272 -287h192l306 287h-226zM899 573h59l623 902h205l-1018 -1475h-205l258 375l-821 1100h227z" />
    <glyph glyph-name="uni04F3" unicode="&#x4f3;" horiz-adv-x="1468" 
d="M799 1550l-324 -348h180l359 348h-215zM1161 1550l-323 -348h180l358 348h-215zM743 256h58l483 809h184l-880 -1475h-185l265 445l-668 1030h219z" />
    <glyph glyph-name="Wgrave" unicode="&#x1e80;" horiz-adv-x="2775" 
d="M1214 1905l273 -287h-205l-305 287h237zM733 184h43l484 1291h307l481 -1291h41l473 1291h193l-541 -1475h-307l-482 1288h-43l-483 -1288h-315l-564 1475h220z" />
    <glyph glyph-name="wgrave" unicode="&#x1e81;" horiz-adv-x="2140" 
d="M840 1550l323 -348h-202l-359 348h238zM565 184h43l357 881h235l361 -881h43l356 881h170l-432 -1065h-236l-362 885h-39l-359 -885h-256l-436 1065h195z" />
    <glyph glyph-name="Wacute" unicode="&#x1e82;" horiz-adv-x="2775" 
d="M1602 1905l-273 -287h176l305 287h-208zM733 184h43l484 1291h307l481 -1291h41l473 1291h193l-541 -1475h-307l-482 1288h-43l-483 -1288h-315l-564 1475h220z" />
    <glyph glyph-name="wacute" unicode="&#x1e83;" horiz-adv-x="2140" 
d="M1331 1550l-323 -348h194l359 348h-230zM565 184h43l357 881h235l361 -881h43l356 881h170l-432 -1065h-236l-362 885h-39l-359 -885h-256l-436 1065h195z" />
    <glyph glyph-name="Wdieresis" unicode="&#x1e84;" horiz-adv-x="2775" 
d="M1143 1866q-62 0 -104 -35t-42 -86t42 -85t104 -34t103.5 34t41.5 85t-42 86t-103 35zM1671 1866q-61 0 -103 -35t-42 -86t41.5 -85t103.5 -34t104 34t42 85t-42 86t-104 35zM733 184h43l484 1291h307l481 -1291h41l473 1291h193l-541 -1475h-307l-482 1288h-43
l-483 -1288h-315l-564 1475h220z" />
    <glyph glyph-name="wdieresis" unicode="&#x1e85;" horiz-adv-x="2140" 
d="M819 1499q-61 0 -103 -35t-42 -86t41.5 -84.5t103.5 -33.5t104 33.5t42 84.5t-42 86t-104 35zM1331 1499q-61 0 -103 -35t-42 -86t41.5 -84.5t103.5 -33.5t104 33.5t42 84.5t-42 86t-104 35zM565 184h43l357 881h235l361 -881h43l356 881h170l-432 -1065h-236l-362 885
h-39l-359 -885h-256l-436 1065h195z" />
    <glyph glyph-name="uni1E9E" unicode="&#x1e9e;" horiz-adv-x="2017" 
d="M184 1067q0 112 43.5 192.5t126.5 127t189.5 67.5t244.5 21h1061v-265l-544 -225v-35q97 -8 181 -26.5t165 -55t138 -88t91.5 -130t34.5 -175.5q0 -241 -188.5 -373.5t-518.5 -132.5q-173 0 -293.5 26.5t-234.5 78.5v192q88 -60 233 -95.5t306 -35.5q231 0 367 88
t136 246q0 172 -159.5 251t-528.5 79h-180v145l801 332v33h-897q-194 0 -286.5 -57.5t-92.5 -209.5v-1042h-195v1067z" />
    <glyph glyph-name="Ygrave" unicode="&#x1ef2;" horiz-adv-x="1845" 
d="M715 1905l272 -287h-205l-305 287h238zM928 696h45l657 779h215l-805 -955v-520h-194v520l-846 955h238z" />
    <glyph glyph-name="ygrave" unicode="&#x1ef3;" horiz-adv-x="1468" 
d="M528 1550l324 -348h-203l-358 348h237zM743 256h58l483 809h184l-880 -1475h-185l265 445l-668 1030h219z" />
    <glyph glyph-name="uni2000" unicode="&#x2000;" horiz-adv-x="1536" 
 />
    <glyph glyph-name="uni2001" unicode="&#x2001;" horiz-adv-x="3072" 
 />
    <glyph glyph-name="uni2002" unicode="&#x2002;" horiz-adv-x="1536" 
 />
    <glyph glyph-name="uni2003" unicode="&#x2003;" horiz-adv-x="3072" 
 />
    <glyph glyph-name="uni2004" unicode="&#x2004;" horiz-adv-x="921" 
 />
    <glyph glyph-name="uni2005" unicode="&#x2005;" horiz-adv-x="552" 
 />
    <glyph glyph-name="uni2006" unicode="&#x2006;" horiz-adv-x="307" 
 />
    <glyph glyph-name="uni2007" unicode="&#x2007;" horiz-adv-x="614" 
 />
    <glyph glyph-name="uni2008" unicode="&#x2008;" horiz-adv-x="634" 
 />
    <glyph glyph-name="uni2009" unicode="&#x2009;" horiz-adv-x="450" 
 />
    <glyph glyph-name="uni200A" unicode="&#x200a;" horiz-adv-x="102" 
 />
    <glyph glyph-name="uni200B" unicode="&#x200b;" horiz-adv-x="0" 
 />
    <glyph glyph-name="endash" unicode="&#x2013;" horiz-adv-x="1425" 
d="M1343 639v-152h-1261v152h1261z" />
    <glyph glyph-name="emdash" unicode="&#x2014;" horiz-adv-x="2088" 
d="M2007 639v-152h-1925v152h1925z" />
    <glyph glyph-name="quoteleft" unicode="&#x2018;" horiz-adv-x="563" 
d="M502 1475l-266 -451h-226l320 451h172z" />
    <glyph glyph-name="quoteright" unicode="&#x2019;" horiz-adv-x="522" 
d="M461 1475l-266 -451h-226l320 451h172z" />
    <glyph glyph-name="quotesinglbase" unicode="&#x201a;" horiz-adv-x="563" 
d="M10 -246l266 451h226l-320 -451h-172z" />
    <glyph glyph-name="quotedblleft" unicode="&#x201c;" horiz-adv-x="815" 
d="M-31 1024l267 451h208l-319 -451h-156zM279 1024l266 451h209l-320 -451h-155z" />
    <glyph glyph-name="quotedblright" unicode="&#x201d;" horiz-adv-x="815" 
d="M-31 1024l267 451h208l-319 -451h-156zM279 1024l266 451h209l-320 -451h-155z" />
    <glyph glyph-name="quotedblbase" unicode="&#x201e;" horiz-adv-x="856" 
d="M-31 -246l267 451h208l-319 -451h-156zM279 -246l266 451h209l-320 -451h-155z" />
    <glyph glyph-name="dagger" unicode="&#x2020;" horiz-adv-x="927" 
d="M379 995h-338v152h338v328h170v-328h338v-152h-338v-995h-170v995z" />
    <glyph glyph-name="daggerdbl" unicode="&#x2021;" horiz-adv-x="1071" 
d="M113 1147h338v328h170v-328h337v-152h-337v-516h337v-151h-337v-328h-170v328h-338v151h338v516h-338v152z" />
    <glyph glyph-name="bullet" unicode="&#x2022;" horiz-adv-x="716" 
d="M358 885q-103 0 -174 -59t-71 -144q0 -86 71 -143.5t174 -57.5q105 0 175.5 57.5t70.5 143.5q0 85 -71 144t-175 59z" />
    <glyph glyph-name="ellipsis" unicode="&#x2026;" horiz-adv-x="1404" 
d="M248 209q-62 0 -104 -35t-42 -86t42 -85t104 -34t103.5 34t41.5 85t-42 86t-103 35zM702 209q-61 0 -103 -35t-42 -86t41.5 -85t103.5 -34t104 34t42 85t-42 86t-104 35zM1157 209q-61 0 -103 -35t-42 -86t41.5 -85t103.5 -34t104 34t42 85t-42 86t-104 35z" />
    <glyph glyph-name="uni00A0.narrow" unicode="&#x202f;" horiz-adv-x="307" 
 />
    <glyph glyph-name="perthousand" unicode="&#x2030;" horiz-adv-x="2330" 
d="M41 1198q0 128 104.5 217.5t268.5 89.5t268 -89.5t104 -217.5t-104 -217.5t-268 -89.5t-268.5 89.5t-104.5 217.5zM420 0h-197l922 1475h196zM207 1198q0 -70 55.5 -115t151.5 -45t151.5 45t55.5 115t-55.5 115t-151.5 45t-151.5 -45t-55.5 -115zM778 276q0 128 105 218
t268 90t268 -90t105 -218t-104.5 -217.5t-268.5 -89.5t-268.5 89.5t-104.5 217.5zM1565 276q0 128 104.5 218t267.5 90t268 -90t105 -218t-104.5 -217.5t-268.5 -89.5t-268 89.5t-104 217.5zM944 276q0 -69 55.5 -114t151.5 -45t151.5 45t55.5 114q0 70 -55.5 115t-151.5 45
t-151.5 -45t-55.5 -115zM1731 276q0 -70 55 -114.5t151 -44.5t151.5 45t55.5 114q0 70 -55.5 115t-151.5 45t-151 -45t-55 -115z" />
    <glyph glyph-name="minute" unicode="&#x2032;" horiz-adv-x="471" 
d="M0 1024l281 451h190l-281 -451h-190z" />
    <glyph glyph-name="second" unicode="&#x2033;" horiz-adv-x="804" 
d="M0 1024l281 451h190l-281 -451h-190zM334 1024l280 451h191l-281 -451h-190z" />
    <glyph glyph-name="uni205F" unicode="&#x205f;" horiz-adv-x="552" 
 />
    <glyph glyph-name="uni2060" unicode="&#x2060;" horiz-adv-x="0" 
 />
    <glyph glyph-name="Euro" unicode="&#x20ac;" horiz-adv-x="2070" 
d="M1305 137q205 0 376 52t287 149v-211q-236 -160 -663 -160q-401 0 -686 151t-377 402h-222v154h187q-4 40 -4 63q0 20 4 60h-187v153h224q97 242 383 397.5t678 155.5q402 0 645 -155v-209q-108 89 -273 142.5t-372 53.5q-307 0 -532.5 -106t-319.5 -279h1175l-88 -153
h-1139q-4 -40 -4 -60q0 -23 4 -63h1080l-88 -154h-938q95 -171 320 -277t530 -106z" />
    <glyph glyph-name="uni20B4" unicode="&#x20b4;" horiz-adv-x="2105" 
d="M1599 977q65 25 93 56.5t28 78.5q0 106 -189.5 166.5t-506.5 60.5q-225 0 -435 -47.5t-339 -126.5v195q137 66 341.5 105.5t432.5 39.5q418 0 652.5 -100t234.5 -289q0 -73 -60 -139h131v-154h-1859v154h1476zM1982 700v-153h-1452q-80 -30 -121.5 -79t-41.5 -106
q0 -52 41 -92.5t107.5 -65t160.5 -40t189.5 -21.5t205.5 -6q233 0 470.5 54t361.5 141v-193q-111 -73 -353 -121.5t-471 -48.5q-202 0 -362 21t-284 66.5t-190.5 122.5t-66.5 183q0 105 86 185h-139v153h1859z" />
    <glyph glyph-name="uni20B8" unicode="&#x20b8;" horiz-adv-x="1894" 
d="M1853 1470v-153h-1812v153h1812zM1853 1194v-164h-809v-1030h-194v1030h-809v164h1812z" />
    <glyph glyph-name="uni20BD" unicode="&#x20bd;" horiz-adv-x="1994" 
d="M297 471v123h-205v164h205v717h920q165 0 292 -25.5t204 -67t125.5 -100.5t66.5 -119t18 -129q0 -65 -18 -123.5t-67 -118t-125.5 -102t-203.5 -69.5t-292 -27h-725v-123h821v-154h-821v-317h-195v317h-205v154h205zM1217 758q268 0 387.5 75t119.5 201q0 60 -26.5 108.5
t-84 87.5t-158 60t-238.5 21h-725v-553h725z" />
    <glyph glyph-name="uni20BF" unicode="&#x20bf;" horiz-adv-x="1986" 
d="M635 1475v194h180v-194h250v194h180v-196q553 -29 553 -383q0 -105 -72.5 -186.5t-171.5 -121.5q65 -16 123 -45t108 -72t79.5 -105t29.5 -134q0 -180 -162 -298.5t-487 -127.5v-233h-180v233h-250v-233h-180v233h-410v1475h410zM1167 846q211 0 320.5 59t109.5 170
q0 112 -110.5 174t-319.5 62h-751v-465h751zM1214 164q244 0 362 72t118 190q0 117 -117.5 186.5t-362.5 69.5h-798v-518h798z" />
    <glyph glyph-name="uni2116" unicode="&#x2116;" horiz-adv-x="2949" 
d="M2079 1178q0 137 111.5 232t287.5 95t287.5 -95t111.5 -232t-111.5 -232.5t-287.5 -95.5t-287.5 95.5t-111.5 232.5zM553 1475l1141 -1291h47v1291h194v-1475h-315l-1153 1288h-47v-1288h-195v1475h328zM2234 1178q0 -81 66.5 -136t177.5 -55t177.5 55t66.5 136
t-66.5 135.5t-177.5 54.5t-177.5 -54.5t-66.5 -135.5zM2841 715v-144h-725v144h725z" />
    <glyph glyph-name="trademark" unicode="&#x2122;" horiz-adv-x="2230" 
d="M950 1475v-115h-399v-651h-141v651h-400v115h940zM1307 1475l278 -641h27l268 641h238v-766h-142v641h-30l-269 -641h-190l-279 641h-28v-641h-142v766h269z" />
    <glyph glyph-name="arrowleft" unicode="&#x2190;" horiz-adv-x="2279" 
d="M881 1065l-445 -379v-41h1741v-149h-1741v-33l486 -412h-252l-598 506l598 508h211z" />
    <glyph glyph-name="arrowright" unicode="&#x2192;" horiz-adv-x="2277" 
d="M1843 645v35l-479 385h246l596 -479l-596 -535h-228l461 412v33h-1741v149h1741z" />
    <glyph glyph-name="minus" unicode="&#x2212;" horiz-adv-x="1302" 
d="M1180 819v-151h-1057v151h1057z" />
    <glyph glyph-name="notequal" unicode="&#x2260;" horiz-adv-x="1302" 
d="M524 633l138 198h-539v152h643l156 225h163l-155 -225h250v-152h-355l-137 -198h492v-152h-596l-162 -235h-164l162 235h-297v152h401z" />
    <glyph glyph-name="less_or_equal" unicode="&#x2264;" horiz-adv-x="1388" 
d="M1266 444l-727 310v34l727 308v164l-1143 -496l1143 -496v176zM143 154v-154h1123v154h-1123z" />
    <glyph glyph-name="greater_or_equal" unicode="&#x2265;" horiz-adv-x="1388" 
d="M850 745v35l-727 310v170l1143 -496l-1143 -496v170zM1245 154v-154h-1122v154h1122z" />
    <glyph glyph-name="uni24C5" unicode="&#x24c5;" horiz-adv-x="2244" 
d="M1122 1505q-223 0 -414.5 -60t-323.5 -163t-207 -244t-75 -301q0 -133 47.5 -252t137.5 -212.5t214 -162t283 -105t338 -36.5t338 36.5t283 105t214 162t137.5 212.5t47.5 252q0 160 -75 301t-207 244t-323.5 163t-414.5 60zM1122 1391q190 0 356.5 -51t283 -138.5
t184 -208.5t67.5 -256q0 -179 -114 -328.5t-319 -237t-458 -87.5t-458 87.5t-319 237t-114 328.5q0 135 67.5 256t184 208.5t283 138.5t356.5 51zM1282 1196q225 0 330.5 -77.5t105.5 -207.5q0 -131 -105.5 -206.5t-330.5 -75.5h-473v-385h-141v952h614zM1282 750
q291 0 291 161q0 162 -291 162h-473v-323h473z" />
    <glyph glyph-name="uniF50A" unicode="&#xf50a;" horiz-adv-x="1875" 
d="M113 158q111 -79 310.5 -130.5t442.5 -58.5v-186q42 24 119 24q61 0 88 -20t27 -45q0 -61 -119 -61q-87 0 -135 26v-108q53 -29 141 -29q112 0 177 49t65 123q0 78 -63 125t-175 47h-2v55q368 9 571 128t203 325q0 142 -108 234.5t-297 127.5q175 55 263.5 133.5
t88.5 206.5q0 81 -48 149t-141.5 120.5t-245.5 82t-347 29.5q-255 0 -461.5 -59.5t-343.5 -149.5v-196q137 109 344 176t463 67q275 0 430.5 -68t155.5 -175q0 -103 -133 -170.5t-377 -67.5h-535v-164h535q278 0 420.5 -70.5t142.5 -205.5q0 -137 -167.5 -215t-471.5 -78
q-275 0 -487.5 59t-329.5 152v-182z" />
    <glyph glyph-name="uniF50B" unicode="&#xf50b;" horiz-adv-x="1515" 
d="M113 125q210 -151 573 -156v-186q42 24 119 24q61 0 88 -20t27 -45q0 -61 -119 -61q-87 0 -135 26v-108q53 -29 141 -29q112 0 177 49t65 123q0 78 -63 125t-175 47h-2v57q177 8 312.5 48.5t218.5 120t83 188.5q0 178 -209 239q70 33 116 93t46 124q0 98 -88.5 169.5
t-236.5 107t-336 35.5q-201 0 -356.5 -41.5t-229.5 -106.5v-162q80 71 235.5 115.5t350.5 44.5q137 0 239.5 -16t167 -54.5t64.5 -95.5q0 -61 -69 -104t-161 -43h-606v-154h598q291 0 291 -151q0 -52 -40.5 -92t-112 -65.5t-165 -38.5t-204.5 -13q-371 0 -604 166v-160z" />
    <glyph glyph-name="uniF50E" unicode="&#xf50e;" horiz-adv-x="2123" 
d="M1393 1673h-656v144h656v-144zM1239 1475l928 -1475h-230l-268 428h-1143l-272 -428h-211l940 1475h256zM1118 1300h-35l-452 -708h934z" />
    <glyph glyph-name="uniF50F" unicode="&#xf50f;" horiz-adv-x="1626" 
d="M1106 1300h-655v144h655v-144zM82 293q0 -165 154.5 -244.5t431.5 -79.5q231 0 386 61.5t259 176.5v-207h180v670q0 112 -54 195.5t-153.5 133t-230 73.5t-293.5 24q-175 0 -337 -36.5t-280 -111.5v-188q104 82 264 130t347 48q282 0 422.5 -59.5t140.5 -155.5
q0 -67 -99 -85.5t-408 -31.5q-37 -2 -58.5 -3t-56.5 -2.5t-66 -2.5q-289 -13 -419 -89t-130 -216zM1313 514q0 -123 -86 -212t-224.5 -132t-310.5 -43q-413 0 -413 166q0 83 94 119.5t293 42.5q351 11 455 24q140 18 192 58v-23z" />
    <glyph glyph-name="uniF510" unicode="&#xf510;" horiz-adv-x="1914" 
d="M1321 1673h-655v144h655v-144zM1772 1475v-164h-1352v-449h1167v-164h-1167v-534h1352v-164h-1547v1475h1547z" />
    <glyph glyph-name="uniF511" unicode="&#xf511;" horiz-adv-x="1679" 
d="M1176 1300h-656v144h656v-144zM82 532q0 -280 220.5 -421.5t653.5 -141.5q154 0 304.5 31.5t259.5 87.5v170q-107 -64 -255 -99.5t-309 -35.5q-334 0 -508 95t-180 300h1329v25q0 114 -54.5 215t-152 176t-240 118.5t-310.5 43.5q-167 0 -310 -44.5t-240.5 -120.5
t-152.5 -179.5t-55 -219.5zM289 651q49 134 195 217.5t356 83.5q218 0 363 -84t190 -217h-1104z" />
    <glyph glyph-name="uniF518" unicode="&#xf518;" horiz-adv-x="2244" 
d="M1446 1673h-655v144h655v-144zM1122 1505q-223 0 -414.5 -60t-323.5 -163t-207 -244t-75 -301q0 -133 47.5 -252t137.5 -212.5t214 -162t283 -105t338 -36.5t338 36.5t283 105t214 162t137.5 212.5t47.5 252q0 160 -75 301t-207 244t-323.5 163t-414.5 60zM1122 1337
q180 0 336 -48t262.5 -129t167 -191t60.5 -232q0 -121 -60.5 -231t-167 -191.5t-262.5 -129.5t-336 -48t-335.5 48t-262 129.5t-167 191.5t-60.5 231q0 122 60.5 232t167 191t262 129t335.5 48z" />
    <glyph glyph-name="uniF519" unicode="&#xf519;" horiz-adv-x="1712" 
d="M1176 1300h-656v144h656v-144zM856 1096q-167 0 -312 -44.5t-246 -120t-158.5 -179.5t-57.5 -220q0 -157 97.5 -285.5t275.5 -203t401 -74.5q167 0 312 44t246 120t158.5 179.5t57.5 219.5t-57.5 220t-158.5 179.5t-246 120t-312 44.5zM856 938q259 0 422.5 -116
t163.5 -290t-163.5 -289.5t-422.5 -115.5t-422.5 115.5t-163.5 289.5t163.5 290t422.5 116z" />
    <glyph glyph-name="uniF51A" unicode="&#xf51a;" horiz-adv-x="2244" 
d="M1391 1921q0 -75 -76 -132.5t-213 -57.5t-213 57.5t-76 132.5h-154q0 -60 29 -115.5t83 -101t140 -73t191 -27.5t191 27.5t139.5 73t82.5 101t29 115.5h-153zM1122 1505q-223 0 -414.5 -60t-323.5 -163t-207 -244t-75 -301q0 -133 47.5 -252t137.5 -212.5t214 -162
t283 -105t338 -36.5t338 36.5t283 105t214 162t137.5 212.5t47.5 252q0 160 -75 301t-207 244t-323.5 163t-414.5 60zM1122 1337q180 0 336 -48t262.5 -129t167 -191t60.5 -232q0 -121 -60.5 -231t-167 -191.5t-262.5 -129.5t-336 -48t-335.5 48t-262 129.5t-167 191.5
t-60.5 231q0 122 60.5 232t167 191t262 129t335.5 48z" />
    <glyph glyph-name="uniF51B" unicode="&#xf51b;" horiz-adv-x="1712" 
d="M1137 1546q0 -89 -76.5 -154t-214.5 -65t-214.5 65t-76.5 154h-162q0 -67 29.5 -129t85 -111.5t143 -79.5t195.5 -30t195.5 29.5t142.5 79.5t84.5 112t29.5 129h-161zM856 1096q-167 0 -312 -44.5t-246 -120t-158.5 -179.5t-57.5 -220q0 -157 97.5 -285.5t275.5 -203
t401 -74.5q167 0 312 44t246 120t158.5 179.5t57.5 219.5t-57.5 220t-158.5 179.5t-246 120t-312 44.5zM856 938q259 0 422.5 -116t163.5 -290t-163.5 -289.5t-422.5 -115.5t-422.5 115.5t-163.5 289.5t163.5 290t422.5 116z" />
    <glyph glyph-name="uniF522" unicode="&#xf522;" horiz-adv-x="1990" 
d="M1227 1673h-656v144h656v-144zM113 123q276 -154 692 -154q323 0 566.5 90t380 264.5t136.5 413.5q0 178 -81.5 324t-225.5 242.5t-343 149t-433 52.5q-400 0 -674 -153v-209q109 85 280 139.5t394 54.5q231 0 414.5 -53.5t304.5 -162t155 -261.5h-1228v-164h1241
q-11 -178 -124.5 -305t-308 -190.5t-454.5 -63.5q-218 0 -395.5 51.5t-296.5 143.5v-209z" />
    <glyph glyph-name="uniF523" unicode="&#xf523;" horiz-adv-x="1531" 
d="M1032 1300h-655v144h655v-144zM82 63q199 -94 506 -94q147 0 275 20.5t236.5 65t186 110t121 159t43.5 208.5q0 176 -115.5 305.5t-309 194t-437.5 64.5q-304 0 -496 -97v-178q170 125 496 125q170 0 307.5 -34t233.5 -106.5t126 -176.5h-804v-154h815
q-19 -116 -114.5 -197.5t-239.5 -120t-324 -38.5q-325 0 -506 125v-181z" />
    <glyph glyph-name="uniF524" unicode="&#xf524;" horiz-adv-x="1990" 
d="M1200 1921q0 -75 -76 -132.5t-213 -57.5t-212.5 57.5t-75.5 132.5h-154q0 -60 29 -115.5t82.5 -101t139.5 -73t191 -27.5t191 27.5t140 73t83 101t29 115.5h-154zM113 123q276 -154 692 -154q323 0 566.5 90t380 264.5t136.5 413.5q0 178 -81.5 324t-225.5 242.5
t-343 149t-433 52.5q-400 0 -674 -153v-209q109 85 280 139.5t394 54.5q231 0 414.5 -53.5t304.5 -162t155 -261.5h-1228v-164h1241q-11 -178 -124.5 -305t-308 -190.5t-454.5 -63.5q-218 0 -395.5 51.5t-296.5 143.5v-209z" />
    <glyph glyph-name="uniF525" unicode="&#xf525;" horiz-adv-x="1531" 
d="M1010 1546q0 -89 -76.5 -154t-214.5 -65t-214.5 65t-76.5 154h-162q0 -67 29.5 -129t85 -111.5t143 -79.5t195.5 -30t195.5 29.5t142.5 79.5t84.5 112t29.5 129h-161zM82 63q199 -94 506 -94q147 0 275 20.5t236.5 65t186 110t121 159t43.5 208.5q0 176 -115.5 305.5
t-309 194t-437.5 64.5q-304 0 -496 -97v-178q170 125 496 125q170 0 307.5 -34t233.5 -106.5t126 -176.5h-804v-154h815q-19 -116 -114.5 -197.5t-239.5 -120t-324 -38.5q-325 0 -506 125v-181z" />
    <glyph glyph-name="uniF528" unicode="&#xf528;" horiz-adv-x="2048" 
d="M1454 1673h-655v144h655v-144zM1010 631h-107q-117 0 -215.5 14.5t-168 38.5t-123.5 58.5t-87 71.5t-54.5 79.5t-29.5 81t-8 78.5t8 78.5t29.5 81t54.5 79.5t87 71.5t123.5 58.5t168 38.5t215.5 14.5h920v-1475h-195v631h-276l-946 -629h-304l908 600v29zM416 1053
q0 -38 12.5 -72t46.5 -69t87 -60t140.5 -41t200.5 -16h725v516h-725q-113 0 -200.5 -16t-140.5 -41t-87 -60t-46.5 -69t-12.5 -72z" />
    <glyph glyph-name="uniF529" unicode="&#xf529;" horiz-adv-x="1613" 
d="M1196 1300h-655v144h655v-144zM631 440q-136 1 -235.5 27.5t-153 72t-77.5 98t-24 114.5q0 63 24.5 116t79 99t155 72t239.5 26h811v-1065h-184v440h-338l-617 -440h-250l570 408v32zM326 752q0 -166 313 -166h627v334h-627q-313 0 -313 -168z" />
    <glyph glyph-name="uniF52C" unicode="&#xf52c;" horiz-adv-x="2826" 
d="M1536 1673h-655v144h655v-144zM420 1475v-613h315q26 139 106 256.5t204.5 203.5t299 134.5t379.5 48.5q182 0 341 -38.5t278.5 -108.5t206 -165t130.5 -211.5t44 -244.5q0 -168 -70 -309.5t-197.5 -243t-316 -158.5t-416.5 -57q-221 0 -405 54t-311.5 150t-200.5 230.5
t-82 294.5h-305v-698h-195v1475h195zM920 737q0 -122 55.5 -230t156.5 -189t254.5 -128t337.5 -47t337.5 47t255 128t157 189t55.5 230q0 123 -55.5 231t-157 189t-254.5 127.5t-338 46.5t-337.5 -46.5t-254 -127.5t-157 -189t-55.5 -231z" />
    <glyph glyph-name="uniF52D" unicode="&#xf52d;" horiz-adv-x="2146" 
d="M1403 1300h-655v144h655v-144zM348 485h211q14 -147 112.5 -264t266 -184.5t373.5 -67.5q162 0 303.5 44t239.5 120t154 179.5t56 219.5t-56 220t-154 179.5t-239.5 120t-303.5 44.5q-289 0 -492 -128.5t-250 -328.5h-221v426h-184v-1065h184v485zM745 532q0 174 158 290
t408 116t407.5 -116t157.5 -290t-157.5 -289.5t-407.5 -115.5t-408 115.5t-158 289.5z" />
    <glyph glyph-name="uniF536" unicode="&#xf536;" horiz-adv-x="2547" 
d="M1569 1921q0 -75 -76 -132.5t-213 -57.5t-213 57.5t-76 132.5h-153q0 -60 29 -115.5t82.5 -101t139.5 -73t191 -27.5t191 27.5t139.5 73t82.5 101t29 115.5h-153zM1104 0q165 0 292 27t204 70.5t125.5 104.5t66.5 122.5t18 132.5q0 72 -18 133.5t-66.5 122.5t-125.5 104
t-204 69.5t-292 26.5h-684v562h-195v-1475h879zM2322 0h-194v1475h194v-1475zM1104 750q268 0 388 -79.5t120 -213.5t-120 -213.5t-388 -79.5h-684v586h684z" />
    <glyph glyph-name="uniF537" unicode="&#xf537;" horiz-adv-x="1986" 
d="M1278 1546q0 -89 -76.5 -154t-214.5 -65t-214.5 65t-76.5 154h-161q0 -67 29.5 -129t84.5 -112t142.5 -79.5t195.5 -29.5t195.5 30t143 79.5t85 111.5t29.5 129h-162zM348 674h592q120 0 213 -19.5t150.5 -51t94.5 -76.5t51.5 -91t14.5 -98t-14.5 -98.5t-51.5 -91.5
t-94.5 -77t-150.5 -51.5t-213 -19.5h-776v1065h184v-391zM1638 0v1065h185v-1065h-185zM940 154q334 0 334 184q0 182 -334 182h-592v-366h592z" />
    <glyph glyph-name="uniF53C" unicode="&#xf53c;" horiz-adv-x="1751" 
d="M1690 1475v-164h-1270v-480h1102v-163h-1102v-668h-195v1475h1465z" />
    <glyph glyph-name="uniF53D" unicode="&#xf53d;" horiz-adv-x="1286" 
d="M1225 1065v-154h-877v-329h686v-148h-686v-434h-184v1065h1061z" />
    <glyph glyph-name="uniF53E" unicode="&#xf53e;" horiz-adv-x="1970" 
d="M102 737q0 -207 123 -375t348.5 -271t516.5 -120v-188q42 24 118 24q61 0 88 -20t27 -45q0 -61 -119 -61q-87 0 -135 26v-108q53 -29 141 -29q112 0 177 49t65 123q0 78 -63 125t-175 47h-2v53q423 3 656 160v211q-116 -97 -287.5 -149t-376.5 -52q-199 0 -370.5 48.5
t-288 130t-182.5 191t-66 230.5t66 230t182.5 190.5t288 129.5t370.5 48q207 0 372 -53.5t273 -142.5v209q-243 155 -645 155q-192 0 -365 -40t-306 -111.5t-230.5 -166.5t-149 -210t-51.5 -238z" />
    <glyph glyph-name="uniF53F" unicode="&#xf53f;" horiz-adv-x="1449" 
d="M82 532q0 -154 92.5 -276.5t254 -194t370.5 -88.5v-190q42 24 119 24q61 0 87.5 -20t26.5 -45q0 -61 -119 -61q-87 0 -135 26v-108q53 -29 142 -29q112 0 176.5 48.5t64.5 123.5q0 78 -62.5 125t-174.5 47h-2v55q269 3 446 94v185q-163 -121 -457 -121q-183 0 -329 51
t-229 144t-83 210t83 210t229 144.5t329 51.5q283 0 447 -121v182q-186 97 -447 97q-232 0 -422.5 -74t-298.5 -203.5t-108 -286.5z" />
    <glyph glyph-name="uniF6D4" unicode="&#xf6d4;" horiz-adv-x="946" 
d="M764 1546q0 -89 -76.5 -154t-214.5 -65t-214.5 65t-76.5 154h-162q0 -67 29.5 -129t85 -111.5t143 -79.5t195.5 -30t195.5 30t143 79.5t85 111.5t29.5 129h-162z" />
    <glyph glyph-name="uniFEFF" unicode="&#xfeff;" horiz-adv-x="0" 
 />
    <glyph glyph-name="W.alt" horiz-adv-x="2666" 
d="M956 195h43l228 405v57l-457 818h227l355 -633h24l355 633h217l-461 -822v-55l231 -414h37l694 1291h217l-794 -1475h-279l-229 410h-27l-229 -410h-281l-827 1475h238z" />
    <glyph glyph-name="Wcircumflex.alt" horiz-adv-x="2666" 
d="M905 1587l391 318h93l391 -318h-217l-197 160h-49l-197 -160h-215zM1872 0h-279l-229 410h-27l-229 -410h-281l-827 1475h238l718 -1280h43l228 405v57l-457 818h227l355 -633h24l355 633h217l-461 -822v-55l231 -414h37l694 1291h217z" />
    <glyph glyph-name="Wgrave.alt" horiz-adv-x="2666" 
d="M1167 1905l273 -287h-205l-305 287h237zM956 195h43l228 405v57l-457 818h227l355 -633h24l355 633h217l-461 -822v-55l231 -414h37l694 1291h217l-794 -1475h-279l-229 410h-27l-229 -410h-281l-827 1475h238z" />
    <glyph glyph-name="Wacute.alt" horiz-adv-x="2666" 
d="M1544 1905l-272 -287h176l305 287h-209zM956 195h43l228 405v57l-457 818h227l355 -633h24l355 633h217l-461 -822v-55l231 -414h37l694 1291h217l-794 -1475h-279l-229 410h-27l-229 -410h-281l-827 1475h238z" />
    <glyph glyph-name="Wdieresis.alt" horiz-adv-x="2666" 
d="M1085 1866q-61 0 -103 -35t-42 -86t41.5 -85t103.5 -34t104 34t42 85t-42 86t-104 35zM1614 1866q-62 0 -104 -35t-42 -86t42 -85t104 -34t103.5 34t41.5 85t-42 86t-103 35zM956 195h43l228 405v57l-457 818h227l355 -633h24l355 633h217l-461 -822v-55l231 -414h37
l694 1291h217l-794 -1475h-279l-229 410h-27l-229 -410h-281l-827 1475h238z" />
    <glyph glyph-name="Cacute.pl" horiz-adv-x="1970" 
d="M1200 1905l-125 -287h180l158 287h-213zM1868 338q-116 -97 -287.5 -149t-376.5 -52q-214 0 -388 48t-286 130.5t-172.5 191t-60.5 230.5q0 98 37.5 187t113.5 164t183 130t254 86t319 31q207 0 372 -53.5t273 -142.5v209q-243 155 -645 155q-203 0 -380 -40t-308 -111
t-225 -167t-141.5 -210t-47.5 -238q0 -166 75.5 -307.5t214.5 -244t348 -160.5t464 -58q428 0 664 160v211z" />
    <glyph glyph-name="Nacute.pl" horiz-adv-x="2160" 
d="M1212 1905l-125 -287h181l157 287h-213zM553 1475l1141 -1291h47v1291h194v-1475h-315l-1153 1288h-47v-1288h-195v1475h328z" />
    <glyph glyph-name="Oacute.pl" horiz-adv-x="2244" 
d="M1153 1905l-125 -287h180l158 287h-213zM1122 1505q-223 0 -414.5 -60t-323.5 -163t-207 -244t-75 -301q0 -133 47.5 -252t137.5 -212.5t214 -162t283 -105t338 -36.5t338 36.5t283 105t214 162t137.5 212.5t47.5 252q0 160 -75 301t-207 244t-323.5 163t-414.5 60z
M1122 1337q180 0 336 -48t262.5 -129t167 -191t60.5 -232q0 -121 -60.5 -231t-167 -191.5t-262.5 -129.5t-336 -48t-335.5 48t-262 129.5t-167 191.5t-60.5 231q0 122 60.5 232t167 191t262 129t335.5 48z" />
    <glyph glyph-name="Sacute.pl" horiz-adv-x="1898" 
d="M981 1905l-125 -287h180l158 287h-213zM987 836q-440 71 -579.5 114t-139.5 133q0 116 193 186t508 70q225 0 435 -47.5t339 -126.5v195q-137 66 -341.5 105.5t-432.5 39.5q-409 0 -648 -115t-239 -307q0 -60 13.5 -103.5t52 -81.5t95.5 -66t154 -56t218 -51t298 -51
q173 -27 285.5 -48.5t201 -45.5t135.5 -49.5t70 -56t23 -71.5q0 -72 -61 -125.5t-165 -83t-224 -43.5t-256 -14q-233 0 -470.5 54t-361.5 141v-193q111 -73 352.5 -121.5t470.5 -48.5q199 0 362 26.5t285 78.5t189.5 136t67.5 193q0 76 -27.5 131.5t-83 99t-158 78.5
t-233.5 64t-328 60z" />
    <glyph glyph-name="Zacute.pl" horiz-adv-x="1802" 
d="M928 1905l-125 -287h180l158 287h-213zM1483 1262v49h-1381v164h1598v-256l-1376 -1000v-55h1376v-164h-1598v260z" />
    <glyph glyph-name="uni0416.bgr" horiz-adv-x="2625" 
d="M971 752l-879 561v192l1075 -686h43v656h195v-656h43l1075 686v-186l-876 -559v-29l979 -731h-299l-879 662h-43v-662h-195v662h-45l-880 -662h-285l971 723v29z" />
    <glyph glyph-name="uni041A.bgr" horiz-adv-x="1992" 
d="M420 1475v-607h41l1411 637v-170l-1249 -561v-33l1370 -741h-365l-1169 633h-39v-633h-195v1475h195z" />
    <glyph glyph-name="uni041B.bgr" horiz-adv-x="1843" 
d="M1018 1475l825 -1475h-233l-723 1290h-37l-647 -1290h-203l739 1475h279z" />
    <glyph glyph-name="iacute_j_acutecomb" horiz-adv-x="1024" 
d="M504 1550l-324 -348h195l358 348h-229zM1016 1550l-324 -348h195l358 348h-229zM164 0v1065h184v-1065h-184zM860 -8q0 -195 -115.5 -308.5t-312.5 -113.5q-156 0 -256 72v174q110 -88 234 -88q266 0 266 264v1073h184v-1073z" />
    <glyph glyph-name="a.alt" horiz-adv-x="1759" 
d="M1411 186q-235 -217 -582 -217q-164 0 -305.5 47t-237 125.5t-150 180t-54.5 210.5q0 117 52.5 220t147 179.5t233.5 120.5t304 44q351 0 592 -219v188h184v-1065h-184v186zM1442 532q0 174 -163.5 290t-422.5 116t-422.5 -116t-163.5 -290t163.5 -289.5t422.5 -115.5
t422.5 115.5t163.5 289.5z" />
    <glyph glyph-name="agrave.alt" horiz-adv-x="1759" 
d="M629 1550l323 -348h-202l-359 348h238zM1411 186q-235 -217 -582 -217q-164 0 -305.5 47t-237 125.5t-150 180t-54.5 210.5q0 117 52.5 220t147 179.5t233.5 120.5t304 44q351 0 592 -219v188h184v-1065h-184v186zM1442 532q0 174 -163.5 290t-422.5 116t-422.5 -116
t-163.5 -290t163.5 -289.5t422.5 -115.5t422.5 115.5t163.5 289.5z" />
    <glyph glyph-name="aacute.alt" horiz-adv-x="1759" 
d="M1053 1550l-324 -348h195l358 348h-229zM1411 186q-235 -217 -582 -217q-164 0 -305.5 47t-237 125.5t-150 180t-54.5 210.5q0 117 52.5 220t147 179.5t233.5 120.5t304 44q351 0 592 -219v188h184v-1065h-184v186zM1442 532q0 174 -163.5 290t-422.5 116t-422.5 -116
t-163.5 -290t163.5 -289.5t422.5 -115.5t422.5 115.5t163.5 289.5z" />
    <glyph glyph-name="acircumflex.alt" horiz-adv-x="1759" 
d="M381 1202l436 348h78l436 -348h-207l-239 191h-54l-239 -191h-211zM1595 0h-184v186q-235 -217 -582 -217q-164 0 -305.5 47t-237 125.5t-150 180t-54.5 210.5q0 117 52.5 220t147 179.5t233.5 120.5t304 44q351 0 592 -219v188h184v-1065zM856 127q259 0 422.5 115.5
t163.5 289.5t-163.5 290t-422.5 116t-422.5 -116t-163.5 -290t163.5 -289.5t422.5 -115.5z" />
    <glyph glyph-name="atilde.alt" horiz-adv-x="1759" 
d="M563 1278q0 49 32 89t81 40q35 0 66.5 -16t59 -38.5t59 -45t79 -38.5t104.5 -16q121 0 196 70.5t75 185.5h-154q0 -49 -31.5 -89t-80.5 -40q-35 0 -66.5 16t-59.5 38.5t-59.5 45t-79 38.5t-104.5 16q-120 0 -195 -70.5t-75 -185.5h153zM1411 186q-235 -217 -582 -217
q-164 0 -305.5 47t-237 125.5t-150 180t-54.5 210.5q0 117 52.5 220t147 179.5t233.5 120.5t304 44q351 0 592 -219v188h184v-1065h-184v186zM1442 532q0 174 -163.5 290t-422.5 116t-422.5 -116t-163.5 -290t163.5 -289.5t422.5 -115.5t422.5 115.5t163.5 289.5z" />
    <glyph glyph-name="adieresis.alt" horiz-adv-x="1759" 
d="M578 1499q-62 0 -104 -35t-42 -86t42 -84.5t104 -33.5t103.5 33.5t41.5 84.5t-42 86t-103 35zM1090 1499q-62 0 -104 -35t-42 -86t42 -84.5t104 -33.5t103.5 33.5t41.5 84.5t-42 86t-103 35zM1411 186q-235 -217 -582 -217q-164 0 -305.5 47t-237 125.5t-150 180
t-54.5 210.5q0 117 52.5 220t147 179.5t233.5 120.5t304 44q351 0 592 -219v188h184v-1065h-184v186zM1442 532q0 174 -163.5 290t-422.5 116t-422.5 -116t-163.5 -290t163.5 -289.5t422.5 -115.5t422.5 115.5t163.5 289.5z" />
    <glyph glyph-name="aring.alt" horiz-adv-x="1759" 
d="M614 1378q0 89 70.5 149t173.5 60t173.5 -60t70.5 -149t-70.5 -149t-173.5 -60t-173.5 60t-70.5 149zM860 1475q-50 0 -85.5 -28t-35.5 -69t35.5 -68.5t85.5 -27.5q51 0 84 27.5t33 68.5t-33 69t-84 28zM1411 186q-235 -217 -582 -217q-164 0 -305.5 47t-237 125.5
t-150 180t-54.5 210.5q0 117 52.5 220t147 179.5t233.5 120.5t304 44q351 0 592 -219v188h184v-1065h-184v186zM1442 532q0 174 -163.5 290t-422.5 116t-422.5 -116t-163.5 -290t163.5 -289.5t422.5 -115.5t422.5 115.5t163.5 289.5z" />
    <glyph glyph-name="amacron.alt" horiz-adv-x="1759" 
d="M1190 1300h-655v144h655v-144zM1411 186q-235 -217 -582 -217q-164 0 -305.5 47t-237 125.5t-150 180t-54.5 210.5q0 117 52.5 220t147 179.5t233.5 120.5t304 44q351 0 592 -219v188h184v-1065h-184v186zM1442 532q0 174 -163.5 290t-422.5 116t-422.5 -116t-163.5 -290
t163.5 -289.5t422.5 -115.5t422.5 115.5t163.5 289.5z" />
    <glyph glyph-name="abreve.alt" horiz-adv-x="1759" 
d="M1141 1546q0 -89 -76.5 -154t-214.5 -65t-214.5 65t-76.5 154h-162q0 -67 29.5 -129t85 -111.5t143 -79.5t195.5 -30t195.5 30t143 79.5t85 111.5t29.5 129h-162zM1411 186q-235 -217 -582 -217q-164 0 -305.5 47t-237 125.5t-150 180t-54.5 210.5q0 117 52.5 220
t147 179.5t233.5 120.5t304 44q351 0 592 -219v188h184v-1065h-184v186zM1442 532q0 174 -163.5 290t-422.5 116t-422.5 -116t-163.5 -290t163.5 -289.5t422.5 -115.5t422.5 115.5t163.5 289.5z" />
    <glyph glyph-name="aogonek.alt" horiz-adv-x="1759" 
d="M82 532q0 117 52.5 220t147 179.5t233.5 120.5t304 44q351 0 592 -219v188h184v-1065q-81 -29 -127.5 -71t-46.5 -93q0 -42 27.5 -65t77.5 -23q76 0 129 29v-133q-53 -29 -135 -29q-121 0 -186.5 51t-65.5 139q0 40 15 75t38.5 58t46 38t43.5 24v186q-235 -217 -582 -217
q-164 0 -305.5 47t-237 125.5t-150 180t-54.5 210.5zM270 532q0 -174 163.5 -289.5t422.5 -115.5t422.5 115.5t163.5 289.5t-163.5 290t-422.5 116t-422.5 -116t-163.5 -290z" />
    <glyph glyph-name="aringacute.alt" horiz-adv-x="1759" 
d="M1042 1948l-272 -287h176l305 287h-209zM614 1378q0 89 70.5 149t173.5 60t173.5 -60t70.5 -149t-70.5 -149t-173.5 -60t-173.5 60t-70.5 149zM860 1475q-50 0 -85.5 -28t-35.5 -69t35.5 -68.5t85.5 -27.5q51 0 84 27.5t33 68.5t-33 69t-84 28zM1411 186
q-235 -217 -582 -217q-164 0 -305.5 47t-237 125.5t-150 180t-54.5 210.5q0 117 52.5 220t147 179.5t233.5 120.5t304 44q351 0 592 -219v188h184v-1065h-184v186zM1442 532q0 174 -163.5 290t-422.5 116t-422.5 -116t-163.5 -290t163.5 -289.5t422.5 -115.5t422.5 115.5
t163.5 289.5z" />
    <glyph glyph-name="cacute.pl" horiz-adv-x="1449" 
d="M934 1550l-143 -348h157l178 348h-192zM1368 248q-163 -121 -457 -121q-290 0 -465.5 112.5t-175.5 292.5t176 293t465 113q283 0 447 -121v182q-186 97 -447 97q-181 0 -336.5 -43.5t-263 -118.5t-168.5 -179t-61 -223q0 -169 103.5 -297t291.5 -197t434 -69
q279 0 457 94v185z" />
    <glyph glyph-name="nacute.pl" 
d="M901 1550l-143 -348h157l179 348h-193zM348 1065v-207q85 104 222.5 171t326.5 67q126 0 229 -30.5t183.5 -94.5t125 -172.5t44.5 -253.5v-545h-185v514q0 220 -111.5 322t-330.5 102q-78 0 -146.5 -12t-136 -43.5t-115 -81t-77 -130.5t-29.5 -186v-485h-184v1065h184z
" />
    <glyph glyph-name="oacute.pl" horiz-adv-x="1712" 
d="M934 1546l-143 -348h157l178 348h-192zM856 1096q-167 0 -312 -44.5t-246 -120t-158.5 -179.5t-57.5 -220q0 -157 97.5 -285.5t275.5 -203t401 -74.5q167 0 312 44t246 120t158.5 179.5t57.5 219.5t-57.5 220t-158.5 179.5t-246 120t-312 44.5zM856 938q259 0 422.5 -116
t163.5 -290t-163.5 -289.5t-422.5 -115.5t-422.5 115.5t-163.5 289.5t163.5 290t422.5 116z" />
    <glyph glyph-name="sacute.pl" horiz-adv-x="1456" 
d="M803 1550l-144 -348h158l178 348h-192zM92 78q83 -44 243.5 -76.5t344.5 -32.5q322 0 508 93t186 247q0 88 -55.5 143t-183.5 91.5t-359 62.5q-308 34 -409 63.5t-101 98.5q0 77 140.5 127.5t369.5 50.5q350 0 543 -110v159q-68 45 -210.5 73t-332.5 28q-320 0 -507 -97
t-187 -243q0 -127 135.5 -191.5t450.5 -99.5q80 -9 137.5 -16t112 -15t91 -15.5t68.5 -16.5t51 -18.5t33 -21.5t19.5 -26t5.5 -31q0 -80 -131 -131t-359 -51q-193 0 -354.5 34t-249.5 87v-166z" />
    <glyph glyph-name="zacute.pl" horiz-adv-x="1378" 
d="M729 1550l-143 -348h157l179 348h-193zM1073 874v41h-981v150h1194v-225l-956 -643v-47h956v-150h-1194v215z" />
    <glyph glyph-name="a.alt.cyr" horiz-adv-x="1759" 
d="M1411 186q-235 -217 -582 -217q-164 0 -305.5 47t-237 125.5t-150 180t-54.5 210.5q0 117 52.5 220t147 179.5t233.5 120.5t304 44q351 0 592 -219v188h184v-1065h-184v186zM1442 532q0 174 -163.5 290t-422.5 116t-422.5 -116t-163.5 -290t163.5 -289.5t422.5 -115.5
t422.5 115.5t163.5 289.5z" />
    <glyph glyph-name="abreve.alt.cyr" horiz-adv-x="1759" 
d="M1141 1546q0 -89 -76.5 -154t-214.5 -65t-214.5 65t-76.5 154h-162q0 -67 29.5 -129t85 -111.5t143 -79.5t195.5 -30t195.5 30t143 79.5t85 111.5t29.5 129h-162zM1411 186q-235 -217 -582 -217q-164 0 -305.5 47t-237 125.5t-150 180t-54.5 210.5q0 117 52.5 220
t147 179.5t233.5 120.5t304 44q351 0 592 -219v188h184v-1065h-184v186zM1442 532q0 174 -163.5 290t-422.5 116t-422.5 -116t-163.5 -290t163.5 -289.5t422.5 -115.5t422.5 115.5t163.5 289.5z" />
    <glyph glyph-name="uni0432.bgr" horiz-adv-x="1406" 
d="M113 1034q0 217 140 344t415 127h12q141 0 251.5 -34.5t175.5 -91.5t98.5 -124t33.5 -139q0 -230 -229 -332q63 -16 118.5 -46t103.5 -74.5t75.5 -110t27.5 -143.5q0 -92 -40.5 -172t-115.5 -140t-191.5 -94.5t-260.5 -34.5h-16q-281 0 -439.5 133.5t-158.5 374.5v557z
M653 842q208 0 304 64.5t96 195.5q0 115 -98.5 184.5t-258.5 69.5h-34q-76 0 -140.5 -17t-118.5 -53t-85 -101.5t-31 -154.5v-188h366zM287 487q0 -83 22 -146.5t59 -103.5t92 -65t115.5 -35t135.5 -10h32q187 0 294.5 77.5t107.5 205.5q0 278 -492 278h-366v-201z" />
    <glyph glyph-name="uni0433.bgr" horiz-adv-x="1456" 
d="M1364 111q-83 -61 -245.5 -101.5t-352.5 -40.5q-317 0 -500.5 84t-183.5 240q0 100 55 159.5t191.5 97t388.5 60.5q187 17 291.5 41t143 54t38.5 75q0 75 -122 120.5t-320 45.5q-386 0 -615 -170v172q86 63 243 105.5t365 42.5q296 0 464.5 -86t168.5 -230
q0 -134 -133.5 -205.5t-452.5 -105.5q-293 -30 -405.5 -66.5t-112.5 -109.5q0 -84 127 -127t353 -43q187 0 357.5 45.5t256.5 120.5v-178z" />
    <glyph glyph-name="uni0434.bgr" horiz-adv-x="1759" 
d="M82 532q0 -109 54.5 -210.5t150 -180t237 -125.5t305.5 -47q351 0 582 217v-84q0 -179 -155 -276.5t-427 -97.5q-377 0 -622 176v-187q98 -64 261 -105.5t349 -41.5q232 0 406 63.5t273 191t99 306.5v934h-184v-184q-229 215 -592 215q-165 0 -304 -44t-233.5 -120.5
t-147 -179.5t-52.5 -220zM270 532q0 174 163.5 290t422.5 116t422.5 -116t163.5 -290t-163.5 -289.5t-422.5 -115.5t-422.5 115.5t-163.5 289.5z" />
    <glyph glyph-name="uni0436.bgr" horiz-adv-x="2084" 
d="M721 569l-559 349v178l739 -463h37v842h188v-842h37l740 463v-166l-557 -348v-31l739 -551h-266l-645 481h-48v-481h-188v481h-47l-645 -481h-246l721 537v32z" />
    <glyph glyph-name="uni0437.bgr" horiz-adv-x="1392" 
d="M61 -285q212 -145 584 -145q194 0 346 60.5t236 168t84 244.5q0 77 -21 140t-58.5 106t-79 71.5t-91.5 47.5q86 40 144.5 118t58.5 179q0 178 -174.5 284.5t-446.5 106.5q-192 0 -342 -42t-223 -106v-166q79 70 228.5 115t336.5 45q188 0 307 -63t119 -179
q0 -93 -78 -161t-205 -68h-487v-152h442q182 0 281.5 -74t99.5 -202q0 -145 -130 -232t-347 -87q-351 0 -584 165v-174z" />
    <glyph glyph-name="uni0438.bgr" 
d="M317 1065v-514q0 -219 112 -321.5t331 -102.5q78 0 146.5 12t136 43.5t115 81t77 130.5t29.5 186v485h184v-1065h-184v207q-85 -104 -222.5 -171t-326.5 -67q-117 0 -220 34t-185 99.5t-129.5 173t-47.5 244.5v545h184z" />
    <glyph glyph-name="uni0439.bgr" 
d="M1092 1546q0 -89 -76.5 -154t-214.5 -65t-214.5 65t-76.5 154h-162q0 -67 29.5 -129t85 -111.5t143 -79.5t195.5 -30t195.5 29.5t142.5 79.5t84.5 112t29.5 129h-161zM317 1065v-514q0 -219 112 -321.5t331 -102.5q78 0 146.5 12t136 43.5t115 81t77 130.5t29.5 186v485
h184v-1065h-184v207q-85 -104 -222.5 -171t-326.5 -67q-117 0 -220 34t-185 99.5t-129.5 173t-47.5 244.5v545h184z" />
    <glyph glyph-name="uni043A.bgr" horiz-adv-x="1495" 
d="M348 1475v-820h45l959 441v-158l-801 -369v-39l944 -530h-324l-776 436h-47v-436h-184v1475h184z" />
    <glyph glyph-name="uni043B.bgr" horiz-adv-x="1449" 
d="M831 1065l619 -1065h-209l-520 899h-41l-487 -899h-193l578 1065h253z" />
    <glyph glyph-name="uni043D.bgr" horiz-adv-x="1617" 
d="M348 1065v-426h922v426h184v-1065h-184v485h-922v-485h-184v1065h184z" />
    <glyph glyph-name="uni043F.bgr" 
d="M348 1065v-207q85 104 222.5 171t326.5 67q126 0 229 -30.5t183.5 -94.5t125 -172.5t44.5 -253.5v-545h-185v514q0 220 -111.5 322t-330.5 102q-78 0 -146.5 -12t-136 -43.5t-115 -81t-77 -130.5t-29.5 -186v-485h-184v1065h184z" />
    <glyph glyph-name="uni0442.bgr" horiz-adv-x="2336" 
d="M348 1065v-174q159 205 436 205q52 0 107.5 -11.5t120 -37.5t121.5 -79t92 -126q67 111 187.5 182.5t301.5 71.5q54 0 112 -11t128 -45t123.5 -86t90 -144t36.5 -210v-600h-185v543q0 395 -336 395q-409 0 -409 -416v-522h-184v543q0 395 -336 395q-406 0 -406 -416v-522
h-184v1065h184z" />
    <glyph glyph-name="uni0446.bgr" horiz-adv-x="1683" 
d="M317 1065v-514q0 -219 112 -321.5t331 -102.5q78 0 146.5 12t136 43.5t115 81t77 130.5t29.5 186v485h184v-907h215v-424h-164v266h-235v207q-85 -104 -222.5 -171t-326.5 -67q-117 0 -220 34t-185 99.5t-129.5 173t-47.5 244.5v545h184z" />
    <glyph glyph-name="uni0447.bgr" horiz-adv-x="1452" 
d="M276 1065v-211q0 -71 18 -123t51.5 -86t88.5 -54t120.5 -28t154.5 -8q107 0 224.5 12t170.5 31v467h184v-1065h-184v444q-61 -17 -179.5 -30t-224.5 -13q-302 0 -455 99t-153 321v244h184z" />
    <glyph glyph-name="uni0448.bgr" horiz-adv-x="2336" 
d="M1989 0v174q-159 -205 -437 -205q-52 0 -107.5 11.5t-119.5 37.5t-121 79t-92 126q-67 -111 -187.5 -182.5t-301.5 -71.5q-54 0 -112 11t-128 45t-123.5 86t-90 144t-36.5 210v600h184v-543q0 -395 336 -395q410 0 410 416v522h184v-543q0 -395 336 -395q406 0 406 416
v522h184v-1065h-184z" />
    <glyph glyph-name="uni0449.bgr" horiz-adv-x="2408" 
d="M317 1065v-543q0 -395 336 -395q410 0 410 416v522h184v-543q0 -395 336 -395q406 0 406 416v522h184v-907h215v-424h-164v266h-235v174q-159 -205 -437 -205q-52 0 -107.5 11.5t-119.5 37.5t-121 79t-92 126q-67 -111 -187.5 -182.5t-301.5 -71.5q-54 0 -112 11t-128 45
t-123.5 86t-90 144t-36.5 210v600h184z" />
    <glyph glyph-name="uni044A.bgr" horiz-adv-x="1658" 
d="M553 1065v-389h506q127 0 225 -19.5t158 -51.5t98.5 -77t53 -91t14.5 -99q0 -52 -17.5 -98.5t-60.5 -91t-109.5 -77t-173 -52t-241.5 -19.5h-37q-600 0 -600 397v514h-349v154h533zM553 397q0 -126 99.5 -186.5t316.5 -60.5h37q214 0 312.5 51t98.5 137q0 184 -358 184
h-506v-125z" />
    <glyph glyph-name="uni044C.bgr" horiz-adv-x="1423" 
d="M317 1065v-389h506q127 0 225 -19.5t158 -51.5t98.5 -77t53 -91t14.5 -99q0 -52 -17.5 -98.5t-60.5 -91t-109.5 -77t-173 -52t-241.5 -19.5h-37q-600 0 -600 397v668h184zM317 397q0 -126 99.5 -186.5t316.5 -60.5h37q214 0 313 51t99 137q0 184 -359 184h-506v-125z" />
    <glyph glyph-name="uni044E.bgr" horiz-adv-x="2146" 
d="M348 485h211q14 -147 112.5 -264t266 -184.5t373.5 -67.5q162 0 303.5 44t239.5 120t154 179.5t56 219.5t-56 220t-154 179.5t-239.5 120t-303.5 44.5q-289 0 -492 -128.5t-250 -328.5h-221v836h-184v-1475h184v485zM745 532q0 174 158 290t408 116t407.5 -116
t157.5 -290t-157.5 -289.5t-407.5 -115.5t-408 115.5t-158 289.5z" />
    <glyph glyph-name="uni0431.locl" horiz-adv-x="1712" 
d="M82 502q0 154 109.5 267t324.5 177q-356 48 -356 240q0 87 51.5 141t169.5 81.5t313 27.5h287q388 0 522 39v-150q-125 -39 -522 -39h-285q-193 0 -270.5 -22.5t-77.5 -81.5q0 -44 46 -74t161 -51t305 -29q363 -15 566.5 -154t203.5 -372q0 -110 -57.5 -208.5
t-158.5 -170t-246 -113t-312 -41.5q-174 0 -320 41.5t-245 113.5t-154 169.5t-55 208.5zM270 502q0 -166 156.5 -270.5t429.5 -104.5q261 0 423.5 105.5t162.5 269.5q0 166 -162 270.5t-424 104.5t-424 -104.5t-162 -270.5z" />
    <glyph glyph-name="uni0433.locl" horiz-adv-x="1286" 
d="M1225 1065v-154h-877v-911h-184v1065h1061z" />
    <glyph glyph-name="uni0434.locl" horiz-adv-x="1701" 
d="M201 154q36 44 60.5 95t49.5 144t38 245t13 361v66h1104v-911h215v-420h-163v266h-1334v-266h-164v420h181zM1282 911h-754q-11 -549 -129 -757h883v757z" />
    <glyph glyph-name="uni043F.locl" horiz-adv-x="1556" 
d="M1393 1065v-1065h-185v911h-860v-911h-184v1065h1229z" />
    <glyph glyph-name="uni0442.locl" horiz-adv-x="1437" 
d="M1397 1065v-154h-586v-911h-184v911h-586v154h1356z" />
    <glyph glyph-name="slashedzero" horiz-adv-x="2244" 
d="M102 737q0 -133 47.5 -252t137.5 -212.5t214 -162t283 -105t338 -36.5t338 36.5t283 105t214 162t137.5 212.5t47.5 252q0 160 -75 301t-207 244t-323.5 163t-414.5 60t-414.5 -60t-323.5 -163t-207 -244t-75 -301zM297 737q0 122 60.5 232t167 191t262 129t335.5 48
q242 0 437 -84l-1008 -956q-121 84 -187.5 198t-66.5 242zM1706 1169q116 -84 179 -195.5t63 -236.5q0 -121 -60.5 -231t-167 -191.5t-262.5 -129.5t-336 -48q-231 0 -420 78z" />
    <glyph glyph-name="hyphen.cap" horiz-adv-x="921" 
d="M840 864v-151h-758v151h758z" />
    <glyph glyph-name="endash.cap" horiz-adv-x="1425" 
d="M1343 864v-151h-1261v151h1261z" />
    <glyph glyph-name="emdash.cap" horiz-adv-x="2088" 
d="M2007 864v-151h-1925v151h1925z" />
    <glyph glyph-name="parenleft.cap" horiz-adv-x="757" 
d="M82 737q0 267 108 508t328 434h199q-430 -365 -430 -942q0 -270 101.5 -502t328.5 -440h-209q-222 208 -324 441.5t-102 500.5z" />
    <glyph glyph-name="parenright.cap" horiz-adv-x="757" 
d="M41 -205q227 208 328.5 440t101.5 502q0 577 -430 942h199q220 -193 328 -434t108 -508t-102 -500.5t-324 -441.5h-209z" />
    <glyph glyph-name="bracketleft.cap" horiz-adv-x="880" 
d="M410 -127h450v-149h-635v2017h635v-150h-450v-1718z" />
    <glyph glyph-name="bracketright.cap" horiz-adv-x="880" 
d="M655 -276h-635v149h451v1718h-451v150h635v-2017z" />
    <glyph glyph-name="left_curly_bracket.cap" horiz-adv-x="880" 
d="M123 803q108 0 156.5 38.5t48.5 119.5v331q0 219 125 334t378 115h29v-152h-29q-161 0 -238 -70t-77 -239v-328q0 -154 -162 -219q162 -65 162 -221v-328q0 -169 77 -239t238 -70h29v-151h-29q-253 0 -378 114.5t-125 333.5v332q0 81 -48.5 119.5t-156.5 38.5v141z" />
    <glyph glyph-name="right_curly_bracket.cap" horiz-adv-x="880" 
d="M758 662q-108 0 -156.5 -38.5t-48.5 -119.5v-332q0 -218 -125.5 -333t-378.5 -115h-29v151h29q162 0 239 70t77 239v328q0 156 161 221q-161 65 -161 219v328q0 169 -77 239t-239 70h-29v152h29q253 0 378.5 -115t125.5 -334v-331q0 -81 48.5 -119.5t156.5 -38.5v-141z
" />
    <glyph glyph-name="guillemotleft.cap" horiz-adv-x="1136" 
d="M680 1116l-379 -338v-35l399 -352h-213l-405 363l405 362h193zM1085 1116l-378 -338v-35l399 -352h-213l-406 363l406 362h192z" />
    <glyph glyph-name="guillemotright.cap" horiz-adv-x="1136" 
d="M51 391l379 338v35l-399 352h213l405 -362l-405 -363h-193zM457 391l379 338v35l-400 352h213l406 -362l-406 -363h-192z" />
    <glyph glyph-name="exclamdown.cap" horiz-adv-x="495" 
d="M248 1266q62 0 103.5 34.5t41.5 85.5t-41.5 85t-103.5 34t-104 -34t-42 -85t42 -85.5t104 -34.5zM156 1065h184v-1065h-184v1065z" />
    <glyph glyph-name="questiondown.cap" horiz-adv-x="1437" 
d="M788 1266q62 0 104 34.5t42 85.5t-42 85t-104 34t-103.5 -34t-41.5 -85t41.5 -85.5t103.5 -34.5zM1417 416q0 -83 -45.5 -162t-129.5 -143t-216.5 -103t-292.5 -39q-170 0 -304 34t-217.5 93t-127 136t-43.5 167q0 60 17 110t44.5 86.5t72.5 70t90.5 57.5t109.5 51
q149 63 221 132t90 159h213q-7 -58 -25.5 -104t-60 -97t-116.5 -100.5t-185 -99.5q-147 -66 -208.5 -125t-61.5 -140q0 -123 120.5 -196.5t370.5 -73.5q116 0 211.5 28t153 71.5t88.5 92.5t31 95h200z" />
    <glyph glyph-name="i.loclTRK" horiz-adv-x="512" 
d="M256 1499q-67 0 -110.5 -35t-43.5 -86t43.5 -84.5t110.5 -33.5t110.5 33.5t43.5 84.5t-43.5 86t-110.5 35zM164 0v1065h184v-1065h-184z" />
    <glyph glyph-name="acute.cap.pl" horiz-adv-x="350" 
d="M129 1905l-125 -287h180l158 287h-213z" />
    <glyph glyph-name="acute.cap" horiz-adv-x="550" 
d="M295 1905l-272 -287h176l305 287h-209z" />
    <glyph glyph-name="grave.cap" horiz-adv-x="563" 
d="M260 1905l272 -287h-204l-305 287h237z" />
    <glyph glyph-name="hungarumlaut.cap" horiz-adv-x="956" 
d="M299 1905l-272 -287h192l305 287h-225zM684 1905l-272 -287h192l305 287h-225z" />
    <glyph glyph-name="circumflex.cap" horiz-adv-x="944" 
d="M446 1747l-196 -160h-215l391 318h92l391 -318h-217l-196 160h-50z" />
    <glyph glyph-name="caron.cap" horiz-adv-x="931" 
d="M516 1587h-100l-391 318h225l196 -160h50l196 160h215z" />
    <glyph glyph-name="breve.cap" horiz-adv-x="946" 
d="M762 1921q0 -75 -76 -132.5t-213 -57.5t-213 57.5t-76 132.5h-153q0 -60 29 -115.5t82.5 -101t139.5 -73t191 -27.5t191 27.5t139.5 73t82.5 101t29 115.5h-153z" />
    <glyph glyph-name="tilde.cap" horiz-adv-x="1028" 
d="M215 1645q0 49 32 89t81 40q35 0 66.5 -16t59 -38.5t59 -45t79 -38.5t104.5 -16q121 0 196 70.5t75 185.5h-154q0 -49 -32 -89t-81 -40q-35 0 -66.5 16t-59 38.5t-59 45t-79 38.5t-104.5 16q-121 0 -196 -70.5t-75 -185.5h154z" />
    <glyph glyph-name="macron.cap" horiz-adv-x="655" 
d="M655 1673h-655v144h655v-144z" />
    <glyph glyph-name="dieresis.cap" horiz-adv-x="860" 
d="M166 1866q-62 0 -104 -35t-42 -86t42 -85t104 -34t103.5 34t41.5 85t-42 86t-103 35zM694 1866q-61 0 -103 -35t-42 -86t41.5 -85t103.5 -34t104 34t42 85t-42 86t-104 35z" />
    <glyph glyph-name="dotaccent.cap" horiz-adv-x="290" 
d="M145 1866q-67 0 -110 -34.5t-43 -86.5q0 -51 43 -85t110 -34t110.5 34t43.5 85t-43.5 86t-110.5 35z" />
    <glyph glyph-name="ring.cap" horiz-adv-x="487" 
d="M0 1765q0 89 70.5 149t173.5 60t173 -60t70 -149t-70 -149t-173 -60t-173.5 60t-70.5 149zM246 1862q-50 0 -85.5 -28t-35.5 -69t35.5 -68.5t85.5 -27.5q51 0 83.5 27.5t32.5 68.5q0 42 -32.5 69.5t-83.5 27.5z" />
    <glyph glyph-name="cyrbreve.cap" horiz-adv-x="946" 
d="M762 1921q0 -75 -76 -132.5t-213 -57.5t-213 57.5t-76 132.5h-153q0 -60 29 -115.5t82.5 -101t139.5 -73t191 -27.5t191 27.5t139.5 73t82.5 101t29 115.5h-153z" />
    <glyph glyph-name="acute.pl" horiz-adv-x="335" 
d="M143 1550l-143 -348h158l178 348h-193z" />
    </font>
</defs>
</svg>
