<?xml version="1.0" standalone="no"?>
<!DOCTYPE svg PUBLIC "-//W3C//DTD SVG 20010904//EN"
 "http://www.w3.org/TR/2001/REC-SVG-20010904/DTD/svg10.dtd">
<svg version="1.0" xmlns="http://www.w3.org/2000/svg"
 width="100.000000pt" height="100.000000pt" viewBox="0 0 100.000000 100.000000"
 preserveAspectRatio="xMidYMid meet">
<metadata>
Created by potrace 1.14, written by Peter Selinger 2001-2017
</metadata>
<g transform="translate(0.000000,100.000000) scale(0.100000,-0.100000)"
fill="#000000" stroke="none">
<path d="M212 653 c-42 -15 -122 -80 -122 -100 0 -5 16 -17 35 -26 l36 -17 34
35 c58 57 159 70 189 23 18 -29 -11 -46 -140 -87 l-119 -38 -3 -67 -3 -66 186
0 186 0 -3 38 -3 37 -135 5 -135 5 61 17 c125 35 175 59 195 92 10 17 19 39
19 49 0 36 -32 85 -65 101 -42 20 -155 20 -213 -1z"/>
<path d="M653 654 c-40 -15 -123 -84 -123 -103 0 -5 17 -16 38 -24 37 -15 37
-15 71 19 44 43 101 60 153 45 27 -9 38 -17 38 -32 0 -28 -44 -51 -160 -84
l-100 -28 0 -69 0 -68 180 0 180 0 0 40 0 40 -137 0 -138 1 111 37 c62 20 121
45 133 56 51 46 31 144 -34 172 -44 18 -157 17 -212 -2z"/>
</g>
</svg>
