<svg xmlns="http://www.w3.org/2000/svg" viewBox="0 0 1543.36 864.31"><path d="M939.8,432.15c339.4-22.34,592.42-109,592.42-212.53C1532.22,99.16,1189.56,1.5,766.86,1.5S1.5,99.16,1.5,219.62c0,103.52,253,190.19,592.42,212.53C254.52,454.49,1.5,541.17,1.5,644.68c0,120.47,342.66,218.13,765.36,218.13s765.36-97.66,765.36-218.13C1532.22,541.17,1279.2,454.49,939.8,432.15Z" style="fill:#9c9c9c"/><path d="M939.8,432.15c339.4-22.34,592.42-109,592.42-212.53C1532.22,99.16,1189.56,1.5,766.86,1.5S1.5,99.16,1.5,219.62c0,103.52,253,190.19,592.42,212.53C254.52,454.49,1.5,541.17,1.5,644.68c0,120.47,342.66,218.13,765.36,218.13s765.36-97.66,765.36-218.13C1532.22,541.17,1279.2,454.49,939.8,432.15Z" style="fill:none;stroke:#222221;stroke-miterlimit:10;stroke-width:3px"/><path d="M645.81,486.65a613.93,613.93,0,0,1,245.48-89.27c31.5-4.23,64-5.93,94.65,2.47,12.09,3.31,24.2,8.49,32.46,17.92,20.8,23.73,8.72,60.12,10.07,91.65,5.53-51.11,42-95.69,87.67-119.26s99.31-28.13,150.32-21.8,100.12,22.92,148.64,39.88c-35.89-19-72.74-38.71-98.67-69.94s-38.53-77.15-19.74-113.14c13.62-26.08,40.45-42.1,66-56.77L1542.12,65.15c-58.07,33.41-122.91,62.53-187.26,81.19-41,11.89-73.55,11.87-101.44-23.9-23.37-30-36.58-69.43-43.48-106.5" style="fill:#9c9c9c"/><path d="M646.44,487.73A615.15,615.15,0,0,1,824.7,411.44c31.85-8,64.66-14,97.48-15.87,17.38-1,34.94-.5,52.06,2.83,15.3,3,32,7.8,42.79,19.72s12.79,28.38,12.42,43.9c-.37,15.82-2.81,31.55-2.23,47.4a1.25,1.25,0,0,0,2.5,0c6.14-54.05,45.86-99.15,94-121.61,57.27-26.69,123.25-24.48,183.64-11,36.55,8.16,72.06,20.29,107.38,32.63a1.25,1.25,0,0,0,1-2.28c-29.71-15.71-60-31.75-84.6-55-23.25-22-40.46-51.53-42.07-84.09-.78-15.77,2.45-31.58,10.39-45.3,8.07-13.93,20.16-25,33.17-34.21,13.69-9.73,28.5-17.82,43-26.18L1426.72,133l116-66.75a1.25,1.25,0,0,0-1.27-2.16c-53.78,30.88-110.55,57-169.69,75.81-23.24,7.39-48.7,15.78-73.34,11-25.28-4.93-42.55-24.5-55.33-45.62-16.54-27.32-26.11-58.41-32-89.64-.29-1.57-2.7-.91-2.41.67,5.37,28.53,13.85,56.81,27.75,82.4,11.62,21.41,27.48,43.1,51.19,51.78,21.85,8,45.86,3.35,67.52-2.91a774.29,774.29,0,0,0,89.36-32.19,938,938,0,0,0,98.21-49.12l-1.27-2.16-108.3,62.3-53.38,30.71c-15.52,8.92-31.38,17.48-46.13,27.66-12.56,8.67-24.4,18.77-33.06,31.46a82.33,82.33,0,0,0-14.06,42.43c-1.56,31,12.08,61.65,32.4,84.54,26,29.33,61.32,48.08,95.51,66.15l1-2.28c-63.29-22.12-128.66-44-196.56-42.44-58.11,1.3-116.86,20.7-155.74,65.64-19.34,22.35-32.56,49.68-35.91,79.18h2.5c-1-26.82,8.74-57.42-3.82-82.69-6.35-12.77-18.18-20.72-31.3-25.47-15.86-5.72-33-8-49.82-8.52-34.19-1.08-68.9,4.7-102.22,11.95a616,616,0,0,0-197.38,80.88c-1.36.86-.1,3,1.26,2.16Z"/><path d="M1208.89,15c-10.39,11.63-24.23,19.51-39,24.27-16.68,5.4-34.3,6.73-51.74,6.53-10.57-.13-21.13-.81-31.69-1.49-1.6-.1-1.6,2.4,0,2.5,19,1.23,38.18,2.47,57.2.41,16.17-1.74,32.22-6,46.43-14a81.46,81.46,0,0,0,20.54-16.4c1.07-1.2-.69-3-1.77-1.77Z"/><path d="M618.3,221.17V168.23H633V220.4q0,15.16,6.11,26.23a41.85,41.85,0,0,0,16.64,16.87,48.43,48.43,0,0,0,23.84,5.81q13.93,0,24.46-5.81a40,40,0,0,0,16.33-16.79q5.8-11,5.8-26.31V168.23h13.93v52.94q0,17.81-7.27,31.58a52.24,52.24,0,0,1-21,21.51Q698.17,282,679.59,282t-32.43-7.74a53.42,53.42,0,0,1-21.36-21.59Q618.3,238.83,618.3,221.17Z"/><path d="M983.07,165.91q22.44,0,40,7.66t27.32,20.9a48.53,48.53,0,0,1,9.75,29.49,49.12,49.12,0,0,1-9.75,30q-9.75,13.15-27.24,20.58T983.07,282q-22.61,0-40.09-7.43T915.73,254A49.12,49.12,0,0,1,906,224a48.53,48.53,0,0,1,9.75-29.49q9.76-13.23,27.32-20.9T983.07,165.91Zm0,12.7q-18.12,0-32.35,6.11T928.58,201.2a36.64,36.64,0,0,0,0,45.43q7.89,10.45,22.14,16.57t32.35,6.11q18.1,0,32.35-6.11t22.13-16.57a36.61,36.61,0,0,0,0-45.43q-7.89-10.37-22.13-16.48T983.07,178.61Z"/><path d="M581.61,176.44q10.83,8.2,10.84,20.89a20.36,20.36,0,0,1-5.5,14A35.51,35.51,0,0,1,574,220.55a41.52,41.52,0,0,1,18.11,9.52,22.53,22.53,0,0,1,7.58,17.42,26.26,26.26,0,0,1-5.57,16.4q-5.56,7.29-17.41,11.53t-29.65,4.26H473.57V168.23h70Q570.79,168.23,581.61,176.44ZM569,211.26q8.28-4.48,8.28-12.84,0-8.52-8.36-13.16t-24.15-4.64H488v35.13h56.8Q560.71,215.75,569,211.26Zm6.65,50.62q8.91-5.42,8.9-14.39t-8.82-14.09q-8.82-5.27-27.4-5.26H488V267.3h60.36Q566.75,267.3,575.65,261.88Z"/><path d="M869.67,173.11q11.61,4.88,16,12.07a27.51,27.51,0,0,1,0,29.88q-4.41,7.2-16,12.07T838.25,232H833.6v2l68.88,45.66H878.8L807.29,232H783.45v47.67h-14.7V168.23h69.5Q858.05,168.23,869.67,173.11Zm-2.94,40.79q8.35-5.73,8.36-13.78t-8.36-13.77q-8.37-5.73-28.48-5.73h-54.8v39h54.8Q858.37,219.62,866.73,213.9Z"/><path d="M620.31,182.79c-13.87,16.12-33.06,19.55-50.64,10.67-6.27-3.16-12.4-8.56-14.39-16.62S556,159.93,560.7,154s11.09-9.33,17.51-11.64c26.08-9.37,55.61-2.29,77,18.46a28.6,28.6,0,0,1,9.91-18c5-4.18,10.9-6.34,16.82-7.65,21.31-4.71,45.64,2.63,58.37,24.45,4.35,7.46,7.19,17.41,4.29,25.9,5.64-8.45,16.52-8.31,24.3-3.14a17.39,17.39,0,0,1,6.8,7.81c3.14,7.74-.74,17-5.4,23.47-15.54,21.45-39.42,29.91-62.29,34.57-30.41,6.2-62.41,7.25-91.19-6.46,9.87,2.17,18.35,12.11,20.69,24.26a210.24,210.24,0,0,1,79.32-11.88c14.45.65,29.26,3,42,11.61a25.29,25.29,0,0,1,8.24,8.4c2,3.67,2.92,8.6,1.5,12.7-1.58,4.57-5.5,7.08-9.21,8.94-28.71,14.39-61.33,11.09-91.19,1-13.85-4.7-28-11.32-37.47-24.78-11.33,16.21-27.6,26.93-44.73,29.47-8.55,1.27-17.61.43-25.06-4.93a29.79,29.79,0,0,1-11.64-26.61c.88-7.58,4.86-14.05,9.38-19.24,8.36-9.58,18.82-15.86,29.46-20.84a162.57,162.57,0,0,1,75.53-15.52c9.91.4,20,1.81,29,7-3.15-16.14,1-34.18,10.64-45.71-6.3,6-14.22,8.75-22,10.5-27.43,6.16-56.32,1.74-81.74-12.49" style="fill:#fff"/><path d="M619.43,181.9c-8.5,9.8-20.44,16-33.62,15-12.06-1-26.36-7.82-29.37-20.57-1.58-6.69.22-14,3.91-19.69,3.83-5.9,9.94-9.84,16.38-12.38a68.89,68.89,0,0,1,38.09-3.46,77.68,77.68,0,0,1,35.61,17.33q2,1.74,3.94,3.59a1.27,1.27,0,0,0,2.13-.89c1.24-9.31,7.48-17.07,15.81-21.14,7.39-3.6,16.08-4.9,24.23-4.6,15.71.56,30.73,8,40,20.87,5.89,8.19,10.27,19.16,6.94,29.22-.47,1.41,1.52,2.08,2.29,1,3.54-5.17,9.73-7,15.72-5.66,6.4,1.47,12.63,6.14,13.93,12.86,1.39,7.22-2.42,14.71-6.6,20.34a71.12,71.12,0,0,1-15.23,15.07c-11,8-23.81,12.94-36.91,16.24a200.39,200.39,0,0,1-46.15,6.34c-16.1.22-32.25-2.12-47.25-8.13q-2.91-1.17-5.73-2.52l-1,2.29c10.81,2.46,17.77,13.07,19.81,23.38a1.26,1.26,0,0,0,1.54.87A211.69,211.69,0,0,1,700,255.3a164,164,0,0,1,30,1.25c9.54,1.42,18.9,4.26,27,9.52,3.95,2.55,7.71,5.71,9.62,10.13,1.79,4.13,1.95,9.2-.74,13-2.47,3.47-6.7,5.34-10.47,7a86.87,86.87,0,0,1-13.77,4.85c-19.06,5-39.19,3.56-58.16-1.13a154.29,154.29,0,0,1-26.17-8.73c-7.91-3.56-15.36-8.23-21.3-14.61a50.88,50.88,0,0,1-4.31-5.3,1.27,1.27,0,0,0-2.16,0c-9.42,13.41-23.18,24.17-39.31,28-8,1.91-17,2.22-24.61-1.43A27.69,27.69,0,0,1,551,279c-4.24-18.28,11.88-33.35,26-41.92a143,143,0,0,1,25.15-11.79,165,165,0,0,1,27.89-7.51,156.58,156.58,0,0,1,28.35-2.37c9.18.06,18.57.71,27.25,4a43.55,43.55,0,0,1,6.33,3,1.27,1.27,0,0,0,1.83-1.42c-2.89-15.13.39-32.44,10.32-44.49,1-1.22-.57-2.89-1.76-1.77-5,4.76-11.35,7.55-18,9.33a104.83,104.83,0,0,1-20.29,3.28,113.93,113.93,0,0,1-41.54-5.06,120.45,120.45,0,0,1-22.46-9.73c-1.41-.78-2.67,1.38-1.26,2.16a120.37,120.37,0,0,0,41.7,14.21,113.57,113.57,0,0,0,42.95-2.05c7.59-1.88,14.89-4.94,20.63-10.37l-1.76-1.77c-10.55,12.79-14,30.84-11,46.93l1.84-1.41c-8.46-4.82-18.08-6.55-27.69-7.07a157.82,157.82,0,0,0-29.87,1.26,161.83,161.83,0,0,0-56.51,18.55,78.36,78.36,0,0,0-21.94,17.41c-5.78,6.82-10,15.27-9.35,24.41a31.12,31.12,0,0,0,11.4,22.08c7.2,5.64,16.56,7.09,25.45,6,17-2.09,32.19-11.86,42.94-24.88q2.14-2.61,4.08-5.37h-2.16c11,15.54,29,22.89,46.65,28,19.51,5.64,40.33,8.15,60.41,4.21a91.65,91.65,0,0,0,14.87-4.23c4.3-1.64,8.86-3.45,12.6-6.18a14.51,14.51,0,0,0,6.32-10.75A18.87,18.87,0,0,0,766,270.45c-3.08-3.8-7.41-6.6-11.69-8.88a65,65,0,0,0-13.87-5.42c-9.8-2.64-20.06-3.34-30.18-3.47a211.6,211.6,0,0,0-65.15,9.49c-2.66.82-5.3,1.7-7.93,2.62l1.53.87c-2.2-11.12-9.94-22.48-21.55-25.12-1.32-.3-2.31,1.64-1,2.28,15.58,7.38,32.64,10.73,49.82,11a199.31,199.31,0,0,0,49.28-5.94c13.91-3.35,27.67-8.4,39.32-16.87a75.28,75.28,0,0,0,16-15.75c4.49-6,8.26-13.63,7.3-21.3-1.69-13.51-20.37-21.5-31.09-12.8a17,17,0,0,0-3.33,3.71l2.28,1c3.13-9.48-.11-20-5.2-28.18a52.74,52.74,0,0,0-18.44-17.89c-14.51-8.31-33.43-9.67-48.92-3.23C663,140.78,655.49,149.66,654,160.81l2.14-.88a81.81,81.81,0,0,0-37-20.76A72,72,0,0,0,578.42,141c-6.8,2.38-13.37,5.89-18.06,11.49a29.63,29.63,0,0,0-7,20c.66,14.5,14,23.44,27.08,26.15,13.46,2.8,26.92-1.59,36.86-10.92a54.1,54.1,0,0,0,3.85-4c1-1.21-.71-3-1.77-1.77Z"/><path d="M852.09,182.79c-13.87,16.12-33.06,19.55-50.64,10.67-6.27-3.16-12.41-8.56-14.39-16.62s.73-16.91,5.42-22.85,11.08-9.33,17.51-11.64c26.08-9.37,55.61-2.29,77,18.46a28.55,28.55,0,0,1,9.91-18c5-4.18,10.9-6.34,16.82-7.65,21.3-4.71,45.63,2.63,58.37,24.45,4.35,7.46,7.18,17.41,4.28,25.9,5.65-8.45,16.52-8.31,24.31-3.14a17.39,17.39,0,0,1,6.8,7.81c3.14,7.74-.75,17-5.41,23.47-15.53,21.45-39.41,29.91-62.29,34.57-30.4,6.2-62.4,7.25-91.18-6.46,9.87,2.17,18.35,12.11,20.69,24.26a210.24,210.24,0,0,1,79.32-11.88c14.44.65,29.26,3,41.94,11.61a25.32,25.32,0,0,1,8.25,8.4c2,3.67,2.92,8.6,1.5,12.7-1.58,4.57-5.5,7.08-9.21,8.94-28.71,14.39-61.34,11.09-91.19,1-13.85-4.7-28-11.32-37.47-24.78-11.34,16.21-27.61,26.93-44.74,29.47-8.54,1.27-17.6.43-25.06-4.93A29.81,29.81,0,0,1,781,269.87c.88-7.58,4.86-14.05,9.38-19.24,8.36-9.58,18.82-15.86,29.46-20.84a162.55,162.55,0,0,1,75.52-15.52c9.91.4,19.55-.88,28.55,4.3a51.31,51.31,0,0,1,11.1-43c-6.3,6-14.22,8.75-22,10.5-27.42,6.16-56.31,1.74-81.73-12.49" style="fill:#fff"/><path d="M851.21,181.9c-8.5,9.8-20.44,16-33.62,15-12.07-1-26.36-7.82-29.37-20.57-1.58-6.69.22-14,3.91-19.69,3.83-5.9,9.94-9.84,16.38-12.38a68.85,68.85,0,0,1,38.08-3.46,77.67,77.67,0,0,1,35.62,17.33q2,1.74,3.94,3.59a1.27,1.27,0,0,0,2.13-.89c1.24-9.31,7.47-17.07,15.81-21.14,7.38-3.6,16.07-4.9,24.23-4.6,15.7.56,30.72,8,39.95,20.87,5.89,8.19,10.26,19.16,6.94,29.22-.47,1.41,1.52,2.08,2.28,1,3.54-5.17,9.74-7,15.73-5.66,6.4,1.47,12.63,6.14,13.93,12.86,1.39,7.22-2.43,14.71-6.6,20.34a71.35,71.35,0,0,1-15.23,15.07c-11,8-23.81,12.94-36.91,16.24a200.39,200.39,0,0,1-46.15,6.34c-16.1.22-32.26-2.12-47.25-8.13q-2.91-1.17-5.74-2.52l-1,2.29c10.8,2.46,17.77,13.07,19.81,23.38a1.26,1.26,0,0,0,1.54.87,211.69,211.69,0,0,1,62.1-11.9,164,164,0,0,1,30,1.25c9.53,1.42,18.9,4.26,27,9.52,3.95,2.55,7.71,5.71,9.62,10.13,1.79,4.13,1.95,9.2-.74,13-2.47,3.47-6.7,5.34-10.47,7a87.22,87.22,0,0,1-13.77,4.85c-19.06,5-39.2,3.56-58.17-1.13a154.48,154.48,0,0,1-26.16-8.73c-7.91-3.56-15.36-8.23-21.31-14.61a52.1,52.1,0,0,1-4.3-5.3,1.27,1.27,0,0,0-2.16,0c-9.39,13.36-23.08,24.09-39.13,27.95-8.1,1.95-17.12,2.28-24.79-1.39a27.67,27.67,0,0,1-14.61-18.68c-4.36-18.29,11.66-33.39,25.77-42a141.88,141.88,0,0,1,24.9-11.74,164.93,164.93,0,0,1,27.86-7.59A156.48,156.48,0,0,1,890,215.4c4.55,0,9.11.2,13.67.24A52.78,52.78,0,0,1,917,217a27.85,27.85,0,0,1,6.36,2.62,1.27,1.27,0,0,0,1.84-1.41,50.77,50.77,0,0,1,10.77-41.8,1.25,1.25,0,0,0-1.77-1.77c-5,4.76-11.34,7.55-18,9.33a104.83,104.83,0,0,1-20.29,3.28,113.91,113.91,0,0,1-41.54-5.06,120.17,120.17,0,0,1-22.46-9.73c-1.41-.78-2.67,1.38-1.26,2.16a120.39,120.39,0,0,0,41.69,14.21,113.61,113.61,0,0,0,43-2.05c7.59-1.88,14.88-4.94,20.63-10.37l-1.77-1.77a53.45,53.45,0,0,0-11.41,44.24l1.84-1.42c-8.56-4.83-18.19-4.18-27.66-4.42a184,184,0,0,0-29.68,1.34A161.35,161.35,0,0,0,810.79,233a78,78,0,0,0-21.89,17.46c-5.76,6.85-9.89,15.32-9.21,24.46a31.16,31.16,0,0,0,11.53,22c7.16,5.56,16.49,7,25.31,5.88,17-2.1,32.18-11.85,42.94-24.88q2.14-2.61,4.08-5.37h-2.16c11,15.54,29,22.89,46.65,28,19.51,5.64,40.33,8.15,60.41,4.21a91.25,91.25,0,0,0,14.86-4.23c4.31-1.64,8.87-3.45,12.61-6.18a14.51,14.51,0,0,0,6.32-10.75,18.91,18.91,0,0,0-4.42-13.18c-3.08-3.8-7.42-6.6-11.69-8.88a65,65,0,0,0-13.87-5.42c-9.8-2.64-20.06-3.34-30.18-3.47a211.6,211.6,0,0,0-65.15,9.49c-2.66.82-5.31,1.7-7.93,2.62l1.53.87c-2.2-11.12-9.95-22.48-21.56-25.12-1.31-.3-2.3,1.64-1,2.28,15.58,7.38,32.64,10.73,49.82,11a199.31,199.31,0,0,0,49.28-5.94c13.91-3.35,27.67-8.4,39.32-16.87a75.28,75.28,0,0,0,16-15.75c4.48-6,8.26-13.63,7.3-21.3-1.69-13.51-20.38-21.5-31.1-12.8a17.56,17.56,0,0,0-3.33,3.71l2.29,1c3.13-9.48-.11-20-5.2-28.18A52.74,52.74,0,0,0,954,139.75c-14.51-8.31-33.43-9.67-48.93-3.23-10.27,4.26-17.78,13.14-19.27,24.29l2.13-.88a81.71,81.71,0,0,0-37-20.76A72,72,0,0,0,810.2,141c-6.8,2.38-13.37,5.89-18.07,11.49a29.68,29.68,0,0,0-6.94,20c.65,14.5,14,23.44,27.07,26.15,13.47,2.8,26.93-1.59,36.87-10.92a54.1,54.1,0,0,0,3.85-4c1-1.21-.72-3-1.77-1.77Z"/><path d="M488,210.51V180.62h56.8q15.79,0,24.15,4.64t8.36,13.16c0,5.13-2.37,9.15-7,12.09h17.41a20.22,20.22,0,0,0,4.81-13.18q0-12.69-10.84-20.89t-38.08-8.21h-70v42.28Z"/><path d="M659.16,138.67A11.84,11.84,0,0,1,667,141.3a8.13,8.13,0,0,1,3.18,6.5,7.93,7.93,0,0,1-3.18,6.43,13.25,13.25,0,0,1-15.63,0,8,8,0,0,1-3.17-6.43,8.15,8.15,0,0,1,3.17-6.5A11.87,11.87,0,0,1,659.16,138.67Z"/><path d="M699.09,138.67a11.87,11.87,0,0,1,7.82,2.63,8.15,8.15,0,0,1,3.17,6.5,8,8,0,0,1-3.17,6.43,13.25,13.25,0,0,1-15.63,0,7.93,7.93,0,0,1-3.18-6.43,8.13,8.13,0,0,1,3.18-6.5A11.84,11.84,0,0,1,699.09,138.67Z"/><path d="M783.45,243.47V232h16.39l17.79-12.39H783.45v-37.2a25.43,25.43,0,0,1-4.57-14.19H768.75V253.8Z"/><path d="M924.92,206.93a42.2,42.2,0,0,1,3.66-5.73q7.9-10.37,22.14-16.48t32.35-6.11q18.1,0,32.35,6.11t22.13,16.48a36.78,36.78,0,0,1,7.9,22.76,36,36,0,0,1-1.12,8.94L1058.8,236a52.38,52.38,0,0,0,1.35-12,48.53,48.53,0,0,0-9.75-29.49q-9.75-13.23-27.32-20.9t-40-7.66q-22.46,0-40,7.66t-27.32,20.9a51.11,51.11,0,0,0-5.33,9.07C914.45,204.52,919.36,205.66,924.92,206.93Z"/><path d="M732.81,252.8l0-.05q7.27-13.78,7.27-31.58V168.23H726.18V220.4q0,15.32-5.8,26.31a45.67,45.67,0,0,1-2.88,4.7Z"/></svg>